G04 #@! TF.GenerationSoftware,KiCad,Pcbnew,5.1.5+dfsg1-2build2*
G04 #@! TF.CreationDate,2021-02-27T17:19:35-05:00*
G04 #@! TF.ProjectId,gpsdo,67707364-6f2e-46b6-9963-61645f706362,rev?*
G04 #@! TF.SameCoordinates,Original*
G04 #@! TF.FileFunction,Legend,Top*
G04 #@! TF.FilePolarity,Positive*
%FSLAX46Y46*%
G04 Gerber Fmt 4.6, Leading zero omitted, Abs format (unit mm)*
G04 Created by KiCad (PCBNEW 5.1.5+dfsg1-2build2) date 2021-02-27 17:19:35*
%MOMM*%
%LPD*%
G04 APERTURE LIST*
%ADD10C,0.120000*%
%ADD11C,0.100000*%
%ADD12C,0.150000*%
G04 APERTURE END LIST*
D10*
X86730000Y-4820000D02*
X86480000Y-4320000D01*
X86230000Y-4820000D02*
X86730000Y-4820000D01*
X86480000Y-4320000D02*
X86230000Y-4820000D01*
X88430000Y-60000D02*
X87320000Y-60000D01*
X85640000Y-60000D02*
X84530000Y-60000D01*
X88430000Y-3770000D02*
X87320000Y-3770000D01*
X85640000Y-3770000D02*
X84530000Y-3770000D01*
X61437221Y-17690000D02*
X61762779Y-17690000D01*
X61437221Y-18710000D02*
X61762779Y-18710000D01*
X47110000Y-12962779D02*
X47110000Y-12637221D01*
X46090000Y-12962779D02*
X46090000Y-12637221D01*
X66550000Y-24800000D02*
X69850000Y-24800000D01*
X69850000Y-24800000D02*
X69850000Y-19400000D01*
X66550000Y-24800000D02*
X66550000Y-19400000D01*
X69802064Y-36110000D02*
X68597936Y-36110000D01*
X69802064Y-34290000D02*
X68597936Y-34290000D01*
X57558578Y-35290000D02*
X57041422Y-35290000D01*
X57558578Y-36710000D02*
X57041422Y-36710000D01*
X74028578Y-35940000D02*
X73511422Y-35940000D01*
X74028578Y-34520000D02*
X73511422Y-34520000D01*
X40130000Y-4325000D02*
X39307530Y-4325000D01*
X37422470Y-4325000D02*
X36600000Y-4325000D01*
X38692470Y-4325000D02*
X38037530Y-4325000D01*
X40130000Y-9340000D02*
X40130000Y-4325000D01*
X36600000Y-10795000D02*
X36600000Y-4325000D01*
X40130000Y-9340000D02*
X39563471Y-9340000D01*
X38436529Y-9340000D02*
X38293471Y-9340000D01*
X38240000Y-9393471D02*
X38240000Y-9536529D01*
X38240000Y-10663471D02*
X38240000Y-10795000D01*
X38240000Y-10795000D02*
X38037530Y-10795000D01*
X37422470Y-10795000D02*
X36600000Y-10795000D01*
X40130000Y-10100000D02*
X40130000Y-10860000D01*
X40130000Y-10860000D02*
X39000000Y-10860000D01*
X71950000Y-15300000D02*
X73000000Y-15300000D01*
X73000000Y-14250000D02*
X73000000Y-15300000D01*
X63600000Y-9200000D02*
X63600000Y-400000D01*
X63600000Y-400000D02*
X72800000Y-400000D01*
X66300000Y-15100000D02*
X63600000Y-15100000D01*
X63600000Y-15100000D02*
X63600000Y-13200000D01*
X72800000Y-400000D02*
X72800000Y-15100000D01*
X72800000Y-15100000D02*
X70200000Y-15100000D01*
X51300000Y-3562500D02*
X50850000Y-3562500D01*
X51300000Y-1712500D02*
X51300000Y-3562500D01*
X43500000Y837500D02*
X43500000Y587500D01*
X51300000Y837500D02*
X51300000Y587500D01*
X43500000Y-1712500D02*
X43500000Y-3562500D01*
X43500000Y-3562500D02*
X43950000Y-3562500D01*
X49100000Y-4112500D02*
X48650000Y-4112500D01*
X49100000Y-4112500D02*
X49100000Y-3662500D01*
X29270000Y-4330000D02*
X29270000Y-1670000D01*
X26670000Y-4330000D02*
X29270000Y-4330000D01*
X26670000Y-1670000D02*
X29270000Y-1670000D01*
X26670000Y-4330000D02*
X26670000Y-1670000D01*
X25400000Y-4330000D02*
X24070000Y-4330000D01*
X24070000Y-4330000D02*
X24070000Y-3000000D01*
X84326000Y-6512779D02*
X84326000Y-6187221D01*
X85346000Y-6512779D02*
X85346000Y-6187221D01*
X40100000Y-34400000D02*
X35600000Y-34400000D01*
X41350000Y-38400000D02*
X41350000Y-36900000D01*
X35600000Y-40900000D02*
X40100000Y-40900000D01*
X34350000Y-36900000D02*
X34350000Y-38400000D01*
D11*
X65750000Y-32600000D02*
X65750000Y-32100000D01*
X65750000Y-32600000D02*
X66100000Y-32600000D01*
X75450000Y-32600000D02*
X75100000Y-32600000D01*
X75450000Y-32600000D02*
X75450000Y-32100000D01*
X75450000Y-27400000D02*
X75450000Y-27900000D01*
X75450000Y-27400000D02*
X75100000Y-27400000D01*
X65750000Y-27400000D02*
X65750000Y-27900000D01*
X65750000Y-27400000D02*
X66100000Y-27400000D01*
D10*
X31762779Y-31810000D02*
X31437221Y-31810000D01*
X31762779Y-30790000D02*
X31437221Y-30790000D01*
X37900000Y-30100000D02*
G75*
G03X37900000Y-30100000I-700000J0D01*
G01*
X15300000Y-5000000D02*
G75*
G03X15300000Y-5000000I-700000J0D01*
G01*
X82780000Y-23750000D02*
G75*
G03X82780000Y-23750000I-700000J0D01*
G01*
X58010000Y-17290000D02*
X58010000Y-16590000D01*
X58010000Y-16590000D02*
X57310000Y-16590000D01*
X58010000Y-30110000D02*
X58010000Y-30810000D01*
X58010000Y-30810000D02*
X57310000Y-30810000D01*
X43790000Y-17290000D02*
X43790000Y-16590000D01*
X43790000Y-16590000D02*
X44490000Y-16590000D01*
X43790000Y-30110000D02*
X43790000Y-30810000D01*
X43790000Y-30810000D02*
X44490000Y-30810000D01*
X44490000Y-30810000D02*
X44490000Y-32175000D01*
D12*
X77930000Y-21050000D02*
X78430000Y-21550000D01*
X78430000Y-21550000D02*
X88180000Y-21550000D01*
X88180000Y-21550000D02*
X88180000Y-9050000D01*
X88180000Y-9050000D02*
X77930000Y-9050000D01*
X77930000Y-9050000D02*
X77930000Y-21050000D01*
D10*
X78390000Y-34910000D02*
X79650000Y-34910000D01*
X85210000Y-34910000D02*
X83950000Y-34910000D01*
X78390000Y-31150000D02*
X78390000Y-34910000D01*
X85210000Y-28900000D02*
X85210000Y-34910000D01*
X20690000Y-27830000D02*
X32840000Y-27830000D01*
X19940000Y-7680000D02*
X19940000Y-27080000D01*
X32090000Y-6930000D02*
X20690000Y-6930000D01*
X32840000Y-27830000D02*
X32840000Y-7680000D01*
X32840000Y-7680000D02*
G75*
G03X32090000Y-6930000I-750000J0D01*
G01*
X20690000Y-6930000D02*
G75*
G03X19940000Y-7680000I0J-750000D01*
G01*
X19940000Y-27080000D02*
G75*
G03X20690000Y-27830000I750000J0D01*
G01*
D12*
X47290000Y-6800000D02*
X46790000Y-6800000D01*
X47290000Y-9800000D02*
X50290000Y-9800000D01*
X47290000Y-6800000D02*
X50290000Y-6800000D01*
X46790000Y-6800000D02*
X46790000Y-6940000D01*
D10*
X60940000Y-34800000D02*
X60940000Y-37485000D01*
X60940000Y-37485000D02*
X62860000Y-37485000D01*
X62860000Y-37485000D02*
X62860000Y-34800000D01*
D12*
X19650000Y-4470000D02*
X17450000Y-4470000D01*
X17450000Y-4470000D02*
X17350000Y-4570000D01*
X19450000Y-6670000D02*
X17450000Y-6670000D01*
D10*
X48560000Y-34940000D02*
X48560000Y-38240000D01*
X48560000Y-38240000D02*
X52560000Y-38240000D01*
X3810000Y-50840000D02*
X3810000Y-51950000D01*
X3810000Y-48050000D02*
X3810000Y-49160000D01*
X100000Y-50840000D02*
X100000Y-51950000D01*
X100000Y-48050000D02*
X100000Y-49160000D01*
X4360000Y-50000000D02*
X4860000Y-50250000D01*
X4860000Y-50250000D02*
X4860000Y-49750000D01*
X4860000Y-49750000D02*
X4360000Y-50000000D01*
X4860000Y-61683333D02*
X4360000Y-61933333D01*
X4860000Y-62183333D02*
X4860000Y-61683333D01*
X4360000Y-61933333D02*
X4860000Y-62183333D01*
X100000Y-59983333D02*
X100000Y-61093333D01*
X100000Y-62773333D02*
X100000Y-63883333D01*
X3810000Y-59983333D02*
X3810000Y-61093333D01*
X3810000Y-62773333D02*
X3810000Y-63883333D01*
X95040000Y-74116666D02*
X95540000Y-73866666D01*
X95040000Y-73616666D02*
X95040000Y-74116666D01*
X95540000Y-73866666D02*
X95040000Y-73616666D01*
X99800000Y-75816666D02*
X99800000Y-74706666D01*
X99800000Y-73026666D02*
X99800000Y-71916666D01*
X96090000Y-75816666D02*
X96090000Y-74706666D01*
X96090000Y-73026666D02*
X96090000Y-71916666D01*
X3810000Y-86640000D02*
X3810000Y-87750000D01*
X3810000Y-83850000D02*
X3810000Y-84960000D01*
X100000Y-86640000D02*
X100000Y-87750000D01*
X100000Y-83850000D02*
X100000Y-84960000D01*
X4360000Y-85800000D02*
X4860000Y-86050000D01*
X4860000Y-86050000D02*
X4860000Y-85550000D01*
X4860000Y-85550000D02*
X4360000Y-85800000D01*
X95040000Y-50250000D02*
X95540000Y-50000000D01*
X95040000Y-49750000D02*
X95040000Y-50250000D01*
X95540000Y-50000000D02*
X95040000Y-49750000D01*
X99800000Y-51950000D02*
X99800000Y-50840000D01*
X99800000Y-49160000D02*
X99800000Y-48050000D01*
X96090000Y-51950000D02*
X96090000Y-50840000D01*
X96090000Y-49160000D02*
X96090000Y-48050000D01*
X96090000Y-61093333D02*
X96090000Y-59983333D01*
X96090000Y-63883333D02*
X96090000Y-62773333D01*
X99800000Y-61093333D02*
X99800000Y-59983333D01*
X99800000Y-63883333D02*
X99800000Y-62773333D01*
X95540000Y-61933333D02*
X95040000Y-61683333D01*
X95040000Y-61683333D02*
X95040000Y-62183333D01*
X95040000Y-62183333D02*
X95540000Y-61933333D01*
X4860000Y-73616666D02*
X4360000Y-73866666D01*
X4860000Y-74116666D02*
X4860000Y-73616666D01*
X4360000Y-73866666D02*
X4860000Y-74116666D01*
X100000Y-71916666D02*
X100000Y-73026666D01*
X100000Y-74706666D02*
X100000Y-75816666D01*
X3810000Y-71916666D02*
X3810000Y-73026666D01*
X3810000Y-74706666D02*
X3810000Y-75816666D01*
X96090000Y-84960000D02*
X96090000Y-83850000D01*
X96090000Y-87750000D02*
X96090000Y-86640000D01*
X99800000Y-84960000D02*
X99800000Y-83850000D01*
X99800000Y-87750000D02*
X99800000Y-86640000D01*
X95540000Y-85800000D02*
X95040000Y-85550000D01*
X95040000Y-85550000D02*
X95040000Y-86050000D01*
X95040000Y-86050000D02*
X95540000Y-85800000D01*
D12*
X85313333Y-5726666D02*
X85789523Y-5726666D01*
X85218095Y-6012380D02*
X85551428Y-5012380D01*
X85884761Y-6012380D01*
X86218095Y-5488571D02*
X86551428Y-5488571D01*
X86694285Y-6012380D02*
X86218095Y-6012380D01*
X86218095Y-5012380D01*
X86694285Y-5012380D01*
X87646666Y-6012380D02*
X87075238Y-6012380D01*
X87360952Y-6012380D02*
X87360952Y-5012380D01*
X87265714Y-5155238D01*
X87170476Y-5250476D01*
X87075238Y-5298095D01*
X40533333Y-34427142D02*
X40485714Y-34474761D01*
X40342857Y-34522380D01*
X40247619Y-34522380D01*
X40104761Y-34474761D01*
X40009523Y-34379523D01*
X39961904Y-34284285D01*
X39914285Y-34093809D01*
X39914285Y-33950952D01*
X39961904Y-33760476D01*
X40009523Y-33665238D01*
X40104761Y-33570000D01*
X40247619Y-33522380D01*
X40342857Y-33522380D01*
X40485714Y-33570000D01*
X40533333Y-33617619D01*
X41485714Y-34522380D02*
X40914285Y-34522380D01*
X41200000Y-34522380D02*
X41200000Y-33522380D01*
X41104761Y-33665238D01*
X41009523Y-33760476D01*
X40914285Y-33808095D01*
X44513333Y-13407142D02*
X44465714Y-13454761D01*
X44322857Y-13502380D01*
X44227619Y-13502380D01*
X44084761Y-13454761D01*
X43989523Y-13359523D01*
X43941904Y-13264285D01*
X43894285Y-13073809D01*
X43894285Y-12930952D01*
X43941904Y-12740476D01*
X43989523Y-12645238D01*
X44084761Y-12550000D01*
X44227619Y-12502380D01*
X44322857Y-12502380D01*
X44465714Y-12550000D01*
X44513333Y-12597619D01*
X44894285Y-12597619D02*
X44941904Y-12550000D01*
X45037142Y-12502380D01*
X45275238Y-12502380D01*
X45370476Y-12550000D01*
X45418095Y-12597619D01*
X45465714Y-12692857D01*
X45465714Y-12788095D01*
X45418095Y-12930952D01*
X44846666Y-13502380D01*
X45465714Y-13502380D01*
X58587142Y-16166666D02*
X58634761Y-16214285D01*
X58682380Y-16357142D01*
X58682380Y-16452380D01*
X58634761Y-16595238D01*
X58539523Y-16690476D01*
X58444285Y-16738095D01*
X58253809Y-16785714D01*
X58110952Y-16785714D01*
X57920476Y-16738095D01*
X57825238Y-16690476D01*
X57730000Y-16595238D01*
X57682380Y-16452380D01*
X57682380Y-16357142D01*
X57730000Y-16214285D01*
X57777619Y-16166666D01*
X57682380Y-15833333D02*
X57682380Y-15214285D01*
X58063333Y-15547619D01*
X58063333Y-15404761D01*
X58110952Y-15309523D01*
X58158571Y-15261904D01*
X58253809Y-15214285D01*
X58491904Y-15214285D01*
X58587142Y-15261904D01*
X58634761Y-15309523D01*
X58682380Y-15404761D01*
X58682380Y-15690476D01*
X58634761Y-15785714D01*
X58587142Y-15833333D01*
X62627142Y-29466666D02*
X62674761Y-29514285D01*
X62722380Y-29657142D01*
X62722380Y-29752380D01*
X62674761Y-29895238D01*
X62579523Y-29990476D01*
X62484285Y-30038095D01*
X62293809Y-30085714D01*
X62150952Y-30085714D01*
X61960476Y-30038095D01*
X61865238Y-29990476D01*
X61770000Y-29895238D01*
X61722380Y-29752380D01*
X61722380Y-29657142D01*
X61770000Y-29514285D01*
X61817619Y-29466666D01*
X62055714Y-28609523D02*
X62722380Y-28609523D01*
X61674761Y-28847619D02*
X62389047Y-29085714D01*
X62389047Y-28466666D01*
X54033333Y-32687142D02*
X53985714Y-32734761D01*
X53842857Y-32782380D01*
X53747619Y-32782380D01*
X53604761Y-32734761D01*
X53509523Y-32639523D01*
X53461904Y-32544285D01*
X53414285Y-32353809D01*
X53414285Y-32210952D01*
X53461904Y-32020476D01*
X53509523Y-31925238D01*
X53604761Y-31830000D01*
X53747619Y-31782380D01*
X53842857Y-31782380D01*
X53985714Y-31830000D01*
X54033333Y-31877619D01*
X54938095Y-31782380D02*
X54461904Y-31782380D01*
X54414285Y-32258571D01*
X54461904Y-32210952D01*
X54557142Y-32163333D01*
X54795238Y-32163333D01*
X54890476Y-32210952D01*
X54938095Y-32258571D01*
X54985714Y-32353809D01*
X54985714Y-32591904D01*
X54938095Y-32687142D01*
X54890476Y-32734761D01*
X54795238Y-32782380D01*
X54557142Y-32782380D01*
X54461904Y-32734761D01*
X54414285Y-32687142D01*
X56633333Y-33287142D02*
X56585714Y-33334761D01*
X56442857Y-33382380D01*
X56347619Y-33382380D01*
X56204761Y-33334761D01*
X56109523Y-33239523D01*
X56061904Y-33144285D01*
X56014285Y-32953809D01*
X56014285Y-32810952D01*
X56061904Y-32620476D01*
X56109523Y-32525238D01*
X56204761Y-32430000D01*
X56347619Y-32382380D01*
X56442857Y-32382380D01*
X56585714Y-32430000D01*
X56633333Y-32477619D01*
X57490476Y-32382380D02*
X57300000Y-32382380D01*
X57204761Y-32430000D01*
X57157142Y-32477619D01*
X57061904Y-32620476D01*
X57014285Y-32810952D01*
X57014285Y-33191904D01*
X57061904Y-33287142D01*
X57109523Y-33334761D01*
X57204761Y-33382380D01*
X57395238Y-33382380D01*
X57490476Y-33334761D01*
X57538095Y-33287142D01*
X57585714Y-33191904D01*
X57585714Y-32953809D01*
X57538095Y-32858571D01*
X57490476Y-32810952D01*
X57395238Y-32763333D01*
X57204761Y-32763333D01*
X57109523Y-32810952D01*
X57061904Y-32858571D01*
X57014285Y-32953809D01*
X39787142Y-29366666D02*
X39834761Y-29414285D01*
X39882380Y-29557142D01*
X39882380Y-29652380D01*
X39834761Y-29795238D01*
X39739523Y-29890476D01*
X39644285Y-29938095D01*
X39453809Y-29985714D01*
X39310952Y-29985714D01*
X39120476Y-29938095D01*
X39025238Y-29890476D01*
X38930000Y-29795238D01*
X38882380Y-29652380D01*
X38882380Y-29557142D01*
X38930000Y-29414285D01*
X38977619Y-29366666D01*
X38882380Y-29033333D02*
X38882380Y-28366666D01*
X39882380Y-28795238D01*
X47733333Y-35127142D02*
X47685714Y-35174761D01*
X47542857Y-35222380D01*
X47447619Y-35222380D01*
X47304761Y-35174761D01*
X47209523Y-35079523D01*
X47161904Y-34984285D01*
X47114285Y-34793809D01*
X47114285Y-34650952D01*
X47161904Y-34460476D01*
X47209523Y-34365238D01*
X47304761Y-34270000D01*
X47447619Y-34222380D01*
X47542857Y-34222380D01*
X47685714Y-34270000D01*
X47733333Y-34317619D01*
X48304761Y-34650952D02*
X48209523Y-34603333D01*
X48161904Y-34555714D01*
X48114285Y-34460476D01*
X48114285Y-34412857D01*
X48161904Y-34317619D01*
X48209523Y-34270000D01*
X48304761Y-34222380D01*
X48495238Y-34222380D01*
X48590476Y-34270000D01*
X48638095Y-34317619D01*
X48685714Y-34412857D01*
X48685714Y-34460476D01*
X48638095Y-34555714D01*
X48590476Y-34603333D01*
X48495238Y-34650952D01*
X48304761Y-34650952D01*
X48209523Y-34698571D01*
X48161904Y-34746190D01*
X48114285Y-34841428D01*
X48114285Y-35031904D01*
X48161904Y-35127142D01*
X48209523Y-35174761D01*
X48304761Y-35222380D01*
X48495238Y-35222380D01*
X48590476Y-35174761D01*
X48638095Y-35127142D01*
X48685714Y-35031904D01*
X48685714Y-34841428D01*
X48638095Y-34746190D01*
X48590476Y-34698571D01*
X48495238Y-34650952D01*
X45233333Y-35027142D02*
X45185714Y-35074761D01*
X45042857Y-35122380D01*
X44947619Y-35122380D01*
X44804761Y-35074761D01*
X44709523Y-34979523D01*
X44661904Y-34884285D01*
X44614285Y-34693809D01*
X44614285Y-34550952D01*
X44661904Y-34360476D01*
X44709523Y-34265238D01*
X44804761Y-34170000D01*
X44947619Y-34122380D01*
X45042857Y-34122380D01*
X45185714Y-34170000D01*
X45233333Y-34217619D01*
X45709523Y-35122380D02*
X45900000Y-35122380D01*
X45995238Y-35074761D01*
X46042857Y-35027142D01*
X46138095Y-34884285D01*
X46185714Y-34693809D01*
X46185714Y-34312857D01*
X46138095Y-34217619D01*
X46090476Y-34170000D01*
X45995238Y-34122380D01*
X45804761Y-34122380D01*
X45709523Y-34170000D01*
X45661904Y-34217619D01*
X45614285Y-34312857D01*
X45614285Y-34550952D01*
X45661904Y-34646190D01*
X45709523Y-34693809D01*
X45804761Y-34741428D01*
X45995238Y-34741428D01*
X46090476Y-34693809D01*
X46138095Y-34646190D01*
X46185714Y-34550952D01*
X36127142Y-29042857D02*
X36174761Y-29090476D01*
X36222380Y-29233333D01*
X36222380Y-29328571D01*
X36174761Y-29471428D01*
X36079523Y-29566666D01*
X35984285Y-29614285D01*
X35793809Y-29661904D01*
X35650952Y-29661904D01*
X35460476Y-29614285D01*
X35365238Y-29566666D01*
X35270000Y-29471428D01*
X35222380Y-29328571D01*
X35222380Y-29233333D01*
X35270000Y-29090476D01*
X35317619Y-29042857D01*
X36222380Y-28090476D02*
X36222380Y-28661904D01*
X36222380Y-28376190D02*
X35222380Y-28376190D01*
X35365238Y-28471428D01*
X35460476Y-28566666D01*
X35508095Y-28661904D01*
X35222380Y-27471428D02*
X35222380Y-27376190D01*
X35270000Y-27280952D01*
X35317619Y-27233333D01*
X35412857Y-27185714D01*
X35603333Y-27138095D01*
X35841428Y-27138095D01*
X36031904Y-27185714D01*
X36127142Y-27233333D01*
X36174761Y-27280952D01*
X36222380Y-27376190D01*
X36222380Y-27471428D01*
X36174761Y-27566666D01*
X36127142Y-27614285D01*
X36031904Y-27661904D01*
X35841428Y-27709523D01*
X35603333Y-27709523D01*
X35412857Y-27661904D01*
X35317619Y-27614285D01*
X35270000Y-27566666D01*
X35222380Y-27471428D01*
X78577142Y-34212857D02*
X78624761Y-34260476D01*
X78672380Y-34403333D01*
X78672380Y-34498571D01*
X78624761Y-34641428D01*
X78529523Y-34736666D01*
X78434285Y-34784285D01*
X78243809Y-34831904D01*
X78100952Y-34831904D01*
X77910476Y-34784285D01*
X77815238Y-34736666D01*
X77720000Y-34641428D01*
X77672380Y-34498571D01*
X77672380Y-34403333D01*
X77720000Y-34260476D01*
X77767619Y-34212857D01*
X78672380Y-33260476D02*
X78672380Y-33831904D01*
X78672380Y-33546190D02*
X77672380Y-33546190D01*
X77815238Y-33641428D01*
X77910476Y-33736666D01*
X77958095Y-33831904D01*
X78672380Y-32308095D02*
X78672380Y-32879523D01*
X78672380Y-32593809D02*
X77672380Y-32593809D01*
X77815238Y-32689047D01*
X77910476Y-32784285D01*
X77958095Y-32879523D01*
X14657142Y-13627142D02*
X14609523Y-13674761D01*
X14466666Y-13722380D01*
X14371428Y-13722380D01*
X14228571Y-13674761D01*
X14133333Y-13579523D01*
X14085714Y-13484285D01*
X14038095Y-13293809D01*
X14038095Y-13150952D01*
X14085714Y-12960476D01*
X14133333Y-12865238D01*
X14228571Y-12770000D01*
X14371428Y-12722380D01*
X14466666Y-12722380D01*
X14609523Y-12770000D01*
X14657142Y-12817619D01*
X15609523Y-13722380D02*
X15038095Y-13722380D01*
X15323809Y-13722380D02*
X15323809Y-12722380D01*
X15228571Y-12865238D01*
X15133333Y-12960476D01*
X15038095Y-13008095D01*
X15990476Y-12817619D02*
X16038095Y-12770000D01*
X16133333Y-12722380D01*
X16371428Y-12722380D01*
X16466666Y-12770000D01*
X16514285Y-12817619D01*
X16561904Y-12912857D01*
X16561904Y-13008095D01*
X16514285Y-13150952D01*
X15942857Y-13722380D01*
X16561904Y-13722380D01*
X85397142Y-33292857D02*
X85444761Y-33340476D01*
X85492380Y-33483333D01*
X85492380Y-33578571D01*
X85444761Y-33721428D01*
X85349523Y-33816666D01*
X85254285Y-33864285D01*
X85063809Y-33911904D01*
X84920952Y-33911904D01*
X84730476Y-33864285D01*
X84635238Y-33816666D01*
X84540000Y-33721428D01*
X84492380Y-33578571D01*
X84492380Y-33483333D01*
X84540000Y-33340476D01*
X84587619Y-33292857D01*
X85492380Y-32340476D02*
X85492380Y-32911904D01*
X85492380Y-32626190D02*
X84492380Y-32626190D01*
X84635238Y-32721428D01*
X84730476Y-32816666D01*
X84778095Y-32911904D01*
X84492380Y-32007142D02*
X84492380Y-31388095D01*
X84873333Y-31721428D01*
X84873333Y-31578571D01*
X84920952Y-31483333D01*
X84968571Y-31435714D01*
X85063809Y-31388095D01*
X85301904Y-31388095D01*
X85397142Y-31435714D01*
X85444761Y-31483333D01*
X85492380Y-31578571D01*
X85492380Y-31864285D01*
X85444761Y-31959523D01*
X85397142Y-32007142D01*
X22457142Y-28987142D02*
X22409523Y-29034761D01*
X22266666Y-29082380D01*
X22171428Y-29082380D01*
X22028571Y-29034761D01*
X21933333Y-28939523D01*
X21885714Y-28844285D01*
X21838095Y-28653809D01*
X21838095Y-28510952D01*
X21885714Y-28320476D01*
X21933333Y-28225238D01*
X22028571Y-28130000D01*
X22171428Y-28082380D01*
X22266666Y-28082380D01*
X22409523Y-28130000D01*
X22457142Y-28177619D01*
X23409523Y-29082380D02*
X22838095Y-29082380D01*
X23123809Y-29082380D02*
X23123809Y-28082380D01*
X23028571Y-28225238D01*
X22933333Y-28320476D01*
X22838095Y-28368095D01*
X24266666Y-28415714D02*
X24266666Y-29082380D01*
X24028571Y-28034761D02*
X23790476Y-28749047D01*
X24409523Y-28749047D01*
X85337142Y-24307142D02*
X85289523Y-24354761D01*
X85146666Y-24402380D01*
X85051428Y-24402380D01*
X84908571Y-24354761D01*
X84813333Y-24259523D01*
X84765714Y-24164285D01*
X84718095Y-23973809D01*
X84718095Y-23830952D01*
X84765714Y-23640476D01*
X84813333Y-23545238D01*
X84908571Y-23450000D01*
X85051428Y-23402380D01*
X85146666Y-23402380D01*
X85289523Y-23450000D01*
X85337142Y-23497619D01*
X86289523Y-24402380D02*
X85718095Y-24402380D01*
X86003809Y-24402380D02*
X86003809Y-23402380D01*
X85908571Y-23545238D01*
X85813333Y-23640476D01*
X85718095Y-23688095D01*
X87194285Y-23402380D02*
X86718095Y-23402380D01*
X86670476Y-23878571D01*
X86718095Y-23830952D01*
X86813333Y-23783333D01*
X87051428Y-23783333D01*
X87146666Y-23830952D01*
X87194285Y-23878571D01*
X87241904Y-23973809D01*
X87241904Y-24211904D01*
X87194285Y-24307142D01*
X87146666Y-24354761D01*
X87051428Y-24402380D01*
X86813333Y-24402380D01*
X86718095Y-24354761D01*
X86670476Y-24307142D01*
X60957142Y-17127142D02*
X60909523Y-17174761D01*
X60766666Y-17222380D01*
X60671428Y-17222380D01*
X60528571Y-17174761D01*
X60433333Y-17079523D01*
X60385714Y-16984285D01*
X60338095Y-16793809D01*
X60338095Y-16650952D01*
X60385714Y-16460476D01*
X60433333Y-16365238D01*
X60528571Y-16270000D01*
X60671428Y-16222380D01*
X60766666Y-16222380D01*
X60909523Y-16270000D01*
X60957142Y-16317619D01*
X61909523Y-17222380D02*
X61338095Y-17222380D01*
X61623809Y-17222380D02*
X61623809Y-16222380D01*
X61528571Y-16365238D01*
X61433333Y-16460476D01*
X61338095Y-16508095D01*
X62766666Y-16222380D02*
X62576190Y-16222380D01*
X62480952Y-16270000D01*
X62433333Y-16317619D01*
X62338095Y-16460476D01*
X62290476Y-16650952D01*
X62290476Y-17031904D01*
X62338095Y-17127142D01*
X62385714Y-17174761D01*
X62480952Y-17222380D01*
X62671428Y-17222380D01*
X62766666Y-17174761D01*
X62814285Y-17127142D01*
X62861904Y-17031904D01*
X62861904Y-16793809D01*
X62814285Y-16698571D01*
X62766666Y-16650952D01*
X62671428Y-16603333D01*
X62480952Y-16603333D01*
X62385714Y-16650952D01*
X62338095Y-16698571D01*
X62290476Y-16793809D01*
X45527142Y-13442857D02*
X45574761Y-13490476D01*
X45622380Y-13633333D01*
X45622380Y-13728571D01*
X45574761Y-13871428D01*
X45479523Y-13966666D01*
X45384285Y-14014285D01*
X45193809Y-14061904D01*
X45050952Y-14061904D01*
X44860476Y-14014285D01*
X44765238Y-13966666D01*
X44670000Y-13871428D01*
X44622380Y-13728571D01*
X44622380Y-13633333D01*
X44670000Y-13490476D01*
X44717619Y-13442857D01*
X45622380Y-12490476D02*
X45622380Y-13061904D01*
X45622380Y-12776190D02*
X44622380Y-12776190D01*
X44765238Y-12871428D01*
X44860476Y-12966666D01*
X44908095Y-13061904D01*
X44622380Y-12157142D02*
X44622380Y-11490476D01*
X45622380Y-11919047D01*
X66152380Y-22138095D02*
X65152380Y-22138095D01*
X65152380Y-21900000D01*
X65200000Y-21757142D01*
X65295238Y-21661904D01*
X65390476Y-21614285D01*
X65580952Y-21566666D01*
X65723809Y-21566666D01*
X65914285Y-21614285D01*
X66009523Y-21661904D01*
X66104761Y-21757142D01*
X66152380Y-21900000D01*
X66152380Y-22138095D01*
X65247619Y-21185714D02*
X65200000Y-21138095D01*
X65152380Y-21042857D01*
X65152380Y-20804761D01*
X65200000Y-20709523D01*
X65247619Y-20661904D01*
X65342857Y-20614285D01*
X65438095Y-20614285D01*
X65580952Y-20661904D01*
X66152380Y-21233333D01*
X66152380Y-20614285D01*
X68866666Y-36948571D02*
X68533333Y-36948571D01*
X68533333Y-37472380D02*
X68533333Y-36472380D01*
X69009523Y-36472380D01*
X69914285Y-37472380D02*
X69342857Y-37472380D01*
X69628571Y-37472380D02*
X69628571Y-36472380D01*
X69533333Y-36615238D01*
X69438095Y-36710476D01*
X69342857Y-36758095D01*
X56466666Y-37578571D02*
X56133333Y-37578571D01*
X56133333Y-38102380D02*
X56133333Y-37102380D01*
X56609523Y-37102380D01*
X57323809Y-37578571D02*
X57466666Y-37626190D01*
X57514285Y-37673809D01*
X57561904Y-37769047D01*
X57561904Y-37911904D01*
X57514285Y-38007142D01*
X57466666Y-38054761D01*
X57371428Y-38102380D01*
X56990476Y-38102380D01*
X56990476Y-37102380D01*
X57323809Y-37102380D01*
X57419047Y-37150000D01*
X57466666Y-37197619D01*
X57514285Y-37292857D01*
X57514285Y-37388095D01*
X57466666Y-37483333D01*
X57419047Y-37530952D01*
X57323809Y-37578571D01*
X56990476Y-37578571D01*
X58514285Y-38102380D02*
X57942857Y-38102380D01*
X58228571Y-38102380D02*
X58228571Y-37102380D01*
X58133333Y-37245238D01*
X58038095Y-37340476D01*
X57942857Y-37388095D01*
X72936666Y-36808571D02*
X72603333Y-36808571D01*
X72603333Y-37332380D02*
X72603333Y-36332380D01*
X73079523Y-36332380D01*
X73793809Y-36808571D02*
X73936666Y-36856190D01*
X73984285Y-36903809D01*
X74031904Y-36999047D01*
X74031904Y-37141904D01*
X73984285Y-37237142D01*
X73936666Y-37284761D01*
X73841428Y-37332380D01*
X73460476Y-37332380D01*
X73460476Y-36332380D01*
X73793809Y-36332380D01*
X73889047Y-36380000D01*
X73936666Y-36427619D01*
X73984285Y-36522857D01*
X73984285Y-36618095D01*
X73936666Y-36713333D01*
X73889047Y-36760952D01*
X73793809Y-36808571D01*
X73460476Y-36808571D01*
X74412857Y-36427619D02*
X74460476Y-36380000D01*
X74555714Y-36332380D01*
X74793809Y-36332380D01*
X74889047Y-36380000D01*
X74936666Y-36427619D01*
X74984285Y-36522857D01*
X74984285Y-36618095D01*
X74936666Y-36760952D01*
X74365238Y-37332380D01*
X74984285Y-37332380D01*
X95638095Y147619D02*
X95638095Y1147619D01*
X95638095Y671428D02*
X96209523Y671428D01*
X96209523Y147619D02*
X96209523Y1147619D01*
X97209523Y147619D02*
X96638095Y147619D01*
X96923809Y147619D02*
X96923809Y1147619D01*
X96828571Y1004761D01*
X96733333Y909523D01*
X96638095Y861904D01*
X2838095Y-52380D02*
X2838095Y947619D01*
X2838095Y471428D02*
X3409523Y471428D01*
X3409523Y-52380D02*
X3409523Y947619D01*
X3838095Y852380D02*
X3885714Y900000D01*
X3980952Y947619D01*
X4219047Y947619D01*
X4314285Y900000D01*
X4361904Y852380D01*
X4409523Y757142D01*
X4409523Y661904D01*
X4361904Y519047D01*
X3790476Y-52380D01*
X4409523Y-52380D01*
X2638095Y-92352380D02*
X2638095Y-91352380D01*
X2638095Y-91828571D02*
X3209523Y-91828571D01*
X3209523Y-92352380D02*
X3209523Y-91352380D01*
X3590476Y-91352380D02*
X4209523Y-91352380D01*
X3876190Y-91733333D01*
X4019047Y-91733333D01*
X4114285Y-91780952D01*
X4161904Y-91828571D01*
X4209523Y-91923809D01*
X4209523Y-92161904D01*
X4161904Y-92257142D01*
X4114285Y-92304761D01*
X4019047Y-92352380D01*
X3733333Y-92352380D01*
X3638095Y-92304761D01*
X3590476Y-92257142D01*
X95838095Y-92752380D02*
X95838095Y-91752380D01*
X95838095Y-92228571D02*
X96409523Y-92228571D01*
X96409523Y-92752380D02*
X96409523Y-91752380D01*
X97314285Y-92085714D02*
X97314285Y-92752380D01*
X97076190Y-91704761D02*
X96838095Y-92419047D01*
X97457142Y-92419047D01*
X38031666Y-11247380D02*
X38031666Y-11961666D01*
X37984047Y-12104523D01*
X37888809Y-12199761D01*
X37745952Y-12247380D01*
X37650714Y-12247380D01*
X39031666Y-12247380D02*
X38460238Y-12247380D01*
X38745952Y-12247380D02*
X38745952Y-11247380D01*
X38650714Y-11390238D01*
X38555476Y-11485476D01*
X38460238Y-11533095D01*
X61902380Y-6083333D02*
X62616666Y-6083333D01*
X62759523Y-6130952D01*
X62854761Y-6226190D01*
X62902380Y-6369047D01*
X62902380Y-6464285D01*
X61997619Y-5654761D02*
X61950000Y-5607142D01*
X61902380Y-5511904D01*
X61902380Y-5273809D01*
X61950000Y-5178571D01*
X61997619Y-5130952D01*
X62092857Y-5083333D01*
X62188095Y-5083333D01*
X62330952Y-5130952D01*
X62902380Y-5702380D01*
X62902380Y-5083333D01*
X47066666Y-4364880D02*
X47066666Y-5079166D01*
X47019047Y-5222023D01*
X46923809Y-5317261D01*
X46780952Y-5364880D01*
X46685714Y-5364880D01*
X47971428Y-4698214D02*
X47971428Y-5364880D01*
X47733333Y-4317261D02*
X47495238Y-5031547D01*
X48114285Y-5031547D01*
X22522380Y-3333333D02*
X23236666Y-3333333D01*
X23379523Y-3380952D01*
X23474761Y-3476190D01*
X23522380Y-3619047D01*
X23522380Y-3714285D01*
X22522380Y-2380952D02*
X22522380Y-2857142D01*
X22998571Y-2904761D01*
X22950952Y-2857142D01*
X22903333Y-2761904D01*
X22903333Y-2523809D01*
X22950952Y-2428571D01*
X22998571Y-2380952D01*
X23093809Y-2333333D01*
X23331904Y-2333333D01*
X23427142Y-2380952D01*
X23474761Y-2428571D01*
X23522380Y-2523809D01*
X23522380Y-2761904D01*
X23474761Y-2857142D01*
X23427142Y-2904761D01*
X83858380Y-6516666D02*
X83858380Y-6992857D01*
X82858380Y-6992857D01*
X83858380Y-5659523D02*
X83858380Y-6230952D01*
X83858380Y-5945238D02*
X82858380Y-5945238D01*
X83001238Y-6040476D01*
X83096476Y-6135714D01*
X83144095Y-6230952D01*
X37633333Y-25922380D02*
X37300000Y-25446190D01*
X37061904Y-25922380D02*
X37061904Y-24922380D01*
X37442857Y-24922380D01*
X37538095Y-24970000D01*
X37585714Y-25017619D01*
X37633333Y-25112857D01*
X37633333Y-25255714D01*
X37585714Y-25350952D01*
X37538095Y-25398571D01*
X37442857Y-25446190D01*
X37061904Y-25446190D01*
X38585714Y-25922380D02*
X38014285Y-25922380D01*
X38300000Y-25922380D02*
X38300000Y-24922380D01*
X38204761Y-25065238D01*
X38109523Y-25160476D01*
X38014285Y-25208095D01*
X37633333Y-24682380D02*
X37300000Y-24206190D01*
X37061904Y-24682380D02*
X37061904Y-23682380D01*
X37442857Y-23682380D01*
X37538095Y-23730000D01*
X37585714Y-23777619D01*
X37633333Y-23872857D01*
X37633333Y-24015714D01*
X37585714Y-24110952D01*
X37538095Y-24158571D01*
X37442857Y-24206190D01*
X37061904Y-24206190D01*
X38014285Y-23777619D02*
X38061904Y-23730000D01*
X38157142Y-23682380D01*
X38395238Y-23682380D01*
X38490476Y-23730000D01*
X38538095Y-23777619D01*
X38585714Y-23872857D01*
X38585714Y-23968095D01*
X38538095Y-24110952D01*
X37966666Y-24682380D01*
X38585714Y-24682380D01*
X37633333Y-22482380D02*
X37300000Y-22006190D01*
X37061904Y-22482380D02*
X37061904Y-21482380D01*
X37442857Y-21482380D01*
X37538095Y-21530000D01*
X37585714Y-21577619D01*
X37633333Y-21672857D01*
X37633333Y-21815714D01*
X37585714Y-21910952D01*
X37538095Y-21958571D01*
X37442857Y-22006190D01*
X37061904Y-22006190D01*
X37966666Y-21482380D02*
X38585714Y-21482380D01*
X38252380Y-21863333D01*
X38395238Y-21863333D01*
X38490476Y-21910952D01*
X38538095Y-21958571D01*
X38585714Y-22053809D01*
X38585714Y-22291904D01*
X38538095Y-22387142D01*
X38490476Y-22434761D01*
X38395238Y-22482380D01*
X38109523Y-22482380D01*
X38014285Y-22434761D01*
X37966666Y-22387142D01*
X31533333Y-32182380D02*
X31200000Y-31706190D01*
X30961904Y-32182380D02*
X30961904Y-31182380D01*
X31342857Y-31182380D01*
X31438095Y-31230000D01*
X31485714Y-31277619D01*
X31533333Y-31372857D01*
X31533333Y-31515714D01*
X31485714Y-31610952D01*
X31438095Y-31658571D01*
X31342857Y-31706190D01*
X30961904Y-31706190D01*
X32390476Y-31515714D02*
X32390476Y-32182380D01*
X32152380Y-31134761D02*
X31914285Y-31849047D01*
X32533333Y-31849047D01*
X63522380Y-32966666D02*
X63046190Y-33300000D01*
X63522380Y-33538095D02*
X62522380Y-33538095D01*
X62522380Y-33157142D01*
X62570000Y-33061904D01*
X62617619Y-33014285D01*
X62712857Y-32966666D01*
X62855714Y-32966666D01*
X62950952Y-33014285D01*
X62998571Y-33061904D01*
X63046190Y-33157142D01*
X63046190Y-33538095D01*
X62522380Y-32061904D02*
X62522380Y-32538095D01*
X62998571Y-32585714D01*
X62950952Y-32538095D01*
X62903333Y-32442857D01*
X62903333Y-32204761D01*
X62950952Y-32109523D01*
X62998571Y-32061904D01*
X63093809Y-32014285D01*
X63331904Y-32014285D01*
X63427142Y-32061904D01*
X63474761Y-32109523D01*
X63522380Y-32204761D01*
X63522380Y-32442857D01*
X63474761Y-32538095D01*
X63427142Y-32585714D01*
X36733333Y-29522380D02*
X36400000Y-29046190D01*
X36161904Y-29522380D02*
X36161904Y-28522380D01*
X36542857Y-28522380D01*
X36638095Y-28570000D01*
X36685714Y-28617619D01*
X36733333Y-28712857D01*
X36733333Y-28855714D01*
X36685714Y-28950952D01*
X36638095Y-28998571D01*
X36542857Y-29046190D01*
X36161904Y-29046190D01*
X37590476Y-28522380D02*
X37400000Y-28522380D01*
X37304761Y-28570000D01*
X37257142Y-28617619D01*
X37161904Y-28760476D01*
X37114285Y-28950952D01*
X37114285Y-29331904D01*
X37161904Y-29427142D01*
X37209523Y-29474761D01*
X37304761Y-29522380D01*
X37495238Y-29522380D01*
X37590476Y-29474761D01*
X37638095Y-29427142D01*
X37685714Y-29331904D01*
X37685714Y-29093809D01*
X37638095Y-28998571D01*
X37590476Y-28950952D01*
X37495238Y-28903333D01*
X37304761Y-28903333D01*
X37209523Y-28950952D01*
X37161904Y-28998571D01*
X37114285Y-29093809D01*
X53822380Y-8766666D02*
X53346190Y-9100000D01*
X53822380Y-9338095D02*
X52822380Y-9338095D01*
X52822380Y-8957142D01*
X52870000Y-8861904D01*
X52917619Y-8814285D01*
X53012857Y-8766666D01*
X53155714Y-8766666D01*
X53250952Y-8814285D01*
X53298571Y-8861904D01*
X53346190Y-8957142D01*
X53346190Y-9338095D01*
X52822380Y-8433333D02*
X52822380Y-7766666D01*
X53822380Y-8195238D01*
X53822380Y-11066666D02*
X53346190Y-11400000D01*
X53822380Y-11638095D02*
X52822380Y-11638095D01*
X52822380Y-11257142D01*
X52870000Y-11161904D01*
X52917619Y-11114285D01*
X53012857Y-11066666D01*
X53155714Y-11066666D01*
X53250952Y-11114285D01*
X53298571Y-11161904D01*
X53346190Y-11257142D01*
X53346190Y-11638095D01*
X53250952Y-10495238D02*
X53203333Y-10590476D01*
X53155714Y-10638095D01*
X53060476Y-10685714D01*
X53012857Y-10685714D01*
X52917619Y-10638095D01*
X52870000Y-10590476D01*
X52822380Y-10495238D01*
X52822380Y-10304761D01*
X52870000Y-10209523D01*
X52917619Y-10161904D01*
X53012857Y-10114285D01*
X53060476Y-10114285D01*
X53155714Y-10161904D01*
X53203333Y-10209523D01*
X53250952Y-10304761D01*
X53250952Y-10495238D01*
X53298571Y-10590476D01*
X53346190Y-10638095D01*
X53441428Y-10685714D01*
X53631904Y-10685714D01*
X53727142Y-10638095D01*
X53774761Y-10590476D01*
X53822380Y-10495238D01*
X53822380Y-10304761D01*
X53774761Y-10209523D01*
X53727142Y-10161904D01*
X53631904Y-10114285D01*
X53441428Y-10114285D01*
X53346190Y-10161904D01*
X53298571Y-10209523D01*
X53250952Y-10304761D01*
X36516666Y-42304761D02*
X36659523Y-42352380D01*
X36897619Y-42352380D01*
X36992857Y-42304761D01*
X37040476Y-42257142D01*
X37088095Y-42161904D01*
X37088095Y-42066666D01*
X37040476Y-41971428D01*
X36992857Y-41923809D01*
X36897619Y-41876190D01*
X36707142Y-41828571D01*
X36611904Y-41780952D01*
X36564285Y-41733333D01*
X36516666Y-41638095D01*
X36516666Y-41542857D01*
X36564285Y-41447619D01*
X36611904Y-41400000D01*
X36707142Y-41352380D01*
X36945238Y-41352380D01*
X37088095Y-41400000D01*
X37421428Y-41352380D02*
X37659523Y-42352380D01*
X37850000Y-41638095D01*
X38040476Y-42352380D01*
X38278571Y-41352380D01*
X39183333Y-42352380D02*
X38611904Y-42352380D01*
X38897619Y-42352380D02*
X38897619Y-41352380D01*
X38802380Y-41495238D01*
X38707142Y-41590476D01*
X38611904Y-41638095D01*
X69326666Y-26874761D02*
X69469523Y-26922380D01*
X69707619Y-26922380D01*
X69802857Y-26874761D01*
X69850476Y-26827142D01*
X69898095Y-26731904D01*
X69898095Y-26636666D01*
X69850476Y-26541428D01*
X69802857Y-26493809D01*
X69707619Y-26446190D01*
X69517142Y-26398571D01*
X69421904Y-26350952D01*
X69374285Y-26303333D01*
X69326666Y-26208095D01*
X69326666Y-26112857D01*
X69374285Y-26017619D01*
X69421904Y-25970000D01*
X69517142Y-25922380D01*
X69755238Y-25922380D01*
X69898095Y-25970000D01*
X70231428Y-25922380D02*
X70469523Y-26922380D01*
X70660000Y-26208095D01*
X70850476Y-26922380D01*
X71088571Y-25922380D01*
X71421904Y-26017619D02*
X71469523Y-25970000D01*
X71564761Y-25922380D01*
X71802857Y-25922380D01*
X71898095Y-25970000D01*
X71945714Y-26017619D01*
X71993333Y-26112857D01*
X71993333Y-26208095D01*
X71945714Y-26350952D01*
X71374285Y-26922380D01*
X71993333Y-26922380D01*
X30314285Y-32182380D02*
X30885714Y-32182380D01*
X30600000Y-33182380D02*
X30600000Y-32182380D01*
X31219047Y-33182380D02*
X31219047Y-32182380D01*
X31219047Y-32658571D02*
X31790476Y-32658571D01*
X31790476Y-33182380D02*
X31790476Y-32182380D01*
X32790476Y-33182380D02*
X32219047Y-33182380D01*
X32504761Y-33182380D02*
X32504761Y-32182380D01*
X32409523Y-32325238D01*
X32314285Y-32420476D01*
X32219047Y-32468095D01*
X35938095Y-28104380D02*
X36509523Y-28104380D01*
X36223809Y-29104380D02*
X36223809Y-28104380D01*
X36842857Y-29104380D02*
X36842857Y-28104380D01*
X37223809Y-28104380D01*
X37319047Y-28152000D01*
X37366666Y-28199619D01*
X37414285Y-28294857D01*
X37414285Y-28437714D01*
X37366666Y-28532952D01*
X37319047Y-28580571D01*
X37223809Y-28628190D01*
X36842857Y-28628190D01*
X38366666Y-29104380D02*
X37795238Y-29104380D01*
X38080952Y-29104380D02*
X38080952Y-28104380D01*
X37985714Y-28247238D01*
X37890476Y-28342476D01*
X37795238Y-28390095D01*
X13338095Y-3004380D02*
X13909523Y-3004380D01*
X13623809Y-4004380D02*
X13623809Y-3004380D01*
X14242857Y-4004380D02*
X14242857Y-3004380D01*
X14623809Y-3004380D01*
X14719047Y-3052000D01*
X14766666Y-3099619D01*
X14814285Y-3194857D01*
X14814285Y-3337714D01*
X14766666Y-3432952D01*
X14719047Y-3480571D01*
X14623809Y-3528190D01*
X14242857Y-3528190D01*
X15195238Y-3099619D02*
X15242857Y-3052000D01*
X15338095Y-3004380D01*
X15576190Y-3004380D01*
X15671428Y-3052000D01*
X15719047Y-3099619D01*
X15766666Y-3194857D01*
X15766666Y-3290095D01*
X15719047Y-3432952D01*
X15147619Y-4004380D01*
X15766666Y-4004380D01*
X80818095Y-21754380D02*
X81389523Y-21754380D01*
X81103809Y-22754380D02*
X81103809Y-21754380D01*
X81722857Y-22754380D02*
X81722857Y-21754380D01*
X82103809Y-21754380D01*
X82199047Y-21802000D01*
X82246666Y-21849619D01*
X82294285Y-21944857D01*
X82294285Y-22087714D01*
X82246666Y-22182952D01*
X82199047Y-22230571D01*
X82103809Y-22278190D01*
X81722857Y-22278190D01*
X82627619Y-21754380D02*
X83246666Y-21754380D01*
X82913333Y-22135333D01*
X83056190Y-22135333D01*
X83151428Y-22182952D01*
X83199047Y-22230571D01*
X83246666Y-22325809D01*
X83246666Y-22563904D01*
X83199047Y-22659142D01*
X83151428Y-22706761D01*
X83056190Y-22754380D01*
X82770476Y-22754380D01*
X82675238Y-22706761D01*
X82627619Y-22659142D01*
X40932380Y-24461904D02*
X41741904Y-24461904D01*
X41837142Y-24414285D01*
X41884761Y-24366666D01*
X41932380Y-24271428D01*
X41932380Y-24080952D01*
X41884761Y-23985714D01*
X41837142Y-23938095D01*
X41741904Y-23890476D01*
X40932380Y-23890476D01*
X41932380Y-22890476D02*
X41932380Y-23461904D01*
X41932380Y-23176190D02*
X40932380Y-23176190D01*
X41075238Y-23271428D01*
X41170476Y-23366666D01*
X41218095Y-23461904D01*
X74452380Y-15731904D02*
X75261904Y-15731904D01*
X75357142Y-15684285D01*
X75404761Y-15636666D01*
X75452380Y-15541428D01*
X75452380Y-15350952D01*
X75404761Y-15255714D01*
X75357142Y-15208095D01*
X75261904Y-15160476D01*
X74452380Y-15160476D01*
X74547619Y-14731904D02*
X74500000Y-14684285D01*
X74452380Y-14589047D01*
X74452380Y-14350952D01*
X74500000Y-14255714D01*
X74547619Y-14208095D01*
X74642857Y-14160476D01*
X74738095Y-14160476D01*
X74880952Y-14208095D01*
X75452380Y-14779523D01*
X75452380Y-14160476D01*
X85752380Y-33761904D02*
X86561904Y-33761904D01*
X86657142Y-33714285D01*
X86704761Y-33666666D01*
X86752380Y-33571428D01*
X86752380Y-33380952D01*
X86704761Y-33285714D01*
X86657142Y-33238095D01*
X86561904Y-33190476D01*
X85752380Y-33190476D01*
X85752380Y-32809523D02*
X85752380Y-32190476D01*
X86133333Y-32523809D01*
X86133333Y-32380952D01*
X86180952Y-32285714D01*
X86228571Y-32238095D01*
X86323809Y-32190476D01*
X86561904Y-32190476D01*
X86657142Y-32238095D01*
X86704761Y-32285714D01*
X86752380Y-32380952D01*
X86752380Y-32666666D01*
X86704761Y-32761904D01*
X86657142Y-32809523D01*
X18392380Y-18189523D02*
X19392380Y-17522857D01*
X18392380Y-17522857D02*
X19392380Y-18189523D01*
X19392380Y-16618095D02*
X19392380Y-17189523D01*
X19392380Y-16903809D02*
X18392380Y-16903809D01*
X18535238Y-16999047D01*
X18630476Y-17094285D01*
X18678095Y-17189523D01*
X48208095Y-5332380D02*
X48208095Y-6141904D01*
X48255714Y-6237142D01*
X48303333Y-6284761D01*
X48398571Y-6332380D01*
X48589047Y-6332380D01*
X48684285Y-6284761D01*
X48731904Y-6237142D01*
X48779523Y-6141904D01*
X48779523Y-5332380D01*
X49731904Y-5332380D02*
X49255714Y-5332380D01*
X49208095Y-5808571D01*
X49255714Y-5760952D01*
X49350952Y-5713333D01*
X49589047Y-5713333D01*
X49684285Y-5760952D01*
X49731904Y-5808571D01*
X49779523Y-5903809D01*
X49779523Y-6141904D01*
X49731904Y-6237142D01*
X49684285Y-6284761D01*
X49589047Y-6332380D01*
X49350952Y-6332380D01*
X49255714Y-6284761D01*
X49208095Y-6237142D01*
X60702380Y-36538095D02*
X59702380Y-36538095D01*
X59702380Y-36300000D01*
X59750000Y-36157142D01*
X59845238Y-36061904D01*
X59940476Y-36014285D01*
X60130952Y-35966666D01*
X60273809Y-35966666D01*
X60464285Y-36014285D01*
X60559523Y-36061904D01*
X60654761Y-36157142D01*
X60702380Y-36300000D01*
X60702380Y-36538095D01*
X60702380Y-35014285D02*
X60702380Y-35585714D01*
X60702380Y-35300000D02*
X59702380Y-35300000D01*
X59845238Y-35395238D01*
X59940476Y-35490476D01*
X59988095Y-35585714D01*
X47017142Y-37672857D02*
X47064761Y-37720476D01*
X47112380Y-37863333D01*
X47112380Y-37958571D01*
X47064761Y-38101428D01*
X46969523Y-38196666D01*
X46874285Y-38244285D01*
X46683809Y-38291904D01*
X46540952Y-38291904D01*
X46350476Y-38244285D01*
X46255238Y-38196666D01*
X46160000Y-38101428D01*
X46112380Y-37958571D01*
X46112380Y-37863333D01*
X46160000Y-37720476D01*
X46207619Y-37672857D01*
X47112380Y-36720476D02*
X47112380Y-37291904D01*
X47112380Y-37006190D02*
X46112380Y-37006190D01*
X46255238Y-37101428D01*
X46350476Y-37196666D01*
X46398095Y-37291904D01*
X46540952Y-36149047D02*
X46493333Y-36244285D01*
X46445714Y-36291904D01*
X46350476Y-36339523D01*
X46302857Y-36339523D01*
X46207619Y-36291904D01*
X46160000Y-36244285D01*
X46112380Y-36149047D01*
X46112380Y-35958571D01*
X46160000Y-35863333D01*
X46207619Y-35815714D01*
X46302857Y-35768095D01*
X46350476Y-35768095D01*
X46445714Y-35815714D01*
X46493333Y-35863333D01*
X46540952Y-35958571D01*
X46540952Y-36149047D01*
X46588571Y-36244285D01*
X46636190Y-36291904D01*
X46731428Y-36339523D01*
X46921904Y-36339523D01*
X47017142Y-36291904D01*
X47064761Y-36244285D01*
X47112380Y-36149047D01*
X47112380Y-35958571D01*
X47064761Y-35863333D01*
X47017142Y-35815714D01*
X46921904Y-35768095D01*
X46731428Y-35768095D01*
X46636190Y-35815714D01*
X46588571Y-35863333D01*
X46540952Y-35958571D01*
X54787142Y-37672857D02*
X54834761Y-37720476D01*
X54882380Y-37863333D01*
X54882380Y-37958571D01*
X54834761Y-38101428D01*
X54739523Y-38196666D01*
X54644285Y-38244285D01*
X54453809Y-38291904D01*
X54310952Y-38291904D01*
X54120476Y-38244285D01*
X54025238Y-38196666D01*
X53930000Y-38101428D01*
X53882380Y-37958571D01*
X53882380Y-37863333D01*
X53930000Y-37720476D01*
X53977619Y-37672857D01*
X54882380Y-36720476D02*
X54882380Y-37291904D01*
X54882380Y-37006190D02*
X53882380Y-37006190D01*
X54025238Y-37101428D01*
X54120476Y-37196666D01*
X54168095Y-37291904D01*
X54882380Y-36244285D02*
X54882380Y-36053809D01*
X54834761Y-35958571D01*
X54787142Y-35910952D01*
X54644285Y-35815714D01*
X54453809Y-35768095D01*
X54072857Y-35768095D01*
X53977619Y-35815714D01*
X53930000Y-35863333D01*
X53882380Y-35958571D01*
X53882380Y-36149047D01*
X53930000Y-36244285D01*
X53977619Y-36291904D01*
X54072857Y-36339523D01*
X54310952Y-36339523D01*
X54406190Y-36291904D01*
X54453809Y-36244285D01*
X54501428Y-36149047D01*
X54501428Y-35958571D01*
X54453809Y-35863333D01*
X54406190Y-35815714D01*
X54310952Y-35768095D01*
X52662380Y-33626666D02*
X52186190Y-33960000D01*
X52662380Y-34198095D02*
X51662380Y-34198095D01*
X51662380Y-33817142D01*
X51710000Y-33721904D01*
X51757619Y-33674285D01*
X51852857Y-33626666D01*
X51995714Y-33626666D01*
X52090952Y-33674285D01*
X52138571Y-33721904D01*
X52186190Y-33817142D01*
X52186190Y-34198095D01*
X52662380Y-33150476D02*
X52662380Y-32960000D01*
X52614761Y-32864761D01*
X52567142Y-32817142D01*
X52424285Y-32721904D01*
X52233809Y-32674285D01*
X51852857Y-32674285D01*
X51757619Y-32721904D01*
X51710000Y-32769523D01*
X51662380Y-32864761D01*
X51662380Y-33055238D01*
X51710000Y-33150476D01*
X51757619Y-33198095D01*
X51852857Y-33245714D01*
X52090952Y-33245714D01*
X52186190Y-33198095D01*
X52233809Y-33150476D01*
X52281428Y-33055238D01*
X52281428Y-32864761D01*
X52233809Y-32769523D01*
X52186190Y-32721904D01*
X52090952Y-32674285D01*
X17688095Y-7422380D02*
X17688095Y-8231904D01*
X17735714Y-8327142D01*
X17783333Y-8374761D01*
X17878571Y-8422380D01*
X18069047Y-8422380D01*
X18164285Y-8374761D01*
X18211904Y-8327142D01*
X18259523Y-8231904D01*
X18259523Y-7422380D01*
X19164285Y-7755714D02*
X19164285Y-8422380D01*
X18926190Y-7374761D02*
X18688095Y-8089047D01*
X19307142Y-8089047D01*
X50083809Y-34116190D02*
X50083809Y-34592380D01*
X49750476Y-33592380D02*
X50083809Y-34116190D01*
X50417142Y-33592380D01*
X51274285Y-34592380D02*
X50702857Y-34592380D01*
X50988571Y-34592380D02*
X50988571Y-33592380D01*
X50893333Y-33735238D01*
X50798095Y-33830476D01*
X50702857Y-33878095D01*
X5766666Y-51166666D02*
X5766666Y-50690476D01*
X6052380Y-51261904D02*
X5052380Y-50928571D01*
X6052380Y-50595238D01*
X5528571Y-50261904D02*
X5528571Y-49928571D01*
X6052380Y-49785714D02*
X6052380Y-50261904D01*
X5052380Y-50261904D01*
X5052380Y-49785714D01*
X5147619Y-49404761D02*
X5100000Y-49357142D01*
X5052380Y-49261904D01*
X5052380Y-49023809D01*
X5100000Y-48928571D01*
X5147619Y-48880952D01*
X5242857Y-48833333D01*
X5338095Y-48833333D01*
X5480952Y-48880952D01*
X6052380Y-49452380D01*
X6052380Y-48833333D01*
X5766666Y-63099999D02*
X5766666Y-62623809D01*
X6052380Y-63195237D02*
X5052380Y-62861904D01*
X6052380Y-62528571D01*
X5528571Y-62195237D02*
X5528571Y-61861904D01*
X6052380Y-61719047D02*
X6052380Y-62195237D01*
X5052380Y-62195237D01*
X5052380Y-61719047D01*
X5052380Y-61385713D02*
X5052380Y-60766666D01*
X5433333Y-61099999D01*
X5433333Y-60957142D01*
X5480952Y-60861904D01*
X5528571Y-60814285D01*
X5623809Y-60766666D01*
X5861904Y-60766666D01*
X5957142Y-60814285D01*
X6004761Y-60861904D01*
X6052380Y-60957142D01*
X6052380Y-61242856D01*
X6004761Y-61338094D01*
X5957142Y-61385713D01*
X94466666Y-75033332D02*
X94466666Y-74557142D01*
X94752380Y-75128570D02*
X93752380Y-74795237D01*
X94752380Y-74461904D01*
X94228571Y-74128570D02*
X94228571Y-73795237D01*
X94752380Y-73652380D02*
X94752380Y-74128570D01*
X93752380Y-74128570D01*
X93752380Y-73652380D01*
X94085714Y-72795237D02*
X94752380Y-72795237D01*
X93704761Y-73033332D02*
X94419047Y-73271427D01*
X94419047Y-72652380D01*
X5766666Y-86966666D02*
X5766666Y-86490476D01*
X6052380Y-87061904D02*
X5052380Y-86728571D01*
X6052380Y-86395238D01*
X5528571Y-86061904D02*
X5528571Y-85728571D01*
X6052380Y-85585714D02*
X6052380Y-86061904D01*
X5052380Y-86061904D01*
X5052380Y-85585714D01*
X5052380Y-84680952D02*
X5052380Y-85157142D01*
X5528571Y-85204761D01*
X5480952Y-85157142D01*
X5433333Y-85061904D01*
X5433333Y-84823809D01*
X5480952Y-84728571D01*
X5528571Y-84680952D01*
X5623809Y-84633333D01*
X5861904Y-84633333D01*
X5957142Y-84680952D01*
X6004761Y-84728571D01*
X6052380Y-84823809D01*
X6052380Y-85061904D01*
X6004761Y-85157142D01*
X5957142Y-85204761D01*
X94466666Y-51166666D02*
X94466666Y-50690476D01*
X94752380Y-51261904D02*
X93752380Y-50928571D01*
X94752380Y-50595238D01*
X94228571Y-50261904D02*
X94228571Y-49928571D01*
X94752380Y-49785714D02*
X94752380Y-50261904D01*
X93752380Y-50261904D01*
X93752380Y-49785714D01*
X93752380Y-48928571D02*
X93752380Y-49119047D01*
X93800000Y-49214285D01*
X93847619Y-49261904D01*
X93990476Y-49357142D01*
X94180952Y-49404761D01*
X94561904Y-49404761D01*
X94657142Y-49357142D01*
X94704761Y-49309523D01*
X94752380Y-49214285D01*
X94752380Y-49023809D01*
X94704761Y-48928571D01*
X94657142Y-48880952D01*
X94561904Y-48833333D01*
X94323809Y-48833333D01*
X94228571Y-48880952D01*
X94180952Y-48928571D01*
X94133333Y-49023809D01*
X94133333Y-49214285D01*
X94180952Y-49309523D01*
X94228571Y-49357142D01*
X94323809Y-49404761D01*
X94466666Y-63099999D02*
X94466666Y-62623809D01*
X94752380Y-63195237D02*
X93752380Y-62861904D01*
X94752380Y-62528571D01*
X94228571Y-62195237D02*
X94228571Y-61861904D01*
X94752380Y-61719047D02*
X94752380Y-62195237D01*
X93752380Y-62195237D01*
X93752380Y-61719047D01*
X93752380Y-61385713D02*
X93752380Y-60719047D01*
X94752380Y-61147618D01*
X5766666Y-75033332D02*
X5766666Y-74557142D01*
X6052380Y-75128570D02*
X5052380Y-74795237D01*
X6052380Y-74461904D01*
X5528571Y-74128570D02*
X5528571Y-73795237D01*
X6052380Y-73652380D02*
X6052380Y-74128570D01*
X5052380Y-74128570D01*
X5052380Y-73652380D01*
X5480952Y-73080951D02*
X5433333Y-73176189D01*
X5385714Y-73223808D01*
X5290476Y-73271427D01*
X5242857Y-73271427D01*
X5147619Y-73223808D01*
X5100000Y-73176189D01*
X5052380Y-73080951D01*
X5052380Y-72890475D01*
X5100000Y-72795237D01*
X5147619Y-72747618D01*
X5242857Y-72699999D01*
X5290476Y-72699999D01*
X5385714Y-72747618D01*
X5433333Y-72795237D01*
X5480952Y-72890475D01*
X5480952Y-73080951D01*
X5528571Y-73176189D01*
X5576190Y-73223808D01*
X5671428Y-73271427D01*
X5861904Y-73271427D01*
X5957142Y-73223808D01*
X6004761Y-73176189D01*
X6052380Y-73080951D01*
X6052380Y-72890475D01*
X6004761Y-72795237D01*
X5957142Y-72747618D01*
X5861904Y-72699999D01*
X5671428Y-72699999D01*
X5576190Y-72747618D01*
X5528571Y-72795237D01*
X5480952Y-72890475D01*
X94466666Y-86966666D02*
X94466666Y-86490476D01*
X94752380Y-87061904D02*
X93752380Y-86728571D01*
X94752380Y-86395238D01*
X94228571Y-86061904D02*
X94228571Y-85728571D01*
X94752380Y-85585714D02*
X94752380Y-86061904D01*
X93752380Y-86061904D01*
X93752380Y-85585714D01*
X94752380Y-85109523D02*
X94752380Y-84919047D01*
X94704761Y-84823809D01*
X94657142Y-84776190D01*
X94514285Y-84680952D01*
X94323809Y-84633333D01*
X93942857Y-84633333D01*
X93847619Y-84680952D01*
X93800000Y-84728571D01*
X93752380Y-84823809D01*
X93752380Y-85014285D01*
X93800000Y-85109523D01*
X93847619Y-85157142D01*
X93942857Y-85204761D01*
X94180952Y-85204761D01*
X94276190Y-85157142D01*
X94323809Y-85109523D01*
X94371428Y-85014285D01*
X94371428Y-84823809D01*
X94323809Y-84728571D01*
X94276190Y-84680952D01*
X94180952Y-84633333D01*
M02*
