G04 #@! TF.GenerationSoftware,KiCad,Pcbnew,5.1.5+dfsg1-2build2*
G04 #@! TF.CreationDate,2021-02-27T17:24:44-05:00*
G04 #@! TF.ProjectId,gpsdo,67707364-6f2e-46b6-9963-61645f706362,rev?*
G04 #@! TF.SameCoordinates,Original*
G04 #@! TF.FileFunction,Soldermask,Bot*
G04 #@! TF.FilePolarity,Negative*
%FSLAX46Y46*%
G04 Gerber Fmt 4.6, Leading zero omitted, Abs format (unit mm)*
G04 Created by KiCad (PCBNEW 5.1.5+dfsg1-2build2) date 2021-02-27 17:24:44*
%MOMM*%
%LPD*%
G04 APERTURE LIST*
%ADD10C,0.100000*%
G04 APERTURE END LIST*
D10*
G36*
X97234239Y-93311467D02*
G01*
X97548282Y-93373934D01*
X98139926Y-93619001D01*
X98672392Y-93974784D01*
X99125216Y-94427608D01*
X99480999Y-94960074D01*
X99726066Y-95551718D01*
X99851000Y-96179804D01*
X99851000Y-96820196D01*
X99726066Y-97448282D01*
X99480999Y-98039926D01*
X99125216Y-98572392D01*
X98672392Y-99025216D01*
X98139926Y-99380999D01*
X97548282Y-99626066D01*
X97234239Y-99688533D01*
X96920197Y-99751000D01*
X96279803Y-99751000D01*
X95965761Y-99688533D01*
X95651718Y-99626066D01*
X95060074Y-99380999D01*
X94527608Y-99025216D01*
X94074784Y-98572392D01*
X93719001Y-98039926D01*
X93473934Y-97448282D01*
X93349000Y-96820196D01*
X93349000Y-96179804D01*
X93473934Y-95551718D01*
X93719001Y-94960074D01*
X94074784Y-94427608D01*
X94527608Y-93974784D01*
X95060074Y-93619001D01*
X95651718Y-93373934D01*
X95965761Y-93311467D01*
X96279803Y-93249000D01*
X96920197Y-93249000D01*
X97234239Y-93311467D01*
G37*
G36*
X4034239Y-92911467D02*
G01*
X4348282Y-92973934D01*
X4939926Y-93219001D01*
X5472392Y-93574784D01*
X5925216Y-94027608D01*
X6280999Y-94560074D01*
X6526066Y-95151718D01*
X6651000Y-95779804D01*
X6651000Y-96420196D01*
X6526066Y-97048282D01*
X6280999Y-97639926D01*
X5925216Y-98172392D01*
X5472392Y-98625216D01*
X4939926Y-98980999D01*
X4348282Y-99226066D01*
X4034239Y-99288533D01*
X3720197Y-99351000D01*
X3079803Y-99351000D01*
X2765761Y-99288533D01*
X2451718Y-99226066D01*
X1860074Y-98980999D01*
X1327608Y-98625216D01*
X874784Y-98172392D01*
X519001Y-97639926D01*
X273934Y-97048282D01*
X149000Y-96420196D01*
X149000Y-95779804D01*
X273934Y-95151718D01*
X519001Y-94560074D01*
X874784Y-94027608D01*
X1327608Y-93574784D01*
X1860074Y-93219001D01*
X2451718Y-92973934D01*
X2765761Y-92911467D01*
X3079803Y-92849000D01*
X3720197Y-92849000D01*
X4034239Y-92911467D01*
G37*
G36*
X4251000Y-89351000D02*
G01*
X-51000Y-89351000D01*
X-51000Y-87899000D01*
X4251000Y-87899000D01*
X4251000Y-89351000D01*
G37*
G36*
X99951000Y-89351000D02*
G01*
X95649000Y-89351000D01*
X95649000Y-87899000D01*
X99951000Y-87899000D01*
X99951000Y-89351000D01*
G37*
G36*
X4251000Y-83701000D02*
G01*
X-51000Y-83701000D01*
X-51000Y-82249000D01*
X4251000Y-82249000D01*
X4251000Y-83701000D01*
G37*
G36*
X99951000Y-83701000D02*
G01*
X95649000Y-83701000D01*
X95649000Y-82249000D01*
X99951000Y-82249000D01*
X99951000Y-83701000D01*
G37*
G36*
X4251000Y-77417666D02*
G01*
X-51000Y-77417666D01*
X-51000Y-75965666D01*
X4251000Y-75965666D01*
X4251000Y-77417666D01*
G37*
G36*
X99951000Y-77417666D02*
G01*
X95649000Y-77417666D01*
X95649000Y-75965666D01*
X99951000Y-75965666D01*
X99951000Y-77417666D01*
G37*
G36*
X99951000Y-71767666D02*
G01*
X95649000Y-71767666D01*
X95649000Y-70315666D01*
X99951000Y-70315666D01*
X99951000Y-71767666D01*
G37*
G36*
X4251000Y-71767666D02*
G01*
X-51000Y-71767666D01*
X-51000Y-70315666D01*
X4251000Y-70315666D01*
X4251000Y-71767666D01*
G37*
G36*
X99951000Y-65484333D02*
G01*
X95649000Y-65484333D01*
X95649000Y-64032333D01*
X99951000Y-64032333D01*
X99951000Y-65484333D01*
G37*
G36*
X4251000Y-65484333D02*
G01*
X-51000Y-65484333D01*
X-51000Y-64032333D01*
X4251000Y-64032333D01*
X4251000Y-65484333D01*
G37*
G36*
X4251000Y-59834333D02*
G01*
X-51000Y-59834333D01*
X-51000Y-58382333D01*
X4251000Y-58382333D01*
X4251000Y-59834333D01*
G37*
G36*
X99951000Y-59834333D02*
G01*
X95649000Y-59834333D01*
X95649000Y-58382333D01*
X99951000Y-58382333D01*
X99951000Y-59834333D01*
G37*
G36*
X4251000Y-53551000D02*
G01*
X-51000Y-53551000D01*
X-51000Y-52099000D01*
X4251000Y-52099000D01*
X4251000Y-53551000D01*
G37*
G36*
X99951000Y-53551000D02*
G01*
X95649000Y-53551000D01*
X95649000Y-52099000D01*
X99951000Y-52099000D01*
X99951000Y-53551000D01*
G37*
G36*
X99951000Y-47901000D02*
G01*
X95649000Y-47901000D01*
X95649000Y-46449000D01*
X99951000Y-46449000D01*
X99951000Y-47901000D01*
G37*
G36*
X4251000Y-47901000D02*
G01*
X-51000Y-47901000D01*
X-51000Y-46449000D01*
X4251000Y-46449000D01*
X4251000Y-47901000D01*
G37*
G36*
X41406564Y-38889389D02*
G01*
X41597833Y-38968615D01*
X41597835Y-38968616D01*
X41769973Y-39083635D01*
X41916365Y-39230027D01*
X42031385Y-39402167D01*
X42110611Y-39593436D01*
X42151000Y-39796484D01*
X42151000Y-40003516D01*
X42110611Y-40206564D01*
X42031385Y-40397833D01*
X42031384Y-40397835D01*
X41916365Y-40569973D01*
X41769973Y-40716365D01*
X41597835Y-40831384D01*
X41597834Y-40831385D01*
X41597833Y-40831385D01*
X41406564Y-40910611D01*
X41203516Y-40951000D01*
X40996484Y-40951000D01*
X40793436Y-40910611D01*
X40602167Y-40831385D01*
X40602166Y-40831385D01*
X40602165Y-40831384D01*
X40430027Y-40716365D01*
X40283635Y-40569973D01*
X40168616Y-40397835D01*
X40168615Y-40397833D01*
X40089389Y-40206564D01*
X40049000Y-40003516D01*
X40049000Y-39796484D01*
X40089389Y-39593436D01*
X40168615Y-39402167D01*
X40283635Y-39230027D01*
X40430027Y-39083635D01*
X40602165Y-38968616D01*
X40602167Y-38968615D01*
X40793436Y-38889389D01*
X40996484Y-38849000D01*
X41203516Y-38849000D01*
X41406564Y-38889389D01*
G37*
G36*
X34906564Y-38889389D02*
G01*
X35097833Y-38968615D01*
X35097835Y-38968616D01*
X35269973Y-39083635D01*
X35416365Y-39230027D01*
X35531385Y-39402167D01*
X35610611Y-39593436D01*
X35651000Y-39796484D01*
X35651000Y-40003516D01*
X35610611Y-40206564D01*
X35531385Y-40397833D01*
X35531384Y-40397835D01*
X35416365Y-40569973D01*
X35269973Y-40716365D01*
X35097835Y-40831384D01*
X35097834Y-40831385D01*
X35097833Y-40831385D01*
X34906564Y-40910611D01*
X34703516Y-40951000D01*
X34496484Y-40951000D01*
X34293436Y-40910611D01*
X34102167Y-40831385D01*
X34102166Y-40831385D01*
X34102165Y-40831384D01*
X33930027Y-40716365D01*
X33783635Y-40569973D01*
X33668616Y-40397835D01*
X33668615Y-40397833D01*
X33589389Y-40206564D01*
X33549000Y-40003516D01*
X33549000Y-39796484D01*
X33589389Y-39593436D01*
X33668615Y-39402167D01*
X33783635Y-39230027D01*
X33930027Y-39083635D01*
X34102165Y-38968616D01*
X34102167Y-38968615D01*
X34293436Y-38889389D01*
X34496484Y-38849000D01*
X34703516Y-38849000D01*
X34906564Y-38889389D01*
G37*
G36*
X41406564Y-34389389D02*
G01*
X41597833Y-34468615D01*
X41597835Y-34468616D01*
X41769973Y-34583635D01*
X41916365Y-34730027D01*
X42031385Y-34902167D01*
X42110611Y-35093436D01*
X42151000Y-35296484D01*
X42151000Y-35503516D01*
X42110611Y-35706564D01*
X42031385Y-35897833D01*
X42031384Y-35897835D01*
X41916365Y-36069973D01*
X41769973Y-36216365D01*
X41597835Y-36331384D01*
X41597834Y-36331385D01*
X41597833Y-36331385D01*
X41406564Y-36410611D01*
X41203516Y-36451000D01*
X40996484Y-36451000D01*
X40793436Y-36410611D01*
X40602167Y-36331385D01*
X40602166Y-36331385D01*
X40602165Y-36331384D01*
X40430027Y-36216365D01*
X40283635Y-36069973D01*
X40168616Y-35897835D01*
X40168615Y-35897833D01*
X40089389Y-35706564D01*
X40049000Y-35503516D01*
X40049000Y-35296484D01*
X40089389Y-35093436D01*
X40168615Y-34902167D01*
X40283635Y-34730027D01*
X40430027Y-34583635D01*
X40602165Y-34468616D01*
X40602167Y-34468615D01*
X40793436Y-34389389D01*
X40996484Y-34349000D01*
X41203516Y-34349000D01*
X41406564Y-34389389D01*
G37*
G36*
X34906564Y-34389389D02*
G01*
X35097833Y-34468615D01*
X35097835Y-34468616D01*
X35269973Y-34583635D01*
X35416365Y-34730027D01*
X35531385Y-34902167D01*
X35610611Y-35093436D01*
X35651000Y-35296484D01*
X35651000Y-35503516D01*
X35610611Y-35706564D01*
X35531385Y-35897833D01*
X35531384Y-35897835D01*
X35416365Y-36069973D01*
X35269973Y-36216365D01*
X35097835Y-36331384D01*
X35097834Y-36331385D01*
X35097833Y-36331385D01*
X34906564Y-36410611D01*
X34703516Y-36451000D01*
X34496484Y-36451000D01*
X34293436Y-36410611D01*
X34102167Y-36331385D01*
X34102166Y-36331385D01*
X34102165Y-36331384D01*
X33930027Y-36216365D01*
X33783635Y-36069973D01*
X33668616Y-35897835D01*
X33668615Y-35897833D01*
X33589389Y-35706564D01*
X33549000Y-35503516D01*
X33549000Y-35296484D01*
X33589389Y-35093436D01*
X33668615Y-34902167D01*
X33783635Y-34730027D01*
X33930027Y-34583635D01*
X34102165Y-34468616D01*
X34102167Y-34468615D01*
X34293436Y-34389389D01*
X34496484Y-34349000D01*
X34703516Y-34349000D01*
X34906564Y-34389389D01*
G37*
G36*
X73446564Y-28989389D02*
G01*
X73637833Y-29068615D01*
X73637835Y-29068616D01*
X73809973Y-29183635D01*
X73956365Y-29330027D01*
X74071385Y-29502167D01*
X74150611Y-29693436D01*
X74191000Y-29896484D01*
X74191000Y-30103516D01*
X74150611Y-30306564D01*
X74071385Y-30497833D01*
X74071384Y-30497835D01*
X73956365Y-30669973D01*
X73809973Y-30816365D01*
X73637835Y-30931384D01*
X73637834Y-30931385D01*
X73637833Y-30931385D01*
X73446564Y-31010611D01*
X73243516Y-31051000D01*
X73036484Y-31051000D01*
X72833436Y-31010611D01*
X72642167Y-30931385D01*
X72642166Y-30931385D01*
X72642165Y-30931384D01*
X72470027Y-30816365D01*
X72323635Y-30669973D01*
X72208616Y-30497835D01*
X72208615Y-30497833D01*
X72129389Y-30306564D01*
X72089000Y-30103516D01*
X72089000Y-29896484D01*
X72129389Y-29693436D01*
X72208615Y-29502167D01*
X72323635Y-29330027D01*
X72470027Y-29183635D01*
X72642165Y-29068616D01*
X72642167Y-29068615D01*
X72833436Y-28989389D01*
X73036484Y-28949000D01*
X73243516Y-28949000D01*
X73446564Y-28989389D01*
G37*
G36*
X70906564Y-28989389D02*
G01*
X71097833Y-29068615D01*
X71097835Y-29068616D01*
X71269973Y-29183635D01*
X71416365Y-29330027D01*
X71531385Y-29502167D01*
X71610611Y-29693436D01*
X71651000Y-29896484D01*
X71651000Y-30103516D01*
X71610611Y-30306564D01*
X71531385Y-30497833D01*
X71531384Y-30497835D01*
X71416365Y-30669973D01*
X71269973Y-30816365D01*
X71097835Y-30931384D01*
X71097834Y-30931385D01*
X71097833Y-30931385D01*
X70906564Y-31010611D01*
X70703516Y-31051000D01*
X70496484Y-31051000D01*
X70293436Y-31010611D01*
X70102167Y-30931385D01*
X70102166Y-30931385D01*
X70102165Y-30931384D01*
X69930027Y-30816365D01*
X69783635Y-30669973D01*
X69668616Y-30497835D01*
X69668615Y-30497833D01*
X69589389Y-30306564D01*
X69549000Y-30103516D01*
X69549000Y-29896484D01*
X69589389Y-29693436D01*
X69668615Y-29502167D01*
X69783635Y-29330027D01*
X69930027Y-29183635D01*
X70102165Y-29068616D01*
X70102167Y-29068615D01*
X70293436Y-28989389D01*
X70496484Y-28949000D01*
X70703516Y-28949000D01*
X70906564Y-28989389D01*
G37*
G36*
X69111000Y-31051000D02*
G01*
X67009000Y-31051000D01*
X67009000Y-28949000D01*
X69111000Y-28949000D01*
X69111000Y-31051000D01*
G37*
G36*
X31051000Y-25851000D02*
G01*
X29349000Y-25851000D01*
X29349000Y-24149000D01*
X31051000Y-24149000D01*
X31051000Y-25851000D01*
G37*
G36*
X22828228Y-24181703D02*
G01*
X22983100Y-24245853D01*
X23122481Y-24338985D01*
X23241015Y-24457519D01*
X23334147Y-24596900D01*
X23398297Y-24751772D01*
X23431000Y-24916184D01*
X23431000Y-25083816D01*
X23398297Y-25248228D01*
X23334147Y-25403100D01*
X23241015Y-25542481D01*
X23122481Y-25661015D01*
X22983100Y-25754147D01*
X22828228Y-25818297D01*
X22663816Y-25851000D01*
X22496184Y-25851000D01*
X22331772Y-25818297D01*
X22176900Y-25754147D01*
X22037519Y-25661015D01*
X21918985Y-25542481D01*
X21825853Y-25403100D01*
X21761703Y-25248228D01*
X21729000Y-25083816D01*
X21729000Y-24916184D01*
X21761703Y-24751772D01*
X21825853Y-24596900D01*
X21918985Y-24457519D01*
X22037519Y-24338985D01*
X22176900Y-24245853D01*
X22331772Y-24181703D01*
X22496184Y-24149000D01*
X22663816Y-24149000D01*
X22828228Y-24181703D01*
G37*
G36*
X70001000Y-16001000D02*
G01*
X66399000Y-16001000D01*
X66399000Y-12399000D01*
X70001000Y-12399000D01*
X70001000Y-16001000D01*
G37*
G36*
X64626366Y-9415695D02*
G01*
X64783460Y-9463349D01*
X64928231Y-9540731D01*
X65055128Y-9644872D01*
X65159269Y-9771769D01*
X65236651Y-9916540D01*
X65284305Y-10073634D01*
X65301000Y-10243140D01*
X65301000Y-12156860D01*
X65284305Y-12326366D01*
X65236651Y-12483460D01*
X65159269Y-12628231D01*
X65055128Y-12755128D01*
X64928231Y-12859269D01*
X64783460Y-12936651D01*
X64626366Y-12984305D01*
X64456860Y-13001000D01*
X62543140Y-13001000D01*
X62373634Y-12984305D01*
X62216540Y-12936651D01*
X62071769Y-12859269D01*
X61944872Y-12755128D01*
X61840731Y-12628231D01*
X61763349Y-12483460D01*
X61715695Y-12326366D01*
X61699000Y-12156860D01*
X61699000Y-10243140D01*
X61715695Y-10073634D01*
X61763349Y-9916540D01*
X61840731Y-9771769D01*
X61944872Y-9644872D01*
X62071769Y-9540731D01*
X62216540Y-9463349D01*
X62373634Y-9415695D01*
X62543140Y-9399000D01*
X64456860Y-9399000D01*
X64626366Y-9415695D01*
G37*
G36*
X37890721Y-4490174D02*
G01*
X37990995Y-4531709D01*
X38015798Y-4548282D01*
X38081242Y-4592010D01*
X38157990Y-4668758D01*
X38157991Y-4668760D01*
X38218291Y-4759005D01*
X38249516Y-4834389D01*
X38261067Y-4856000D01*
X38276612Y-4874941D01*
X38295554Y-4890487D01*
X38317165Y-4902038D01*
X38340614Y-4909151D01*
X38365000Y-4911553D01*
X38389386Y-4909151D01*
X38412835Y-4902038D01*
X38434446Y-4890487D01*
X38453387Y-4874942D01*
X38468933Y-4856000D01*
X38480484Y-4834389D01*
X38511709Y-4759005D01*
X38572009Y-4668760D01*
X38572010Y-4668758D01*
X38648758Y-4592010D01*
X38714202Y-4548282D01*
X38739005Y-4531709D01*
X38839279Y-4490174D01*
X38945730Y-4469000D01*
X39054270Y-4469000D01*
X39160721Y-4490174D01*
X39260995Y-4531709D01*
X39285798Y-4548282D01*
X39351242Y-4592010D01*
X39427990Y-4668758D01*
X39427991Y-4668760D01*
X39488291Y-4759005D01*
X39529826Y-4859279D01*
X39551000Y-4965730D01*
X39551000Y-5074270D01*
X39529826Y-5180721D01*
X39488291Y-5280995D01*
X39488290Y-5280996D01*
X39427990Y-5371242D01*
X39351242Y-5447990D01*
X39305812Y-5478345D01*
X39260995Y-5508291D01*
X39185611Y-5539516D01*
X39164000Y-5551067D01*
X39145059Y-5566612D01*
X39129513Y-5585554D01*
X39117962Y-5607165D01*
X39110849Y-5630614D01*
X39108447Y-5655000D01*
X39110849Y-5679386D01*
X39117962Y-5702835D01*
X39129513Y-5724446D01*
X39145058Y-5743387D01*
X39164000Y-5758933D01*
X39185611Y-5770484D01*
X39260995Y-5801709D01*
X39260996Y-5801710D01*
X39351242Y-5862010D01*
X39427990Y-5938758D01*
X39427991Y-5938760D01*
X39488291Y-6029005D01*
X39529826Y-6129279D01*
X39551000Y-6235730D01*
X39551000Y-6344270D01*
X39529826Y-6450721D01*
X39488291Y-6550995D01*
X39488290Y-6550996D01*
X39427990Y-6641242D01*
X39351242Y-6717990D01*
X39339155Y-6726066D01*
X39260995Y-6778291D01*
X39185611Y-6809516D01*
X39164000Y-6821067D01*
X39145059Y-6836612D01*
X39129513Y-6855554D01*
X39117962Y-6877165D01*
X39110849Y-6900614D01*
X39108447Y-6925000D01*
X39110849Y-6949386D01*
X39117962Y-6972835D01*
X39129513Y-6994446D01*
X39145058Y-7013387D01*
X39164000Y-7028933D01*
X39185611Y-7040484D01*
X39260995Y-7071709D01*
X39260996Y-7071710D01*
X39351242Y-7132010D01*
X39427990Y-7208758D01*
X39427991Y-7208760D01*
X39488291Y-7299005D01*
X39529826Y-7399279D01*
X39551000Y-7505730D01*
X39551000Y-7614270D01*
X39529826Y-7720721D01*
X39488291Y-7820995D01*
X39488290Y-7820996D01*
X39427990Y-7911242D01*
X39351242Y-7987990D01*
X39305812Y-8018345D01*
X39260995Y-8048291D01*
X39185611Y-8079516D01*
X39164000Y-8091067D01*
X39145059Y-8106612D01*
X39129513Y-8125554D01*
X39117962Y-8147165D01*
X39110849Y-8170614D01*
X39108447Y-8195000D01*
X39110849Y-8219386D01*
X39117962Y-8242835D01*
X39129513Y-8264446D01*
X39145058Y-8283387D01*
X39164000Y-8298933D01*
X39185611Y-8310484D01*
X39260995Y-8341709D01*
X39260996Y-8341710D01*
X39351242Y-8402010D01*
X39427990Y-8478758D01*
X39427991Y-8478760D01*
X39488291Y-8569005D01*
X39529826Y-8669279D01*
X39551000Y-8775730D01*
X39551000Y-8884270D01*
X39529826Y-8990721D01*
X39488291Y-9090995D01*
X39488290Y-9090996D01*
X39427990Y-9181242D01*
X39351242Y-9257990D01*
X39329869Y-9272271D01*
X39258336Y-9320068D01*
X39239394Y-9335614D01*
X39223849Y-9354556D01*
X39212298Y-9376167D01*
X39205185Y-9399615D01*
X39202783Y-9424002D01*
X39205185Y-9448388D01*
X39212298Y-9471837D01*
X39223849Y-9493447D01*
X39239395Y-9512389D01*
X39258337Y-9527934D01*
X39279948Y-9539485D01*
X39303396Y-9546598D01*
X39327782Y-9549000D01*
X39551000Y-9549000D01*
X39551000Y-10651000D01*
X38449000Y-10651000D01*
X38449000Y-10427782D01*
X38446598Y-10403396D01*
X38439485Y-10379947D01*
X38427934Y-10358336D01*
X38412389Y-10339394D01*
X38393447Y-10323849D01*
X38371836Y-10312298D01*
X38348387Y-10305185D01*
X38324001Y-10302783D01*
X38299615Y-10305185D01*
X38276166Y-10312298D01*
X38254555Y-10323849D01*
X38235613Y-10339394D01*
X38220068Y-10358336D01*
X38178988Y-10419816D01*
X38157990Y-10451242D01*
X38081242Y-10527990D01*
X38035812Y-10558345D01*
X37990995Y-10588291D01*
X37890721Y-10629826D01*
X37784270Y-10651000D01*
X37675730Y-10651000D01*
X37569279Y-10629826D01*
X37469005Y-10588291D01*
X37424188Y-10558345D01*
X37378758Y-10527990D01*
X37302010Y-10451242D01*
X37270041Y-10403396D01*
X37241709Y-10360995D01*
X37200174Y-10260721D01*
X37179000Y-10154270D01*
X37179000Y-10045730D01*
X37200174Y-9939279D01*
X37241709Y-9839005D01*
X37302009Y-9748760D01*
X37302010Y-9748758D01*
X37378758Y-9672010D01*
X37441128Y-9630336D01*
X37469005Y-9611709D01*
X37544389Y-9580484D01*
X37566000Y-9568933D01*
X37584941Y-9553388D01*
X37600487Y-9534446D01*
X37612038Y-9512835D01*
X37619151Y-9489386D01*
X37621553Y-9465000D01*
X37838447Y-9465000D01*
X37840849Y-9489386D01*
X37847962Y-9512835D01*
X37859513Y-9534446D01*
X37875058Y-9553387D01*
X37894000Y-9568933D01*
X37915611Y-9580484D01*
X37990995Y-9611709D01*
X38018872Y-9630336D01*
X38081242Y-9672010D01*
X38157990Y-9748758D01*
X38157991Y-9748760D01*
X38220068Y-9841664D01*
X38235614Y-9860606D01*
X38254556Y-9876151D01*
X38276167Y-9887702D01*
X38299615Y-9894815D01*
X38324002Y-9897217D01*
X38348388Y-9894815D01*
X38371837Y-9887702D01*
X38393447Y-9876151D01*
X38412389Y-9860605D01*
X38427934Y-9841663D01*
X38439485Y-9820052D01*
X38446598Y-9796604D01*
X38449000Y-9772218D01*
X38449000Y-9549000D01*
X38672218Y-9549000D01*
X38696604Y-9546598D01*
X38720053Y-9539485D01*
X38741664Y-9527934D01*
X38760606Y-9512389D01*
X38776151Y-9493447D01*
X38787702Y-9471836D01*
X38794815Y-9448387D01*
X38797217Y-9424001D01*
X38794815Y-9399615D01*
X38787702Y-9376166D01*
X38776151Y-9354555D01*
X38760606Y-9335613D01*
X38741664Y-9320068D01*
X38670131Y-9272271D01*
X38648758Y-9257990D01*
X38572010Y-9181242D01*
X38511710Y-9090996D01*
X38511709Y-9090995D01*
X38480484Y-9015611D01*
X38468933Y-8994000D01*
X38453388Y-8975059D01*
X38434446Y-8959513D01*
X38412835Y-8947962D01*
X38389386Y-8940849D01*
X38365000Y-8938447D01*
X38340614Y-8940849D01*
X38317165Y-8947962D01*
X38295554Y-8959513D01*
X38276613Y-8975058D01*
X38261067Y-8994000D01*
X38249516Y-9015611D01*
X38218291Y-9090995D01*
X38218290Y-9090996D01*
X38157990Y-9181242D01*
X38081242Y-9257990D01*
X38059869Y-9272271D01*
X37990995Y-9318291D01*
X37915611Y-9349516D01*
X37894000Y-9361067D01*
X37875059Y-9376612D01*
X37859513Y-9395554D01*
X37847962Y-9417165D01*
X37840849Y-9440614D01*
X37838447Y-9465000D01*
X37621553Y-9465000D01*
X37619151Y-9440614D01*
X37612038Y-9417165D01*
X37600487Y-9395554D01*
X37584942Y-9376613D01*
X37566000Y-9361067D01*
X37544389Y-9349516D01*
X37469005Y-9318291D01*
X37400131Y-9272271D01*
X37378758Y-9257990D01*
X37302010Y-9181242D01*
X37241710Y-9090996D01*
X37241709Y-9090995D01*
X37200174Y-8990721D01*
X37179000Y-8884270D01*
X37179000Y-8775730D01*
X37200174Y-8669279D01*
X37241709Y-8569005D01*
X37302009Y-8478760D01*
X37302010Y-8478758D01*
X37378758Y-8402010D01*
X37469004Y-8341710D01*
X37469005Y-8341709D01*
X37544389Y-8310484D01*
X37566000Y-8298933D01*
X37584941Y-8283388D01*
X37600487Y-8264446D01*
X37612038Y-8242835D01*
X37619151Y-8219386D01*
X37621553Y-8195000D01*
X37838447Y-8195000D01*
X37840849Y-8219386D01*
X37847962Y-8242835D01*
X37859513Y-8264446D01*
X37875058Y-8283387D01*
X37894000Y-8298933D01*
X37915611Y-8310484D01*
X37990995Y-8341709D01*
X37990996Y-8341710D01*
X38081242Y-8402010D01*
X38157990Y-8478758D01*
X38157991Y-8478760D01*
X38218291Y-8569005D01*
X38249516Y-8644389D01*
X38261067Y-8666000D01*
X38276612Y-8684941D01*
X38295554Y-8700487D01*
X38317165Y-8712038D01*
X38340614Y-8719151D01*
X38365000Y-8721553D01*
X38389386Y-8719151D01*
X38412835Y-8712038D01*
X38434446Y-8700487D01*
X38453387Y-8684942D01*
X38468933Y-8666000D01*
X38480484Y-8644389D01*
X38511709Y-8569005D01*
X38572009Y-8478760D01*
X38572010Y-8478758D01*
X38648758Y-8402010D01*
X38739004Y-8341710D01*
X38739005Y-8341709D01*
X38814389Y-8310484D01*
X38836000Y-8298933D01*
X38854941Y-8283388D01*
X38870487Y-8264446D01*
X38882038Y-8242835D01*
X38889151Y-8219386D01*
X38891553Y-8195000D01*
X38889151Y-8170614D01*
X38882038Y-8147165D01*
X38870487Y-8125554D01*
X38854942Y-8106613D01*
X38836000Y-8091067D01*
X38814389Y-8079516D01*
X38739005Y-8048291D01*
X38694188Y-8018345D01*
X38648758Y-7987990D01*
X38572010Y-7911242D01*
X38511710Y-7820996D01*
X38511709Y-7820995D01*
X38480484Y-7745611D01*
X38468933Y-7724000D01*
X38453388Y-7705059D01*
X38434446Y-7689513D01*
X38412835Y-7677962D01*
X38389386Y-7670849D01*
X38365000Y-7668447D01*
X38340614Y-7670849D01*
X38317165Y-7677962D01*
X38295554Y-7689513D01*
X38276613Y-7705058D01*
X38261067Y-7724000D01*
X38249516Y-7745611D01*
X38218291Y-7820995D01*
X38218290Y-7820996D01*
X38157990Y-7911242D01*
X38081242Y-7987990D01*
X38035812Y-8018345D01*
X37990995Y-8048291D01*
X37915611Y-8079516D01*
X37894000Y-8091067D01*
X37875059Y-8106612D01*
X37859513Y-8125554D01*
X37847962Y-8147165D01*
X37840849Y-8170614D01*
X37838447Y-8195000D01*
X37621553Y-8195000D01*
X37619151Y-8170614D01*
X37612038Y-8147165D01*
X37600487Y-8125554D01*
X37584942Y-8106613D01*
X37566000Y-8091067D01*
X37544389Y-8079516D01*
X37469005Y-8048291D01*
X37424188Y-8018345D01*
X37378758Y-7987990D01*
X37302010Y-7911242D01*
X37241710Y-7820996D01*
X37241709Y-7820995D01*
X37200174Y-7720721D01*
X37179000Y-7614270D01*
X37179000Y-7505730D01*
X37200174Y-7399279D01*
X37241709Y-7299005D01*
X37302009Y-7208760D01*
X37302010Y-7208758D01*
X37378758Y-7132010D01*
X37469004Y-7071710D01*
X37469005Y-7071709D01*
X37544389Y-7040484D01*
X37566000Y-7028933D01*
X37584941Y-7013388D01*
X37600487Y-6994446D01*
X37612038Y-6972835D01*
X37619151Y-6949386D01*
X37621553Y-6925000D01*
X37838447Y-6925000D01*
X37840849Y-6949386D01*
X37847962Y-6972835D01*
X37859513Y-6994446D01*
X37875058Y-7013387D01*
X37894000Y-7028933D01*
X37915611Y-7040484D01*
X37990995Y-7071709D01*
X37990996Y-7071710D01*
X38081242Y-7132010D01*
X38157990Y-7208758D01*
X38157991Y-7208760D01*
X38218291Y-7299005D01*
X38249516Y-7374389D01*
X38261067Y-7396000D01*
X38276612Y-7414941D01*
X38295554Y-7430487D01*
X38317165Y-7442038D01*
X38340614Y-7449151D01*
X38365000Y-7451553D01*
X38389386Y-7449151D01*
X38412835Y-7442038D01*
X38434446Y-7430487D01*
X38453387Y-7414942D01*
X38468933Y-7396000D01*
X38480484Y-7374389D01*
X38511709Y-7299005D01*
X38572009Y-7208760D01*
X38572010Y-7208758D01*
X38648758Y-7132010D01*
X38739004Y-7071710D01*
X38739005Y-7071709D01*
X38814389Y-7040484D01*
X38836000Y-7028933D01*
X38854941Y-7013388D01*
X38870487Y-6994446D01*
X38882038Y-6972835D01*
X38889151Y-6949386D01*
X38891553Y-6925000D01*
X38889151Y-6900614D01*
X38882038Y-6877165D01*
X38870487Y-6855554D01*
X38854942Y-6836613D01*
X38836000Y-6821067D01*
X38814389Y-6809516D01*
X38739005Y-6778291D01*
X38660845Y-6726066D01*
X38648758Y-6717990D01*
X38572010Y-6641242D01*
X38511710Y-6550996D01*
X38511709Y-6550995D01*
X38480484Y-6475611D01*
X38468933Y-6454000D01*
X38453388Y-6435059D01*
X38434446Y-6419513D01*
X38412835Y-6407962D01*
X38389386Y-6400849D01*
X38365000Y-6398447D01*
X38340614Y-6400849D01*
X38317165Y-6407962D01*
X38295554Y-6419513D01*
X38276613Y-6435058D01*
X38261067Y-6454000D01*
X38249516Y-6475611D01*
X38218291Y-6550995D01*
X38218290Y-6550996D01*
X38157990Y-6641242D01*
X38081242Y-6717990D01*
X38069155Y-6726066D01*
X37990995Y-6778291D01*
X37915611Y-6809516D01*
X37894000Y-6821067D01*
X37875059Y-6836612D01*
X37859513Y-6855554D01*
X37847962Y-6877165D01*
X37840849Y-6900614D01*
X37838447Y-6925000D01*
X37621553Y-6925000D01*
X37619151Y-6900614D01*
X37612038Y-6877165D01*
X37600487Y-6855554D01*
X37584942Y-6836613D01*
X37566000Y-6821067D01*
X37544389Y-6809516D01*
X37469005Y-6778291D01*
X37390845Y-6726066D01*
X37378758Y-6717990D01*
X37302010Y-6641242D01*
X37241710Y-6550996D01*
X37241709Y-6550995D01*
X37200174Y-6450721D01*
X37179000Y-6344270D01*
X37179000Y-6235730D01*
X37200174Y-6129279D01*
X37241709Y-6029005D01*
X37302009Y-5938760D01*
X37302010Y-5938758D01*
X37378758Y-5862010D01*
X37469004Y-5801710D01*
X37469005Y-5801709D01*
X37544389Y-5770484D01*
X37566000Y-5758933D01*
X37584941Y-5743388D01*
X37600487Y-5724446D01*
X37612038Y-5702835D01*
X37619151Y-5679386D01*
X37621553Y-5655000D01*
X37838447Y-5655000D01*
X37840849Y-5679386D01*
X37847962Y-5702835D01*
X37859513Y-5724446D01*
X37875058Y-5743387D01*
X37894000Y-5758933D01*
X37915611Y-5770484D01*
X37990995Y-5801709D01*
X37990996Y-5801710D01*
X38081242Y-5862010D01*
X38157990Y-5938758D01*
X38157991Y-5938760D01*
X38218291Y-6029005D01*
X38249516Y-6104389D01*
X38261067Y-6126000D01*
X38276612Y-6144941D01*
X38295554Y-6160487D01*
X38317165Y-6172038D01*
X38340614Y-6179151D01*
X38365000Y-6181553D01*
X38389386Y-6179151D01*
X38412835Y-6172038D01*
X38434446Y-6160487D01*
X38453387Y-6144942D01*
X38468933Y-6126000D01*
X38480484Y-6104389D01*
X38511709Y-6029005D01*
X38572009Y-5938760D01*
X38572010Y-5938758D01*
X38648758Y-5862010D01*
X38739004Y-5801710D01*
X38739005Y-5801709D01*
X38814389Y-5770484D01*
X38836000Y-5758933D01*
X38854941Y-5743388D01*
X38870487Y-5724446D01*
X38882038Y-5702835D01*
X38889151Y-5679386D01*
X38891553Y-5655000D01*
X38889151Y-5630614D01*
X38882038Y-5607165D01*
X38870487Y-5585554D01*
X38854942Y-5566613D01*
X38836000Y-5551067D01*
X38814389Y-5539516D01*
X38739005Y-5508291D01*
X38694188Y-5478345D01*
X38648758Y-5447990D01*
X38572010Y-5371242D01*
X38511710Y-5280996D01*
X38511709Y-5280995D01*
X38480484Y-5205611D01*
X38468933Y-5184000D01*
X38453388Y-5165059D01*
X38434446Y-5149513D01*
X38412835Y-5137962D01*
X38389386Y-5130849D01*
X38365000Y-5128447D01*
X38340614Y-5130849D01*
X38317165Y-5137962D01*
X38295554Y-5149513D01*
X38276613Y-5165058D01*
X38261067Y-5184000D01*
X38249516Y-5205611D01*
X38218291Y-5280995D01*
X38218290Y-5280996D01*
X38157990Y-5371242D01*
X38081242Y-5447990D01*
X38035812Y-5478345D01*
X37990995Y-5508291D01*
X37915611Y-5539516D01*
X37894000Y-5551067D01*
X37875059Y-5566612D01*
X37859513Y-5585554D01*
X37847962Y-5607165D01*
X37840849Y-5630614D01*
X37838447Y-5655000D01*
X37621553Y-5655000D01*
X37619151Y-5630614D01*
X37612038Y-5607165D01*
X37600487Y-5585554D01*
X37584942Y-5566613D01*
X37566000Y-5551067D01*
X37544389Y-5539516D01*
X37469005Y-5508291D01*
X37424188Y-5478345D01*
X37378758Y-5447990D01*
X37302010Y-5371242D01*
X37241710Y-5280996D01*
X37241709Y-5280995D01*
X37200174Y-5180721D01*
X37179000Y-5074270D01*
X37179000Y-4965730D01*
X37200174Y-4859279D01*
X37241709Y-4759005D01*
X37302009Y-4668760D01*
X37302010Y-4668758D01*
X37378758Y-4592010D01*
X37444202Y-4548282D01*
X37469005Y-4531709D01*
X37569279Y-4490174D01*
X37675730Y-4469000D01*
X37784270Y-4469000D01*
X37890721Y-4490174D01*
G37*
G36*
X30448228Y-8941703D02*
G01*
X30603100Y-9005853D01*
X30742481Y-9098985D01*
X30861015Y-9217519D01*
X30954147Y-9356900D01*
X31018297Y-9511772D01*
X31051000Y-9676184D01*
X31051000Y-9843816D01*
X31018297Y-10008228D01*
X30954147Y-10163100D01*
X30861015Y-10302481D01*
X30742481Y-10421015D01*
X30603100Y-10514147D01*
X30448228Y-10578297D01*
X30283816Y-10611000D01*
X30116184Y-10611000D01*
X29951772Y-10578297D01*
X29796900Y-10514147D01*
X29657519Y-10421015D01*
X29538985Y-10302481D01*
X29445853Y-10163100D01*
X29381703Y-10008228D01*
X29349000Y-9843816D01*
X29349000Y-9676184D01*
X29381703Y-9511772D01*
X29445853Y-9356900D01*
X29538985Y-9217519D01*
X29657519Y-9098985D01*
X29796900Y-9005853D01*
X29951772Y-8941703D01*
X30116184Y-8909000D01*
X30283816Y-8909000D01*
X30448228Y-8941703D01*
G37*
G36*
X22828228Y-8941703D02*
G01*
X22983100Y-9005853D01*
X23122481Y-9098985D01*
X23241015Y-9217519D01*
X23334147Y-9356900D01*
X23398297Y-9511772D01*
X23431000Y-9676184D01*
X23431000Y-9843816D01*
X23398297Y-10008228D01*
X23334147Y-10163100D01*
X23241015Y-10302481D01*
X23122481Y-10421015D01*
X22983100Y-10514147D01*
X22828228Y-10578297D01*
X22663816Y-10611000D01*
X22496184Y-10611000D01*
X22331772Y-10578297D01*
X22176900Y-10514147D01*
X22037519Y-10421015D01*
X21918985Y-10302481D01*
X21825853Y-10163100D01*
X21761703Y-10008228D01*
X21729000Y-9843816D01*
X21729000Y-9676184D01*
X21761703Y-9511772D01*
X21825853Y-9356900D01*
X21918985Y-9217519D01*
X22037519Y-9098985D01*
X22176900Y-9005853D01*
X22331772Y-8941703D01*
X22496184Y-8909000D01*
X22663816Y-8909000D01*
X22828228Y-8941703D01*
G37*
G36*
X69426979Y-6663293D02*
G01*
X69560625Y-6703834D01*
X69683784Y-6769664D01*
X69791740Y-6858260D01*
X69880336Y-6966216D01*
X69946166Y-7089375D01*
X69986707Y-7223021D01*
X70001000Y-7368140D01*
X70001000Y-9031860D01*
X69986707Y-9176979D01*
X69946166Y-9310625D01*
X69880336Y-9433784D01*
X69791740Y-9541740D01*
X69683784Y-9630336D01*
X69560625Y-9696166D01*
X69426979Y-9736707D01*
X69281860Y-9751000D01*
X67118140Y-9751000D01*
X66973021Y-9736707D01*
X66839375Y-9696166D01*
X66716216Y-9630336D01*
X66608260Y-9541740D01*
X66519664Y-9433784D01*
X66453834Y-9310625D01*
X66413293Y-9176979D01*
X66399000Y-9031860D01*
X66399000Y-7368140D01*
X66413293Y-7223021D01*
X66453834Y-7089375D01*
X66519664Y-6966216D01*
X66608260Y-6858260D01*
X66716216Y-6769664D01*
X66839375Y-6703834D01*
X66973021Y-6663293D01*
X67118140Y-6649000D01*
X69281860Y-6649000D01*
X69426979Y-6663293D01*
G37*
G36*
X4234239Y-611467D02*
G01*
X4548282Y-673934D01*
X5139926Y-919001D01*
X5672392Y-1274784D01*
X6125216Y-1727608D01*
X6480999Y-2260074D01*
X6726066Y-2851718D01*
X6762752Y-3036149D01*
X6851000Y-3479803D01*
X6851000Y-4120197D01*
X6809988Y-4326376D01*
X6726066Y-4748282D01*
X6480999Y-5339926D01*
X6211414Y-5743388D01*
X6125217Y-5872391D01*
X5672391Y-6325217D01*
X5643876Y-6344270D01*
X5139926Y-6680999D01*
X4548282Y-6926066D01*
X4431044Y-6949386D01*
X3920197Y-7051000D01*
X3279803Y-7051000D01*
X2768956Y-6949386D01*
X2651718Y-6926066D01*
X2060074Y-6680999D01*
X1556124Y-6344270D01*
X1527609Y-6325217D01*
X1074783Y-5872391D01*
X988586Y-5743388D01*
X719001Y-5339926D01*
X473934Y-4748282D01*
X390012Y-4326376D01*
X349000Y-4120197D01*
X349000Y-3479803D01*
X437248Y-3036149D01*
X473934Y-2851718D01*
X719001Y-2260074D01*
X1074784Y-1727608D01*
X1527608Y-1274784D01*
X2060074Y-919001D01*
X2651718Y-673934D01*
X2965761Y-611467D01*
X3279803Y-549000D01*
X3920197Y-549000D01*
X4234239Y-611467D01*
G37*
G36*
X97034239Y-411467D02*
G01*
X97348282Y-473934D01*
X97939926Y-719001D01*
X98366477Y-1004014D01*
X98472391Y-1074783D01*
X98925217Y-1527609D01*
X98995986Y-1633523D01*
X99280999Y-2060074D01*
X99526066Y-2651718D01*
X99547634Y-2760147D01*
X99651000Y-3279803D01*
X99651000Y-3920197D01*
X99603329Y-4159853D01*
X99526066Y-4548282D01*
X99280999Y-5139926D01*
X99034865Y-5508291D01*
X98925217Y-5672391D01*
X98472391Y-6125217D01*
X98402318Y-6172038D01*
X97939926Y-6480999D01*
X97348282Y-6726066D01*
X97129100Y-6769664D01*
X96720197Y-6851000D01*
X96079803Y-6851000D01*
X95670900Y-6769664D01*
X95451718Y-6726066D01*
X94860074Y-6480999D01*
X94397682Y-6172038D01*
X94327609Y-6125217D01*
X93874783Y-5672391D01*
X93765135Y-5508291D01*
X93519001Y-5139926D01*
X93273934Y-4548282D01*
X93196671Y-4159853D01*
X93149000Y-3920197D01*
X93149000Y-3279803D01*
X93252366Y-2760147D01*
X93273934Y-2651718D01*
X93519001Y-2060074D01*
X93804014Y-1633523D01*
X93874783Y-1527609D01*
X94327609Y-1074783D01*
X94433523Y-1004014D01*
X94860074Y-719001D01*
X95451718Y-473934D01*
X95765761Y-411467D01*
X96079803Y-349000D01*
X96720197Y-349000D01*
X97034239Y-411467D01*
G37*
G36*
X25023512Y-2563927D02*
G01*
X25172812Y-2593624D01*
X25336784Y-2661544D01*
X25484354Y-2760147D01*
X25609853Y-2885646D01*
X25708456Y-3033216D01*
X25776376Y-3197188D01*
X25811000Y-3371259D01*
X25811000Y-3548741D01*
X25776376Y-3722812D01*
X25708456Y-3886784D01*
X25609853Y-4034354D01*
X25484354Y-4159853D01*
X25336784Y-4258456D01*
X25172812Y-4326376D01*
X25023512Y-4356073D01*
X24998742Y-4361000D01*
X24821258Y-4361000D01*
X24796488Y-4356073D01*
X24647188Y-4326376D01*
X24483216Y-4258456D01*
X24335646Y-4159853D01*
X24210147Y-4034354D01*
X24111544Y-3886784D01*
X24043624Y-3722812D01*
X24009000Y-3548741D01*
X24009000Y-3371259D01*
X24043624Y-3197188D01*
X24111544Y-3033216D01*
X24210147Y-2885646D01*
X24335646Y-2760147D01*
X24483216Y-2661544D01*
X24647188Y-2593624D01*
X24796488Y-2563927D01*
X24821258Y-2559000D01*
X24998742Y-2559000D01*
X25023512Y-2563927D01*
G37*
G36*
X28351000Y-4361000D02*
G01*
X26549000Y-4361000D01*
X26549000Y-2559000D01*
X28351000Y-2559000D01*
X28351000Y-4361000D01*
G37*
G36*
X90031000Y-4211000D02*
G01*
X88579000Y-4211000D01*
X88579000Y91000D01*
X90031000Y91000D01*
X90031000Y-4211000D01*
G37*
G36*
X84381000Y-4211000D02*
G01*
X82929000Y-4211000D01*
X82929000Y91000D01*
X84381000Y91000D01*
X84381000Y-4211000D01*
G37*
G36*
X45126348Y-2516320D02*
G01*
X45126350Y-2516321D01*
X45126351Y-2516321D01*
X45267574Y-2574817D01*
X45267577Y-2574819D01*
X45394669Y-2659739D01*
X45502761Y-2767831D01*
X45558812Y-2851718D01*
X45587683Y-2894926D01*
X45644964Y-3033216D01*
X45646180Y-3036152D01*
X45676000Y-3186069D01*
X45676000Y-3338931D01*
X45669570Y-3371259D01*
X45646179Y-3488851D01*
X45587683Y-3630074D01*
X45587681Y-3630077D01*
X45502761Y-3757169D01*
X45394669Y-3865261D01*
X45312451Y-3920197D01*
X45267574Y-3950183D01*
X45126351Y-4008679D01*
X45126350Y-4008679D01*
X45126348Y-4008680D01*
X44976431Y-4038500D01*
X44823569Y-4038500D01*
X44673652Y-4008680D01*
X44673650Y-4008679D01*
X44673649Y-4008679D01*
X44532426Y-3950183D01*
X44487549Y-3920197D01*
X44405331Y-3865261D01*
X44297239Y-3757169D01*
X44212319Y-3630077D01*
X44212317Y-3630074D01*
X44153821Y-3488851D01*
X44130431Y-3371259D01*
X44124000Y-3338931D01*
X44124000Y-3186069D01*
X44153820Y-3036152D01*
X44155036Y-3033216D01*
X44212317Y-2894926D01*
X44241188Y-2851718D01*
X44297239Y-2767831D01*
X44405331Y-2659739D01*
X44532423Y-2574819D01*
X44532426Y-2574817D01*
X44673649Y-2516321D01*
X44673650Y-2516321D01*
X44673652Y-2516320D01*
X44823569Y-2486500D01*
X44976431Y-2486500D01*
X45126348Y-2516320D01*
G37*
G36*
X50126348Y-2516320D02*
G01*
X50126350Y-2516321D01*
X50126351Y-2516321D01*
X50267574Y-2574817D01*
X50267577Y-2574819D01*
X50394669Y-2659739D01*
X50502761Y-2767831D01*
X50558812Y-2851718D01*
X50587683Y-2894926D01*
X50644964Y-3033216D01*
X50646180Y-3036152D01*
X50676000Y-3186069D01*
X50676000Y-3338931D01*
X50669570Y-3371259D01*
X50646179Y-3488851D01*
X50587683Y-3630074D01*
X50587681Y-3630077D01*
X50502761Y-3757169D01*
X50394669Y-3865261D01*
X50312451Y-3920197D01*
X50267574Y-3950183D01*
X50126351Y-4008679D01*
X50126350Y-4008679D01*
X50126348Y-4008680D01*
X49976431Y-4038500D01*
X49823569Y-4038500D01*
X49673652Y-4008680D01*
X49673650Y-4008679D01*
X49673649Y-4008679D01*
X49532426Y-3950183D01*
X49487549Y-3920197D01*
X49405331Y-3865261D01*
X49297239Y-3757169D01*
X49212319Y-3630077D01*
X49212317Y-3630074D01*
X49153821Y-3488851D01*
X49130431Y-3371259D01*
X49124000Y-3338931D01*
X49124000Y-3186069D01*
X49153820Y-3036152D01*
X49155036Y-3033216D01*
X49212317Y-2894926D01*
X49241188Y-2851718D01*
X49297239Y-2767831D01*
X49405331Y-2659739D01*
X49532423Y-2574819D01*
X49532426Y-2574817D01*
X49673649Y-2516321D01*
X49673650Y-2516321D01*
X49673652Y-2516320D01*
X49823569Y-2486500D01*
X49976431Y-2486500D01*
X50126348Y-2516320D01*
G37*
G36*
X51027617Y429080D02*
G01*
X51118403Y401540D01*
X51150335Y391854D01*
X51263424Y331406D01*
X51362554Y250053D01*
X51443906Y150925D01*
X51504354Y37836D01*
X51514040Y5904D01*
X51541580Y-84882D01*
X51551000Y-180527D01*
X51551000Y-944473D01*
X51541580Y-1040118D01*
X51531064Y-1074783D01*
X51504354Y-1162836D01*
X51443906Y-1275925D01*
X51362554Y-1375054D01*
X51263425Y-1456406D01*
X51150336Y-1516854D01*
X51118404Y-1526540D01*
X51027618Y-1554080D01*
X50900000Y-1566649D01*
X50772383Y-1554080D01*
X50681597Y-1526540D01*
X50649665Y-1516854D01*
X50536576Y-1456406D01*
X50437447Y-1375054D01*
X50356095Y-1275925D01*
X50295648Y-1162837D01*
X50295645Y-1162832D01*
X50258420Y-1040118D01*
X50249000Y-944473D01*
X50249000Y-180528D01*
X50258420Y-84883D01*
X50295645Y37831D01*
X50295646Y37835D01*
X50356094Y150924D01*
X50437447Y250054D01*
X50536575Y331406D01*
X50649664Y391854D01*
X50681596Y401540D01*
X50772382Y429080D01*
X50900000Y441649D01*
X51027617Y429080D01*
G37*
G36*
X44027618Y429080D02*
G01*
X44118404Y401540D01*
X44150336Y391854D01*
X44263425Y331406D01*
X44362554Y250054D01*
X44443906Y150925D01*
X44504354Y37836D01*
X44514040Y5904D01*
X44541580Y-84882D01*
X44551000Y-180527D01*
X44551000Y-944473D01*
X44541580Y-1040118D01*
X44531064Y-1074783D01*
X44504354Y-1162836D01*
X44443906Y-1275925D01*
X44362554Y-1375053D01*
X44263424Y-1456406D01*
X44150335Y-1516854D01*
X44118403Y-1526540D01*
X44027617Y-1554080D01*
X43900000Y-1566649D01*
X43772382Y-1554080D01*
X43681596Y-1526540D01*
X43649664Y-1516854D01*
X43536575Y-1456406D01*
X43437447Y-1375054D01*
X43356094Y-1275924D01*
X43295646Y-1162835D01*
X43285960Y-1130903D01*
X43258420Y-1040117D01*
X43249000Y-944472D01*
X43249000Y-180527D01*
X43258420Y-84882D01*
X43295645Y37832D01*
X43324064Y91000D01*
X43356095Y150925D01*
X43437447Y250054D01*
X43536576Y331406D01*
X43649665Y391854D01*
X43681597Y401540D01*
X43772383Y429080D01*
X43900000Y441649D01*
X44027618Y429080D01*
G37*
M02*
