G04 #@! TF.GenerationSoftware,KiCad,Pcbnew,5.1.5+dfsg1-2build2*
G04 #@! TF.CreationDate,2021-02-27T17:19:35-05:00*
G04 #@! TF.ProjectId,gpsdo,67707364-6f2e-46b6-9963-61645f706362,rev?*
G04 #@! TF.SameCoordinates,Original*
G04 #@! TF.FileFunction,Copper,L4,Bot*
G04 #@! TF.FilePolarity,Positive*
%FSLAX46Y46*%
G04 Gerber Fmt 4.6, Leading zero omitted, Abs format (unit mm)*
G04 Created by KiCad (PCBNEW 5.1.5+dfsg1-2build2) date 2021-02-27 17:19:35*
%MOMM*%
%LPD*%
G04 APERTURE LIST*
%ADD10R,1.350000X4.200000*%
%ADD11C,6.400000*%
%ADD12R,1.000000X1.000000*%
%ADD13O,1.000000X1.000000*%
%ADD14R,3.500000X3.500000*%
%ADD15C,0.100000*%
%ADD16C,1.450000*%
%ADD17O,1.200000X1.900000*%
%ADD18R,1.700000X1.700000*%
%ADD19O,1.700000X1.700000*%
%ADD20C,2.000000*%
%ADD21R,2.000000X2.000000*%
%ADD22R,1.600000X1.600000*%
%ADD23C,1.600000*%
%ADD24R,4.200000X1.350000*%
%ADD25C,0.800000*%
%ADD26C,0.293370*%
%ADD27C,0.250000*%
%ADD28C,0.254000*%
G04 APERTURE END LIST*
D10*
X89305000Y-2060000D03*
X83655000Y-2060000D03*
D11*
X96400000Y-3600000D03*
X3600000Y-3800000D03*
X3400000Y-96100000D03*
X96600000Y-96500000D03*
D12*
X39000000Y-10100000D03*
D13*
X37730000Y-10100000D03*
X39000000Y-8830000D03*
X37730000Y-8830000D03*
X39000000Y-7560000D03*
X37730000Y-7560000D03*
X39000000Y-6290000D03*
X37730000Y-6290000D03*
X39000000Y-5020000D03*
X37730000Y-5020000D03*
D14*
X68200000Y-14200000D03*
G04 #@! TA.AperFunction,ComponentPad*
D15*
G36*
X69273513Y-6703611D02*
G01*
X69346318Y-6714411D01*
X69417714Y-6732295D01*
X69487013Y-6757090D01*
X69553548Y-6788559D01*
X69616678Y-6826398D01*
X69675795Y-6870242D01*
X69730330Y-6919670D01*
X69779758Y-6974205D01*
X69823602Y-7033322D01*
X69861441Y-7096452D01*
X69892910Y-7162987D01*
X69917705Y-7232286D01*
X69935589Y-7303682D01*
X69946389Y-7376487D01*
X69950000Y-7450000D01*
X69950000Y-8950000D01*
X69946389Y-9023513D01*
X69935589Y-9096318D01*
X69917705Y-9167714D01*
X69892910Y-9237013D01*
X69861441Y-9303548D01*
X69823602Y-9366678D01*
X69779758Y-9425795D01*
X69730330Y-9480330D01*
X69675795Y-9529758D01*
X69616678Y-9573602D01*
X69553548Y-9611441D01*
X69487013Y-9642910D01*
X69417714Y-9667705D01*
X69346318Y-9685589D01*
X69273513Y-9696389D01*
X69200000Y-9700000D01*
X67200000Y-9700000D01*
X67126487Y-9696389D01*
X67053682Y-9685589D01*
X66982286Y-9667705D01*
X66912987Y-9642910D01*
X66846452Y-9611441D01*
X66783322Y-9573602D01*
X66724205Y-9529758D01*
X66669670Y-9480330D01*
X66620242Y-9425795D01*
X66576398Y-9366678D01*
X66538559Y-9303548D01*
X66507090Y-9237013D01*
X66482295Y-9167714D01*
X66464411Y-9096318D01*
X66453611Y-9023513D01*
X66450000Y-8950000D01*
X66450000Y-7450000D01*
X66453611Y-7376487D01*
X66464411Y-7303682D01*
X66482295Y-7232286D01*
X66507090Y-7162987D01*
X66538559Y-7096452D01*
X66576398Y-7033322D01*
X66620242Y-6974205D01*
X66669670Y-6919670D01*
X66724205Y-6870242D01*
X66783322Y-6826398D01*
X66846452Y-6788559D01*
X66912987Y-6757090D01*
X66982286Y-6732295D01*
X67053682Y-6714411D01*
X67126487Y-6703611D01*
X67200000Y-6700000D01*
X69200000Y-6700000D01*
X69273513Y-6703611D01*
G37*
G04 #@! TD.AperFunction*
G04 #@! TA.AperFunction,ComponentPad*
G36*
X64460765Y-9454213D02*
G01*
X64545704Y-9466813D01*
X64628999Y-9487677D01*
X64709848Y-9516605D01*
X64787472Y-9553319D01*
X64861124Y-9597464D01*
X64930094Y-9648616D01*
X64993718Y-9706282D01*
X65051384Y-9769906D01*
X65102536Y-9838876D01*
X65146681Y-9912528D01*
X65183395Y-9990152D01*
X65212323Y-10071001D01*
X65233187Y-10154296D01*
X65245787Y-10239235D01*
X65250000Y-10325000D01*
X65250000Y-12075000D01*
X65245787Y-12160765D01*
X65233187Y-12245704D01*
X65212323Y-12328999D01*
X65183395Y-12409848D01*
X65146681Y-12487472D01*
X65102536Y-12561124D01*
X65051384Y-12630094D01*
X64993718Y-12693718D01*
X64930094Y-12751384D01*
X64861124Y-12802536D01*
X64787472Y-12846681D01*
X64709848Y-12883395D01*
X64628999Y-12912323D01*
X64545704Y-12933187D01*
X64460765Y-12945787D01*
X64375000Y-12950000D01*
X62625000Y-12950000D01*
X62539235Y-12945787D01*
X62454296Y-12933187D01*
X62371001Y-12912323D01*
X62290152Y-12883395D01*
X62212528Y-12846681D01*
X62138876Y-12802536D01*
X62069906Y-12751384D01*
X62006282Y-12693718D01*
X61948616Y-12630094D01*
X61897464Y-12561124D01*
X61853319Y-12487472D01*
X61816605Y-12409848D01*
X61787677Y-12328999D01*
X61766813Y-12245704D01*
X61754213Y-12160765D01*
X61750000Y-12075000D01*
X61750000Y-10325000D01*
X61754213Y-10239235D01*
X61766813Y-10154296D01*
X61787677Y-10071001D01*
X61816605Y-9990152D01*
X61853319Y-9912528D01*
X61897464Y-9838876D01*
X61948616Y-9769906D01*
X62006282Y-9706282D01*
X62069906Y-9648616D01*
X62138876Y-9597464D01*
X62212528Y-9553319D01*
X62290152Y-9516605D01*
X62371001Y-9487677D01*
X62454296Y-9466813D01*
X62539235Y-9454213D01*
X62625000Y-9450000D01*
X64375000Y-9450000D01*
X64460765Y-9454213D01*
G37*
G04 #@! TD.AperFunction*
D16*
X49900000Y-3262500D03*
X44900000Y-3262500D03*
D17*
X50900000Y-562500D03*
X43900000Y-562500D03*
D18*
X25400000Y-3000000D03*
D19*
X27940000Y-3000000D03*
D20*
X41100000Y-35400000D03*
X41100000Y-39900000D03*
X34600000Y-35400000D03*
X34600000Y-39900000D03*
D21*
X68060000Y-30000000D03*
D20*
X70600000Y-30000000D03*
X73140000Y-30000000D03*
D22*
X30200000Y-25000000D03*
D23*
X22580000Y-25000000D03*
X22580000Y-9760000D03*
X30200000Y-9760000D03*
D24*
X2100000Y-52825000D03*
X2100000Y-47175000D03*
X2100000Y-59108333D03*
X2100000Y-64758333D03*
X97800000Y-76691666D03*
X97800000Y-71041666D03*
X2100000Y-88625000D03*
X2100000Y-82975000D03*
X97800000Y-52825000D03*
X97800000Y-47175000D03*
X97800000Y-59108333D03*
X97800000Y-64758333D03*
X2100000Y-71041666D03*
X2100000Y-76691666D03*
X97800000Y-82975000D03*
X97800000Y-88625000D03*
D25*
X44866664Y-51400000D03*
X10333333Y-51400000D03*
X84333328Y-51400000D03*
X25133332Y-51400000D03*
X39933331Y-51400000D03*
X49799997Y-51400000D03*
X30066665Y-51400000D03*
X34999998Y-51400000D03*
X5400000Y-51400000D03*
X79399995Y-51400000D03*
X69533329Y-51400000D03*
X15266666Y-51400000D03*
X64599996Y-51400000D03*
X20199999Y-51400000D03*
X54733330Y-51400000D03*
X59666663Y-51400000D03*
X89266661Y-51400000D03*
X94200000Y-51400000D03*
X74466662Y-51400000D03*
X44866664Y-60600000D03*
X10333333Y-60600000D03*
X84333328Y-60600000D03*
X25133332Y-60600000D03*
X39933331Y-60600000D03*
X49799997Y-60600000D03*
X30066665Y-60600000D03*
X34999998Y-60600000D03*
X5400000Y-60600000D03*
X79399995Y-60600000D03*
X69533329Y-60600000D03*
X15266666Y-60600000D03*
X64599996Y-60600000D03*
X20199999Y-60600000D03*
X54733330Y-60600000D03*
X59666663Y-60600000D03*
X89266661Y-60600000D03*
X94200000Y-60600000D03*
X74466662Y-60600000D03*
X44866664Y-63200000D03*
X10333333Y-63200000D03*
X84333328Y-63200000D03*
X25133332Y-63200000D03*
X39933331Y-63200000D03*
X49799997Y-63200000D03*
X30066665Y-63200000D03*
X34999998Y-63200000D03*
X5400000Y-63200000D03*
X79399995Y-63200000D03*
X69533329Y-63200000D03*
X15266666Y-63200000D03*
X64599996Y-63200000D03*
X20199999Y-63200000D03*
X54733330Y-63200000D03*
X59666663Y-63200000D03*
X89266661Y-63200000D03*
X94200000Y-63200000D03*
X74466662Y-63200000D03*
X44866664Y-72400000D03*
X10333333Y-72400000D03*
X84333328Y-72400000D03*
X25133332Y-72400000D03*
X39933331Y-72400000D03*
X49799997Y-72400000D03*
X30066665Y-72400000D03*
X34999998Y-72400000D03*
X5400000Y-72400000D03*
X79399995Y-72400000D03*
X69533329Y-72400000D03*
X15266666Y-72400000D03*
X64599996Y-72400000D03*
X20199999Y-72400000D03*
X54733330Y-72400000D03*
X59666663Y-72400000D03*
X89266661Y-72400000D03*
X94200000Y-72400000D03*
X74466662Y-72400000D03*
X44866664Y-75200000D03*
X10333333Y-75200000D03*
X84333328Y-75200000D03*
X25133332Y-75200000D03*
X39933331Y-75200000D03*
X49799997Y-75200000D03*
X30066665Y-75200000D03*
X34999998Y-75200000D03*
X5400000Y-75200000D03*
X79399995Y-75200000D03*
X69533329Y-75200000D03*
X15266666Y-75200000D03*
X64599996Y-75200000D03*
X20199999Y-75200000D03*
X54733330Y-75200000D03*
X59666663Y-75200000D03*
X89266661Y-75200000D03*
X94200000Y-75200000D03*
X74466662Y-75200000D03*
X44866664Y-84000000D03*
X10333333Y-84000000D03*
X84333328Y-84000000D03*
X25133332Y-84000000D03*
X39933331Y-84000000D03*
X49799997Y-84000000D03*
X30066665Y-84000000D03*
X34999998Y-84000000D03*
X5400000Y-84000000D03*
X79399995Y-84000000D03*
X69533329Y-84000000D03*
X15266666Y-84000000D03*
X64599996Y-84000000D03*
X20199999Y-84000000D03*
X54733330Y-84000000D03*
X59666663Y-84000000D03*
X89266661Y-84000000D03*
X94200000Y-84000000D03*
X74466662Y-84000000D03*
X44866664Y-87600000D03*
X10333333Y-87600000D03*
X84333328Y-87600000D03*
X25133332Y-87600000D03*
X39933331Y-87600000D03*
X49799997Y-87600000D03*
X30066665Y-87600000D03*
X34999998Y-87600000D03*
X5400000Y-87600000D03*
X79399995Y-87600000D03*
X69533329Y-87600000D03*
X15266666Y-87600000D03*
X64599996Y-87600000D03*
X20199999Y-87600000D03*
X54733330Y-87600000D03*
X59666663Y-87600000D03*
X89266661Y-87600000D03*
X94200000Y-87600000D03*
X74466662Y-87600000D03*
X89100000Y-10460000D03*
X85330000Y-12300000D03*
X85490000Y-23770000D03*
X78750000Y-22390000D03*
X86380000Y-29660000D03*
X77000000Y-35200000D03*
X52200000Y-12370000D03*
X45310000Y-4780000D03*
X45330000Y-12110000D03*
X60340000Y-15520000D03*
X62410000Y-17030000D03*
X62135791Y-29807836D03*
X58170000Y-34050000D03*
X47400000Y-34600000D03*
X44900000Y-34500000D03*
X54700003Y-34500000D03*
X53300000Y-38700000D03*
X51700000Y-38800000D03*
X47800000Y-38700000D03*
X54300000Y-35700000D03*
X52100000Y-33100000D03*
X47900000Y-35500000D03*
X49626620Y-33800000D03*
X39400000Y-28700000D03*
X23693886Y-30889569D03*
X62000000Y-38200000D03*
X45100000Y-13300000D03*
X34600000Y-29700000D03*
X29800000Y-31300000D03*
X39100000Y-32800000D03*
X36200000Y-24300000D03*
X5400000Y-48600000D03*
X15266666Y-48600000D03*
X25133332Y-48600000D03*
X34999998Y-48600000D03*
X44866664Y-48600000D03*
X54733330Y-48600000D03*
X64599996Y-48600000D03*
X74466662Y-48600000D03*
X84333328Y-48600000D03*
X94200000Y-48600000D03*
X10333333Y-48600000D03*
X20199999Y-48600000D03*
X30066665Y-48600000D03*
X39933331Y-48600000D03*
X49799997Y-48600000D03*
X59666663Y-48600000D03*
X69533329Y-48600000D03*
X79399995Y-48600000D03*
X89266661Y-48600000D03*
X46100000Y-29800000D03*
X86487836Y-23835791D03*
X81840000Y-38060000D03*
X60420000Y-16560000D03*
X62070000Y-28810000D03*
X58983057Y-34632189D03*
X48400000Y-34400000D03*
X45900000Y-34500000D03*
X53700000Y-34500000D03*
X39400000Y-29700000D03*
X22700000Y-31000000D03*
X44099997Y-13300000D03*
X30100000Y-32900000D03*
X36300000Y-23200000D03*
X36200000Y-25300000D03*
X72700000Y-27446695D03*
X46405598Y-27446695D03*
X45900000Y-26300000D03*
X74100000Y-26700002D03*
X83060000Y-8350000D03*
X85733315Y-7970000D03*
X56500000Y-28400000D03*
X38500000Y-27900000D03*
X79600000Y-23800000D03*
X56700000Y-25900000D03*
X47900000Y-18100000D03*
X83200000Y-25646685D03*
X61000000Y-25800000D03*
X88100000Y-24900000D03*
X60800000Y-24800000D03*
X61951746Y-20108012D03*
X80200000Y-18000000D03*
X62690573Y-19361327D03*
X78800000Y-17900000D03*
D26*
X46100000Y-30400000D02*
X46100000Y-29800000D01*
X41100000Y-35400000D02*
X46100000Y-30400000D01*
D27*
X33600001Y-34400001D02*
X34600000Y-35400000D01*
X33274999Y-34074999D02*
X33600001Y-34400001D01*
X33274999Y-9475001D02*
X33274999Y-34074999D01*
X37730000Y-5020000D02*
X33274999Y-9475001D01*
D26*
X46405598Y-27446695D02*
X46971283Y-27446695D01*
X46971283Y-27446695D02*
X72700000Y-27446695D01*
X74099998Y-26700000D02*
X74100000Y-26700002D01*
X45900000Y-26300000D02*
X46300000Y-26700000D01*
X46300000Y-26700000D02*
X74099998Y-26700000D01*
X43900000Y-2262500D02*
X44900000Y-3262500D01*
X43900000Y-562500D02*
X43900000Y-2262500D01*
X50006630Y-562500D02*
X50900000Y-562500D01*
X49900000Y-669130D02*
X50006630Y-562500D01*
X49900000Y-3262500D02*
X49900000Y-669130D01*
X85353315Y-8350000D02*
X85733315Y-7970000D01*
X83060000Y-8350000D02*
X85353315Y-8350000D01*
X39705096Y-27900000D02*
X38500000Y-27900000D01*
X40205096Y-28400000D02*
X39705096Y-27900000D01*
X56500000Y-28400000D02*
X40205096Y-28400000D01*
X79100000Y-23300000D02*
X61300000Y-23300000D01*
X79600000Y-23800000D02*
X79100000Y-23300000D01*
X59300000Y-23300000D02*
X56700000Y-25900000D01*
X61300000Y-23300000D02*
X59300000Y-23300000D01*
X55700000Y-25900000D02*
X47900000Y-18100000D01*
X56700000Y-25900000D02*
X55700000Y-25900000D01*
X61153315Y-25646685D02*
X61000000Y-25800000D01*
X83200000Y-25646685D02*
X61153315Y-25646685D01*
X60900000Y-24900000D02*
X60800000Y-24800000D01*
X88100000Y-24900000D02*
X60900000Y-24900000D01*
X78091988Y-20108012D02*
X80200000Y-18000000D01*
X61951746Y-20108012D02*
X78091988Y-20108012D01*
X77338673Y-19361327D02*
X78800000Y-17900000D01*
X62690573Y-19361327D02*
X77338673Y-19361327D01*
D28*
G36*
X99340000Y-45862876D02*
G01*
X98085750Y-45865000D01*
X97927000Y-46023750D01*
X97927000Y-47048000D01*
X97947000Y-47048000D01*
X97947000Y-47302000D01*
X97927000Y-47302000D01*
X97927000Y-48326250D01*
X98085750Y-48485000D01*
X99340000Y-48487124D01*
X99340001Y-51512876D01*
X98085750Y-51515000D01*
X97927000Y-51673750D01*
X97927000Y-52698000D01*
X97947000Y-52698000D01*
X97947000Y-52952000D01*
X97927000Y-52952000D01*
X97927000Y-53976250D01*
X98085750Y-54135000D01*
X99340001Y-54137124D01*
X99340001Y-57796209D01*
X98085750Y-57798333D01*
X97927000Y-57957083D01*
X97927000Y-58981333D01*
X97947000Y-58981333D01*
X97947000Y-59235333D01*
X97927000Y-59235333D01*
X97927000Y-60259583D01*
X98085750Y-60418333D01*
X99340001Y-60420457D01*
X99340001Y-63446209D01*
X98085750Y-63448333D01*
X97927000Y-63607083D01*
X97927000Y-64631333D01*
X97947000Y-64631333D01*
X97947000Y-64885333D01*
X97927000Y-64885333D01*
X97927000Y-65909583D01*
X98085750Y-66068333D01*
X99340001Y-66070457D01*
X99340001Y-69729542D01*
X98085750Y-69731666D01*
X97927000Y-69890416D01*
X97927000Y-70914666D01*
X97947000Y-70914666D01*
X97947000Y-71168666D01*
X97927000Y-71168666D01*
X97927000Y-72192916D01*
X98085750Y-72351666D01*
X99340001Y-72353790D01*
X99340001Y-75379542D01*
X98085750Y-75381666D01*
X97927000Y-75540416D01*
X97927000Y-76564666D01*
X97947000Y-76564666D01*
X97947000Y-76818666D01*
X97927000Y-76818666D01*
X97927000Y-77842916D01*
X98085750Y-78001666D01*
X99340001Y-78003790D01*
X99340001Y-81662876D01*
X98085750Y-81665000D01*
X97927000Y-81823750D01*
X97927000Y-82848000D01*
X97947000Y-82848000D01*
X97947000Y-83102000D01*
X97927000Y-83102000D01*
X97927000Y-84126250D01*
X98085750Y-84285000D01*
X99340001Y-84287124D01*
X99340001Y-87312876D01*
X98085750Y-87315000D01*
X97927000Y-87473750D01*
X97927000Y-88498000D01*
X97947000Y-88498000D01*
X97947000Y-88752000D01*
X97927000Y-88752000D01*
X97927000Y-89776250D01*
X98085750Y-89935000D01*
X99340001Y-89937124D01*
X99340001Y-94007500D01*
X99300881Y-93978724D01*
X96779605Y-96500000D01*
X99300881Y-99021276D01*
X99340001Y-98992500D01*
X99340001Y-99340000D01*
X99018943Y-99340000D01*
X99121276Y-99200881D01*
X96600000Y-96679605D01*
X94078724Y-99200881D01*
X94181057Y-99340000D01*
X5478034Y-99340000D01*
X5520670Y-99317555D01*
X5561088Y-99290548D01*
X5921276Y-98800881D01*
X3400000Y-96279605D01*
X878724Y-98800881D01*
X1238912Y-99290548D01*
X1330043Y-99340000D01*
X660000Y-99340000D01*
X660000Y-98592501D01*
X699119Y-98621276D01*
X3220395Y-96100000D01*
X3579605Y-96100000D01*
X6100881Y-98621276D01*
X6590548Y-98261088D01*
X6950849Y-97597118D01*
X7174694Y-96875615D01*
X7216631Y-96475695D01*
X92746520Y-96475695D01*
X92815822Y-97227938D01*
X93030548Y-97952208D01*
X93382445Y-98620670D01*
X93409452Y-98661088D01*
X93899119Y-99021276D01*
X96420395Y-96500000D01*
X93899119Y-93978724D01*
X93409452Y-94338912D01*
X93049151Y-95002882D01*
X92825306Y-95724385D01*
X92746520Y-96475695D01*
X7216631Y-96475695D01*
X7253480Y-96124305D01*
X7184178Y-95372062D01*
X6969452Y-94647792D01*
X6617555Y-93979330D01*
X6590548Y-93938912D01*
X6400503Y-93799119D01*
X94078724Y-93799119D01*
X96600000Y-96320395D01*
X99121276Y-93799119D01*
X98761088Y-93309452D01*
X98097118Y-92949151D01*
X97375615Y-92725306D01*
X96624305Y-92646520D01*
X95872062Y-92715822D01*
X95147792Y-92930548D01*
X94479330Y-93282445D01*
X94438912Y-93309452D01*
X94078724Y-93799119D01*
X6400503Y-93799119D01*
X6100881Y-93578724D01*
X3579605Y-96100000D01*
X3220395Y-96100000D01*
X699119Y-93578724D01*
X660000Y-93607499D01*
X660000Y-93399119D01*
X878724Y-93399119D01*
X3400000Y-95920395D01*
X5921276Y-93399119D01*
X5561088Y-92909452D01*
X4897118Y-92549151D01*
X4175615Y-92325306D01*
X3424305Y-92246520D01*
X2672062Y-92315822D01*
X1947792Y-92530548D01*
X1279330Y-92882445D01*
X1238912Y-92909452D01*
X878724Y-93399119D01*
X660000Y-93399119D01*
X660000Y-89936954D01*
X1814250Y-89935000D01*
X1973000Y-89776250D01*
X1973000Y-88752000D01*
X2227000Y-88752000D01*
X2227000Y-89776250D01*
X2385750Y-89935000D01*
X4200000Y-89938072D01*
X4324482Y-89925812D01*
X4444180Y-89889502D01*
X4554494Y-89830537D01*
X4651185Y-89751185D01*
X4730537Y-89654494D01*
X4789502Y-89544180D01*
X4825812Y-89424482D01*
X4838072Y-89300000D01*
X95061928Y-89300000D01*
X95074188Y-89424482D01*
X95110498Y-89544180D01*
X95169463Y-89654494D01*
X95248815Y-89751185D01*
X95345506Y-89830537D01*
X95455820Y-89889502D01*
X95575518Y-89925812D01*
X95700000Y-89938072D01*
X97514250Y-89935000D01*
X97673000Y-89776250D01*
X97673000Y-88752000D01*
X95223750Y-88752000D01*
X95065000Y-88910750D01*
X95061928Y-89300000D01*
X4838072Y-89300000D01*
X4835000Y-88910750D01*
X4676250Y-88752000D01*
X2227000Y-88752000D01*
X1973000Y-88752000D01*
X1953000Y-88752000D01*
X1953000Y-88498000D01*
X1973000Y-88498000D01*
X1973000Y-87473750D01*
X2227000Y-87473750D01*
X2227000Y-88498000D01*
X4676250Y-88498000D01*
X4835000Y-88339250D01*
X4838072Y-87950000D01*
X95061928Y-87950000D01*
X95065000Y-88339250D01*
X95223750Y-88498000D01*
X97673000Y-88498000D01*
X97673000Y-87473750D01*
X97514250Y-87315000D01*
X95700000Y-87311928D01*
X95575518Y-87324188D01*
X95455820Y-87360498D01*
X95345506Y-87419463D01*
X95248815Y-87498815D01*
X95169463Y-87595506D01*
X95110498Y-87705820D01*
X95074188Y-87825518D01*
X95061928Y-87950000D01*
X4838072Y-87950000D01*
X4825812Y-87825518D01*
X4789502Y-87705820D01*
X4730537Y-87595506D01*
X4651185Y-87498815D01*
X4554494Y-87419463D01*
X4444180Y-87360498D01*
X4324482Y-87324188D01*
X4200000Y-87311928D01*
X2385750Y-87315000D01*
X2227000Y-87473750D01*
X1973000Y-87473750D01*
X1814250Y-87315000D01*
X660000Y-87313046D01*
X660000Y-84286954D01*
X1814250Y-84285000D01*
X1973000Y-84126250D01*
X1973000Y-83102000D01*
X2227000Y-83102000D01*
X2227000Y-84126250D01*
X2385750Y-84285000D01*
X4200000Y-84288072D01*
X4324482Y-84275812D01*
X4444180Y-84239502D01*
X4554494Y-84180537D01*
X4651185Y-84101185D01*
X4730537Y-84004494D01*
X4789502Y-83894180D01*
X4825812Y-83774482D01*
X4838072Y-83650000D01*
X95061928Y-83650000D01*
X95074188Y-83774482D01*
X95110498Y-83894180D01*
X95169463Y-84004494D01*
X95248815Y-84101185D01*
X95345506Y-84180537D01*
X95455820Y-84239502D01*
X95575518Y-84275812D01*
X95700000Y-84288072D01*
X97514250Y-84285000D01*
X97673000Y-84126250D01*
X97673000Y-83102000D01*
X95223750Y-83102000D01*
X95065000Y-83260750D01*
X95061928Y-83650000D01*
X4838072Y-83650000D01*
X4835000Y-83260750D01*
X4676250Y-83102000D01*
X2227000Y-83102000D01*
X1973000Y-83102000D01*
X1953000Y-83102000D01*
X1953000Y-82848000D01*
X1973000Y-82848000D01*
X1973000Y-81823750D01*
X2227000Y-81823750D01*
X2227000Y-82848000D01*
X4676250Y-82848000D01*
X4835000Y-82689250D01*
X4838072Y-82300000D01*
X95061928Y-82300000D01*
X95065000Y-82689250D01*
X95223750Y-82848000D01*
X97673000Y-82848000D01*
X97673000Y-81823750D01*
X97514250Y-81665000D01*
X95700000Y-81661928D01*
X95575518Y-81674188D01*
X95455820Y-81710498D01*
X95345506Y-81769463D01*
X95248815Y-81848815D01*
X95169463Y-81945506D01*
X95110498Y-82055820D01*
X95074188Y-82175518D01*
X95061928Y-82300000D01*
X4838072Y-82300000D01*
X4825812Y-82175518D01*
X4789502Y-82055820D01*
X4730537Y-81945506D01*
X4651185Y-81848815D01*
X4554494Y-81769463D01*
X4444180Y-81710498D01*
X4324482Y-81674188D01*
X4200000Y-81661928D01*
X2385750Y-81665000D01*
X2227000Y-81823750D01*
X1973000Y-81823750D01*
X1814250Y-81665000D01*
X660000Y-81663046D01*
X660000Y-78003620D01*
X1814250Y-78001666D01*
X1973000Y-77842916D01*
X1973000Y-76818666D01*
X2227000Y-76818666D01*
X2227000Y-77842916D01*
X2385750Y-78001666D01*
X4200000Y-78004738D01*
X4324482Y-77992478D01*
X4444180Y-77956168D01*
X4554494Y-77897203D01*
X4651185Y-77817851D01*
X4730537Y-77721160D01*
X4789502Y-77610846D01*
X4825812Y-77491148D01*
X4838072Y-77366666D01*
X95061928Y-77366666D01*
X95074188Y-77491148D01*
X95110498Y-77610846D01*
X95169463Y-77721160D01*
X95248815Y-77817851D01*
X95345506Y-77897203D01*
X95455820Y-77956168D01*
X95575518Y-77992478D01*
X95700000Y-78004738D01*
X97514250Y-78001666D01*
X97673000Y-77842916D01*
X97673000Y-76818666D01*
X95223750Y-76818666D01*
X95065000Y-76977416D01*
X95061928Y-77366666D01*
X4838072Y-77366666D01*
X4835000Y-76977416D01*
X4676250Y-76818666D01*
X2227000Y-76818666D01*
X1973000Y-76818666D01*
X1953000Y-76818666D01*
X1953000Y-76564666D01*
X1973000Y-76564666D01*
X1973000Y-75540416D01*
X2227000Y-75540416D01*
X2227000Y-76564666D01*
X4676250Y-76564666D01*
X4835000Y-76405916D01*
X4838072Y-76016666D01*
X95061928Y-76016666D01*
X95065000Y-76405916D01*
X95223750Y-76564666D01*
X97673000Y-76564666D01*
X97673000Y-75540416D01*
X97514250Y-75381666D01*
X95700000Y-75378594D01*
X95575518Y-75390854D01*
X95455820Y-75427164D01*
X95345506Y-75486129D01*
X95248815Y-75565481D01*
X95169463Y-75662172D01*
X95110498Y-75772486D01*
X95074188Y-75892184D01*
X95061928Y-76016666D01*
X4838072Y-76016666D01*
X4825812Y-75892184D01*
X4789502Y-75772486D01*
X4730537Y-75662172D01*
X4651185Y-75565481D01*
X4554494Y-75486129D01*
X4444180Y-75427164D01*
X4324482Y-75390854D01*
X4200000Y-75378594D01*
X2385750Y-75381666D01*
X2227000Y-75540416D01*
X1973000Y-75540416D01*
X1814250Y-75381666D01*
X660000Y-75379712D01*
X660000Y-72353620D01*
X1814250Y-72351666D01*
X1973000Y-72192916D01*
X1973000Y-71168666D01*
X2227000Y-71168666D01*
X2227000Y-72192916D01*
X2385750Y-72351666D01*
X4200000Y-72354738D01*
X4324482Y-72342478D01*
X4444180Y-72306168D01*
X4554494Y-72247203D01*
X4651185Y-72167851D01*
X4730537Y-72071160D01*
X4789502Y-71960846D01*
X4825812Y-71841148D01*
X4838072Y-71716666D01*
X95061928Y-71716666D01*
X95074188Y-71841148D01*
X95110498Y-71960846D01*
X95169463Y-72071160D01*
X95248815Y-72167851D01*
X95345506Y-72247203D01*
X95455820Y-72306168D01*
X95575518Y-72342478D01*
X95700000Y-72354738D01*
X97514250Y-72351666D01*
X97673000Y-72192916D01*
X97673000Y-71168666D01*
X95223750Y-71168666D01*
X95065000Y-71327416D01*
X95061928Y-71716666D01*
X4838072Y-71716666D01*
X4835000Y-71327416D01*
X4676250Y-71168666D01*
X2227000Y-71168666D01*
X1973000Y-71168666D01*
X1953000Y-71168666D01*
X1953000Y-70914666D01*
X1973000Y-70914666D01*
X1973000Y-69890416D01*
X2227000Y-69890416D01*
X2227000Y-70914666D01*
X4676250Y-70914666D01*
X4835000Y-70755916D01*
X4838072Y-70366666D01*
X95061928Y-70366666D01*
X95065000Y-70755916D01*
X95223750Y-70914666D01*
X97673000Y-70914666D01*
X97673000Y-69890416D01*
X97514250Y-69731666D01*
X95700000Y-69728594D01*
X95575518Y-69740854D01*
X95455820Y-69777164D01*
X95345506Y-69836129D01*
X95248815Y-69915481D01*
X95169463Y-70012172D01*
X95110498Y-70122486D01*
X95074188Y-70242184D01*
X95061928Y-70366666D01*
X4838072Y-70366666D01*
X4825812Y-70242184D01*
X4789502Y-70122486D01*
X4730537Y-70012172D01*
X4651185Y-69915481D01*
X4554494Y-69836129D01*
X4444180Y-69777164D01*
X4324482Y-69740854D01*
X4200000Y-69728594D01*
X2385750Y-69731666D01*
X2227000Y-69890416D01*
X1973000Y-69890416D01*
X1814250Y-69731666D01*
X660000Y-69729712D01*
X660000Y-66070287D01*
X1814250Y-66068333D01*
X1973000Y-65909583D01*
X1973000Y-64885333D01*
X2227000Y-64885333D01*
X2227000Y-65909583D01*
X2385750Y-66068333D01*
X4200000Y-66071405D01*
X4324482Y-66059145D01*
X4444180Y-66022835D01*
X4554494Y-65963870D01*
X4651185Y-65884518D01*
X4730537Y-65787827D01*
X4789502Y-65677513D01*
X4825812Y-65557815D01*
X4838072Y-65433333D01*
X95061928Y-65433333D01*
X95074188Y-65557815D01*
X95110498Y-65677513D01*
X95169463Y-65787827D01*
X95248815Y-65884518D01*
X95345506Y-65963870D01*
X95455820Y-66022835D01*
X95575518Y-66059145D01*
X95700000Y-66071405D01*
X97514250Y-66068333D01*
X97673000Y-65909583D01*
X97673000Y-64885333D01*
X95223750Y-64885333D01*
X95065000Y-65044083D01*
X95061928Y-65433333D01*
X4838072Y-65433333D01*
X4835000Y-65044083D01*
X4676250Y-64885333D01*
X2227000Y-64885333D01*
X1973000Y-64885333D01*
X1953000Y-64885333D01*
X1953000Y-64631333D01*
X1973000Y-64631333D01*
X1973000Y-63607083D01*
X2227000Y-63607083D01*
X2227000Y-64631333D01*
X4676250Y-64631333D01*
X4835000Y-64472583D01*
X4838072Y-64083333D01*
X95061928Y-64083333D01*
X95065000Y-64472583D01*
X95223750Y-64631333D01*
X97673000Y-64631333D01*
X97673000Y-63607083D01*
X97514250Y-63448333D01*
X95700000Y-63445261D01*
X95575518Y-63457521D01*
X95455820Y-63493831D01*
X95345506Y-63552796D01*
X95248815Y-63632148D01*
X95169463Y-63728839D01*
X95110498Y-63839153D01*
X95074188Y-63958851D01*
X95061928Y-64083333D01*
X4838072Y-64083333D01*
X4825812Y-63958851D01*
X4789502Y-63839153D01*
X4730537Y-63728839D01*
X4651185Y-63632148D01*
X4554494Y-63552796D01*
X4444180Y-63493831D01*
X4324482Y-63457521D01*
X4200000Y-63445261D01*
X2385750Y-63448333D01*
X2227000Y-63607083D01*
X1973000Y-63607083D01*
X1814250Y-63448333D01*
X660000Y-63446379D01*
X660000Y-60420287D01*
X1814250Y-60418333D01*
X1973000Y-60259583D01*
X1973000Y-59235333D01*
X2227000Y-59235333D01*
X2227000Y-60259583D01*
X2385750Y-60418333D01*
X4200000Y-60421405D01*
X4324482Y-60409145D01*
X4444180Y-60372835D01*
X4554494Y-60313870D01*
X4651185Y-60234518D01*
X4730537Y-60137827D01*
X4789502Y-60027513D01*
X4825812Y-59907815D01*
X4838072Y-59783333D01*
X95061928Y-59783333D01*
X95074188Y-59907815D01*
X95110498Y-60027513D01*
X95169463Y-60137827D01*
X95248815Y-60234518D01*
X95345506Y-60313870D01*
X95455820Y-60372835D01*
X95575518Y-60409145D01*
X95700000Y-60421405D01*
X97514250Y-60418333D01*
X97673000Y-60259583D01*
X97673000Y-59235333D01*
X95223750Y-59235333D01*
X95065000Y-59394083D01*
X95061928Y-59783333D01*
X4838072Y-59783333D01*
X4835000Y-59394083D01*
X4676250Y-59235333D01*
X2227000Y-59235333D01*
X1973000Y-59235333D01*
X1953000Y-59235333D01*
X1953000Y-58981333D01*
X1973000Y-58981333D01*
X1973000Y-57957083D01*
X2227000Y-57957083D01*
X2227000Y-58981333D01*
X4676250Y-58981333D01*
X4835000Y-58822583D01*
X4838072Y-58433333D01*
X95061928Y-58433333D01*
X95065000Y-58822583D01*
X95223750Y-58981333D01*
X97673000Y-58981333D01*
X97673000Y-57957083D01*
X97514250Y-57798333D01*
X95700000Y-57795261D01*
X95575518Y-57807521D01*
X95455820Y-57843831D01*
X95345506Y-57902796D01*
X95248815Y-57982148D01*
X95169463Y-58078839D01*
X95110498Y-58189153D01*
X95074188Y-58308851D01*
X95061928Y-58433333D01*
X4838072Y-58433333D01*
X4825812Y-58308851D01*
X4789502Y-58189153D01*
X4730537Y-58078839D01*
X4651185Y-57982148D01*
X4554494Y-57902796D01*
X4444180Y-57843831D01*
X4324482Y-57807521D01*
X4200000Y-57795261D01*
X2385750Y-57798333D01*
X2227000Y-57957083D01*
X1973000Y-57957083D01*
X1814250Y-57798333D01*
X660000Y-57796379D01*
X660000Y-54136954D01*
X1814250Y-54135000D01*
X1973000Y-53976250D01*
X1973000Y-52952000D01*
X2227000Y-52952000D01*
X2227000Y-53976250D01*
X2385750Y-54135000D01*
X4200000Y-54138072D01*
X4324482Y-54125812D01*
X4444180Y-54089502D01*
X4554494Y-54030537D01*
X4651185Y-53951185D01*
X4730537Y-53854494D01*
X4789502Y-53744180D01*
X4825812Y-53624482D01*
X4838072Y-53500000D01*
X95061928Y-53500000D01*
X95074188Y-53624482D01*
X95110498Y-53744180D01*
X95169463Y-53854494D01*
X95248815Y-53951185D01*
X95345506Y-54030537D01*
X95455820Y-54089502D01*
X95575518Y-54125812D01*
X95700000Y-54138072D01*
X97514250Y-54135000D01*
X97673000Y-53976250D01*
X97673000Y-52952000D01*
X95223750Y-52952000D01*
X95065000Y-53110750D01*
X95061928Y-53500000D01*
X4838072Y-53500000D01*
X4835000Y-53110750D01*
X4676250Y-52952000D01*
X2227000Y-52952000D01*
X1973000Y-52952000D01*
X1953000Y-52952000D01*
X1953000Y-52698000D01*
X1973000Y-52698000D01*
X1973000Y-51673750D01*
X2227000Y-51673750D01*
X2227000Y-52698000D01*
X4676250Y-52698000D01*
X4835000Y-52539250D01*
X4838072Y-52150000D01*
X95061928Y-52150000D01*
X95065000Y-52539250D01*
X95223750Y-52698000D01*
X97673000Y-52698000D01*
X97673000Y-51673750D01*
X97514250Y-51515000D01*
X95700000Y-51511928D01*
X95575518Y-51524188D01*
X95455820Y-51560498D01*
X95345506Y-51619463D01*
X95248815Y-51698815D01*
X95169463Y-51795506D01*
X95110498Y-51905820D01*
X95074188Y-52025518D01*
X95061928Y-52150000D01*
X4838072Y-52150000D01*
X4825812Y-52025518D01*
X4789502Y-51905820D01*
X4730537Y-51795506D01*
X4651185Y-51698815D01*
X4554494Y-51619463D01*
X4444180Y-51560498D01*
X4324482Y-51524188D01*
X4200000Y-51511928D01*
X2385750Y-51515000D01*
X2227000Y-51673750D01*
X1973000Y-51673750D01*
X1814250Y-51515000D01*
X660000Y-51513046D01*
X660000Y-48486954D01*
X1814250Y-48485000D01*
X1973000Y-48326250D01*
X1973000Y-47302000D01*
X2227000Y-47302000D01*
X2227000Y-48326250D01*
X2385750Y-48485000D01*
X4200000Y-48488072D01*
X4324482Y-48475812D01*
X4444180Y-48439502D01*
X4554494Y-48380537D01*
X4651185Y-48301185D01*
X4730537Y-48204494D01*
X4789502Y-48094180D01*
X4825812Y-47974482D01*
X4838072Y-47850000D01*
X95061928Y-47850000D01*
X95074188Y-47974482D01*
X95110498Y-48094180D01*
X95169463Y-48204494D01*
X95248815Y-48301185D01*
X95345506Y-48380537D01*
X95455820Y-48439502D01*
X95575518Y-48475812D01*
X95700000Y-48488072D01*
X97514250Y-48485000D01*
X97673000Y-48326250D01*
X97673000Y-47302000D01*
X95223750Y-47302000D01*
X95065000Y-47460750D01*
X95061928Y-47850000D01*
X4838072Y-47850000D01*
X4835000Y-47460750D01*
X4676250Y-47302000D01*
X2227000Y-47302000D01*
X1973000Y-47302000D01*
X1953000Y-47302000D01*
X1953000Y-47048000D01*
X1973000Y-47048000D01*
X1973000Y-46023750D01*
X2227000Y-46023750D01*
X2227000Y-47048000D01*
X4676250Y-47048000D01*
X4835000Y-46889250D01*
X4838072Y-46500000D01*
X95061928Y-46500000D01*
X95065000Y-46889250D01*
X95223750Y-47048000D01*
X97673000Y-47048000D01*
X97673000Y-46023750D01*
X97514250Y-45865000D01*
X95700000Y-45861928D01*
X95575518Y-45874188D01*
X95455820Y-45910498D01*
X95345506Y-45969463D01*
X95248815Y-46048815D01*
X95169463Y-46145506D01*
X95110498Y-46255820D01*
X95074188Y-46375518D01*
X95061928Y-46500000D01*
X4838072Y-46500000D01*
X4825812Y-46375518D01*
X4789502Y-46255820D01*
X4730537Y-46145506D01*
X4651185Y-46048815D01*
X4554494Y-45969463D01*
X4444180Y-45910498D01*
X4324482Y-45874188D01*
X4200000Y-45861928D01*
X2385750Y-45865000D01*
X2227000Y-46023750D01*
X1973000Y-46023750D01*
X1814250Y-45865000D01*
X660000Y-45863046D01*
X660000Y-44127000D01*
X99340000Y-44127000D01*
X99340000Y-45862876D01*
G37*
X99340000Y-45862876D02*
X98085750Y-45865000D01*
X97927000Y-46023750D01*
X97927000Y-47048000D01*
X97947000Y-47048000D01*
X97947000Y-47302000D01*
X97927000Y-47302000D01*
X97927000Y-48326250D01*
X98085750Y-48485000D01*
X99340000Y-48487124D01*
X99340001Y-51512876D01*
X98085750Y-51515000D01*
X97927000Y-51673750D01*
X97927000Y-52698000D01*
X97947000Y-52698000D01*
X97947000Y-52952000D01*
X97927000Y-52952000D01*
X97927000Y-53976250D01*
X98085750Y-54135000D01*
X99340001Y-54137124D01*
X99340001Y-57796209D01*
X98085750Y-57798333D01*
X97927000Y-57957083D01*
X97927000Y-58981333D01*
X97947000Y-58981333D01*
X97947000Y-59235333D01*
X97927000Y-59235333D01*
X97927000Y-60259583D01*
X98085750Y-60418333D01*
X99340001Y-60420457D01*
X99340001Y-63446209D01*
X98085750Y-63448333D01*
X97927000Y-63607083D01*
X97927000Y-64631333D01*
X97947000Y-64631333D01*
X97947000Y-64885333D01*
X97927000Y-64885333D01*
X97927000Y-65909583D01*
X98085750Y-66068333D01*
X99340001Y-66070457D01*
X99340001Y-69729542D01*
X98085750Y-69731666D01*
X97927000Y-69890416D01*
X97927000Y-70914666D01*
X97947000Y-70914666D01*
X97947000Y-71168666D01*
X97927000Y-71168666D01*
X97927000Y-72192916D01*
X98085750Y-72351666D01*
X99340001Y-72353790D01*
X99340001Y-75379542D01*
X98085750Y-75381666D01*
X97927000Y-75540416D01*
X97927000Y-76564666D01*
X97947000Y-76564666D01*
X97947000Y-76818666D01*
X97927000Y-76818666D01*
X97927000Y-77842916D01*
X98085750Y-78001666D01*
X99340001Y-78003790D01*
X99340001Y-81662876D01*
X98085750Y-81665000D01*
X97927000Y-81823750D01*
X97927000Y-82848000D01*
X97947000Y-82848000D01*
X97947000Y-83102000D01*
X97927000Y-83102000D01*
X97927000Y-84126250D01*
X98085750Y-84285000D01*
X99340001Y-84287124D01*
X99340001Y-87312876D01*
X98085750Y-87315000D01*
X97927000Y-87473750D01*
X97927000Y-88498000D01*
X97947000Y-88498000D01*
X97947000Y-88752000D01*
X97927000Y-88752000D01*
X97927000Y-89776250D01*
X98085750Y-89935000D01*
X99340001Y-89937124D01*
X99340001Y-94007500D01*
X99300881Y-93978724D01*
X96779605Y-96500000D01*
X99300881Y-99021276D01*
X99340001Y-98992500D01*
X99340001Y-99340000D01*
X99018943Y-99340000D01*
X99121276Y-99200881D01*
X96600000Y-96679605D01*
X94078724Y-99200881D01*
X94181057Y-99340000D01*
X5478034Y-99340000D01*
X5520670Y-99317555D01*
X5561088Y-99290548D01*
X5921276Y-98800881D01*
X3400000Y-96279605D01*
X878724Y-98800881D01*
X1238912Y-99290548D01*
X1330043Y-99340000D01*
X660000Y-99340000D01*
X660000Y-98592501D01*
X699119Y-98621276D01*
X3220395Y-96100000D01*
X3579605Y-96100000D01*
X6100881Y-98621276D01*
X6590548Y-98261088D01*
X6950849Y-97597118D01*
X7174694Y-96875615D01*
X7216631Y-96475695D01*
X92746520Y-96475695D01*
X92815822Y-97227938D01*
X93030548Y-97952208D01*
X93382445Y-98620670D01*
X93409452Y-98661088D01*
X93899119Y-99021276D01*
X96420395Y-96500000D01*
X93899119Y-93978724D01*
X93409452Y-94338912D01*
X93049151Y-95002882D01*
X92825306Y-95724385D01*
X92746520Y-96475695D01*
X7216631Y-96475695D01*
X7253480Y-96124305D01*
X7184178Y-95372062D01*
X6969452Y-94647792D01*
X6617555Y-93979330D01*
X6590548Y-93938912D01*
X6400503Y-93799119D01*
X94078724Y-93799119D01*
X96600000Y-96320395D01*
X99121276Y-93799119D01*
X98761088Y-93309452D01*
X98097118Y-92949151D01*
X97375615Y-92725306D01*
X96624305Y-92646520D01*
X95872062Y-92715822D01*
X95147792Y-92930548D01*
X94479330Y-93282445D01*
X94438912Y-93309452D01*
X94078724Y-93799119D01*
X6400503Y-93799119D01*
X6100881Y-93578724D01*
X3579605Y-96100000D01*
X3220395Y-96100000D01*
X699119Y-93578724D01*
X660000Y-93607499D01*
X660000Y-93399119D01*
X878724Y-93399119D01*
X3400000Y-95920395D01*
X5921276Y-93399119D01*
X5561088Y-92909452D01*
X4897118Y-92549151D01*
X4175615Y-92325306D01*
X3424305Y-92246520D01*
X2672062Y-92315822D01*
X1947792Y-92530548D01*
X1279330Y-92882445D01*
X1238912Y-92909452D01*
X878724Y-93399119D01*
X660000Y-93399119D01*
X660000Y-89936954D01*
X1814250Y-89935000D01*
X1973000Y-89776250D01*
X1973000Y-88752000D01*
X2227000Y-88752000D01*
X2227000Y-89776250D01*
X2385750Y-89935000D01*
X4200000Y-89938072D01*
X4324482Y-89925812D01*
X4444180Y-89889502D01*
X4554494Y-89830537D01*
X4651185Y-89751185D01*
X4730537Y-89654494D01*
X4789502Y-89544180D01*
X4825812Y-89424482D01*
X4838072Y-89300000D01*
X95061928Y-89300000D01*
X95074188Y-89424482D01*
X95110498Y-89544180D01*
X95169463Y-89654494D01*
X95248815Y-89751185D01*
X95345506Y-89830537D01*
X95455820Y-89889502D01*
X95575518Y-89925812D01*
X95700000Y-89938072D01*
X97514250Y-89935000D01*
X97673000Y-89776250D01*
X97673000Y-88752000D01*
X95223750Y-88752000D01*
X95065000Y-88910750D01*
X95061928Y-89300000D01*
X4838072Y-89300000D01*
X4835000Y-88910750D01*
X4676250Y-88752000D01*
X2227000Y-88752000D01*
X1973000Y-88752000D01*
X1953000Y-88752000D01*
X1953000Y-88498000D01*
X1973000Y-88498000D01*
X1973000Y-87473750D01*
X2227000Y-87473750D01*
X2227000Y-88498000D01*
X4676250Y-88498000D01*
X4835000Y-88339250D01*
X4838072Y-87950000D01*
X95061928Y-87950000D01*
X95065000Y-88339250D01*
X95223750Y-88498000D01*
X97673000Y-88498000D01*
X97673000Y-87473750D01*
X97514250Y-87315000D01*
X95700000Y-87311928D01*
X95575518Y-87324188D01*
X95455820Y-87360498D01*
X95345506Y-87419463D01*
X95248815Y-87498815D01*
X95169463Y-87595506D01*
X95110498Y-87705820D01*
X95074188Y-87825518D01*
X95061928Y-87950000D01*
X4838072Y-87950000D01*
X4825812Y-87825518D01*
X4789502Y-87705820D01*
X4730537Y-87595506D01*
X4651185Y-87498815D01*
X4554494Y-87419463D01*
X4444180Y-87360498D01*
X4324482Y-87324188D01*
X4200000Y-87311928D01*
X2385750Y-87315000D01*
X2227000Y-87473750D01*
X1973000Y-87473750D01*
X1814250Y-87315000D01*
X660000Y-87313046D01*
X660000Y-84286954D01*
X1814250Y-84285000D01*
X1973000Y-84126250D01*
X1973000Y-83102000D01*
X2227000Y-83102000D01*
X2227000Y-84126250D01*
X2385750Y-84285000D01*
X4200000Y-84288072D01*
X4324482Y-84275812D01*
X4444180Y-84239502D01*
X4554494Y-84180537D01*
X4651185Y-84101185D01*
X4730537Y-84004494D01*
X4789502Y-83894180D01*
X4825812Y-83774482D01*
X4838072Y-83650000D01*
X95061928Y-83650000D01*
X95074188Y-83774482D01*
X95110498Y-83894180D01*
X95169463Y-84004494D01*
X95248815Y-84101185D01*
X95345506Y-84180537D01*
X95455820Y-84239502D01*
X95575518Y-84275812D01*
X95700000Y-84288072D01*
X97514250Y-84285000D01*
X97673000Y-84126250D01*
X97673000Y-83102000D01*
X95223750Y-83102000D01*
X95065000Y-83260750D01*
X95061928Y-83650000D01*
X4838072Y-83650000D01*
X4835000Y-83260750D01*
X4676250Y-83102000D01*
X2227000Y-83102000D01*
X1973000Y-83102000D01*
X1953000Y-83102000D01*
X1953000Y-82848000D01*
X1973000Y-82848000D01*
X1973000Y-81823750D01*
X2227000Y-81823750D01*
X2227000Y-82848000D01*
X4676250Y-82848000D01*
X4835000Y-82689250D01*
X4838072Y-82300000D01*
X95061928Y-82300000D01*
X95065000Y-82689250D01*
X95223750Y-82848000D01*
X97673000Y-82848000D01*
X97673000Y-81823750D01*
X97514250Y-81665000D01*
X95700000Y-81661928D01*
X95575518Y-81674188D01*
X95455820Y-81710498D01*
X95345506Y-81769463D01*
X95248815Y-81848815D01*
X95169463Y-81945506D01*
X95110498Y-82055820D01*
X95074188Y-82175518D01*
X95061928Y-82300000D01*
X4838072Y-82300000D01*
X4825812Y-82175518D01*
X4789502Y-82055820D01*
X4730537Y-81945506D01*
X4651185Y-81848815D01*
X4554494Y-81769463D01*
X4444180Y-81710498D01*
X4324482Y-81674188D01*
X4200000Y-81661928D01*
X2385750Y-81665000D01*
X2227000Y-81823750D01*
X1973000Y-81823750D01*
X1814250Y-81665000D01*
X660000Y-81663046D01*
X660000Y-78003620D01*
X1814250Y-78001666D01*
X1973000Y-77842916D01*
X1973000Y-76818666D01*
X2227000Y-76818666D01*
X2227000Y-77842916D01*
X2385750Y-78001666D01*
X4200000Y-78004738D01*
X4324482Y-77992478D01*
X4444180Y-77956168D01*
X4554494Y-77897203D01*
X4651185Y-77817851D01*
X4730537Y-77721160D01*
X4789502Y-77610846D01*
X4825812Y-77491148D01*
X4838072Y-77366666D01*
X95061928Y-77366666D01*
X95074188Y-77491148D01*
X95110498Y-77610846D01*
X95169463Y-77721160D01*
X95248815Y-77817851D01*
X95345506Y-77897203D01*
X95455820Y-77956168D01*
X95575518Y-77992478D01*
X95700000Y-78004738D01*
X97514250Y-78001666D01*
X97673000Y-77842916D01*
X97673000Y-76818666D01*
X95223750Y-76818666D01*
X95065000Y-76977416D01*
X95061928Y-77366666D01*
X4838072Y-77366666D01*
X4835000Y-76977416D01*
X4676250Y-76818666D01*
X2227000Y-76818666D01*
X1973000Y-76818666D01*
X1953000Y-76818666D01*
X1953000Y-76564666D01*
X1973000Y-76564666D01*
X1973000Y-75540416D01*
X2227000Y-75540416D01*
X2227000Y-76564666D01*
X4676250Y-76564666D01*
X4835000Y-76405916D01*
X4838072Y-76016666D01*
X95061928Y-76016666D01*
X95065000Y-76405916D01*
X95223750Y-76564666D01*
X97673000Y-76564666D01*
X97673000Y-75540416D01*
X97514250Y-75381666D01*
X95700000Y-75378594D01*
X95575518Y-75390854D01*
X95455820Y-75427164D01*
X95345506Y-75486129D01*
X95248815Y-75565481D01*
X95169463Y-75662172D01*
X95110498Y-75772486D01*
X95074188Y-75892184D01*
X95061928Y-76016666D01*
X4838072Y-76016666D01*
X4825812Y-75892184D01*
X4789502Y-75772486D01*
X4730537Y-75662172D01*
X4651185Y-75565481D01*
X4554494Y-75486129D01*
X4444180Y-75427164D01*
X4324482Y-75390854D01*
X4200000Y-75378594D01*
X2385750Y-75381666D01*
X2227000Y-75540416D01*
X1973000Y-75540416D01*
X1814250Y-75381666D01*
X660000Y-75379712D01*
X660000Y-72353620D01*
X1814250Y-72351666D01*
X1973000Y-72192916D01*
X1973000Y-71168666D01*
X2227000Y-71168666D01*
X2227000Y-72192916D01*
X2385750Y-72351666D01*
X4200000Y-72354738D01*
X4324482Y-72342478D01*
X4444180Y-72306168D01*
X4554494Y-72247203D01*
X4651185Y-72167851D01*
X4730537Y-72071160D01*
X4789502Y-71960846D01*
X4825812Y-71841148D01*
X4838072Y-71716666D01*
X95061928Y-71716666D01*
X95074188Y-71841148D01*
X95110498Y-71960846D01*
X95169463Y-72071160D01*
X95248815Y-72167851D01*
X95345506Y-72247203D01*
X95455820Y-72306168D01*
X95575518Y-72342478D01*
X95700000Y-72354738D01*
X97514250Y-72351666D01*
X97673000Y-72192916D01*
X97673000Y-71168666D01*
X95223750Y-71168666D01*
X95065000Y-71327416D01*
X95061928Y-71716666D01*
X4838072Y-71716666D01*
X4835000Y-71327416D01*
X4676250Y-71168666D01*
X2227000Y-71168666D01*
X1973000Y-71168666D01*
X1953000Y-71168666D01*
X1953000Y-70914666D01*
X1973000Y-70914666D01*
X1973000Y-69890416D01*
X2227000Y-69890416D01*
X2227000Y-70914666D01*
X4676250Y-70914666D01*
X4835000Y-70755916D01*
X4838072Y-70366666D01*
X95061928Y-70366666D01*
X95065000Y-70755916D01*
X95223750Y-70914666D01*
X97673000Y-70914666D01*
X97673000Y-69890416D01*
X97514250Y-69731666D01*
X95700000Y-69728594D01*
X95575518Y-69740854D01*
X95455820Y-69777164D01*
X95345506Y-69836129D01*
X95248815Y-69915481D01*
X95169463Y-70012172D01*
X95110498Y-70122486D01*
X95074188Y-70242184D01*
X95061928Y-70366666D01*
X4838072Y-70366666D01*
X4825812Y-70242184D01*
X4789502Y-70122486D01*
X4730537Y-70012172D01*
X4651185Y-69915481D01*
X4554494Y-69836129D01*
X4444180Y-69777164D01*
X4324482Y-69740854D01*
X4200000Y-69728594D01*
X2385750Y-69731666D01*
X2227000Y-69890416D01*
X1973000Y-69890416D01*
X1814250Y-69731666D01*
X660000Y-69729712D01*
X660000Y-66070287D01*
X1814250Y-66068333D01*
X1973000Y-65909583D01*
X1973000Y-64885333D01*
X2227000Y-64885333D01*
X2227000Y-65909583D01*
X2385750Y-66068333D01*
X4200000Y-66071405D01*
X4324482Y-66059145D01*
X4444180Y-66022835D01*
X4554494Y-65963870D01*
X4651185Y-65884518D01*
X4730537Y-65787827D01*
X4789502Y-65677513D01*
X4825812Y-65557815D01*
X4838072Y-65433333D01*
X95061928Y-65433333D01*
X95074188Y-65557815D01*
X95110498Y-65677513D01*
X95169463Y-65787827D01*
X95248815Y-65884518D01*
X95345506Y-65963870D01*
X95455820Y-66022835D01*
X95575518Y-66059145D01*
X95700000Y-66071405D01*
X97514250Y-66068333D01*
X97673000Y-65909583D01*
X97673000Y-64885333D01*
X95223750Y-64885333D01*
X95065000Y-65044083D01*
X95061928Y-65433333D01*
X4838072Y-65433333D01*
X4835000Y-65044083D01*
X4676250Y-64885333D01*
X2227000Y-64885333D01*
X1973000Y-64885333D01*
X1953000Y-64885333D01*
X1953000Y-64631333D01*
X1973000Y-64631333D01*
X1973000Y-63607083D01*
X2227000Y-63607083D01*
X2227000Y-64631333D01*
X4676250Y-64631333D01*
X4835000Y-64472583D01*
X4838072Y-64083333D01*
X95061928Y-64083333D01*
X95065000Y-64472583D01*
X95223750Y-64631333D01*
X97673000Y-64631333D01*
X97673000Y-63607083D01*
X97514250Y-63448333D01*
X95700000Y-63445261D01*
X95575518Y-63457521D01*
X95455820Y-63493831D01*
X95345506Y-63552796D01*
X95248815Y-63632148D01*
X95169463Y-63728839D01*
X95110498Y-63839153D01*
X95074188Y-63958851D01*
X95061928Y-64083333D01*
X4838072Y-64083333D01*
X4825812Y-63958851D01*
X4789502Y-63839153D01*
X4730537Y-63728839D01*
X4651185Y-63632148D01*
X4554494Y-63552796D01*
X4444180Y-63493831D01*
X4324482Y-63457521D01*
X4200000Y-63445261D01*
X2385750Y-63448333D01*
X2227000Y-63607083D01*
X1973000Y-63607083D01*
X1814250Y-63448333D01*
X660000Y-63446379D01*
X660000Y-60420287D01*
X1814250Y-60418333D01*
X1973000Y-60259583D01*
X1973000Y-59235333D01*
X2227000Y-59235333D01*
X2227000Y-60259583D01*
X2385750Y-60418333D01*
X4200000Y-60421405D01*
X4324482Y-60409145D01*
X4444180Y-60372835D01*
X4554494Y-60313870D01*
X4651185Y-60234518D01*
X4730537Y-60137827D01*
X4789502Y-60027513D01*
X4825812Y-59907815D01*
X4838072Y-59783333D01*
X95061928Y-59783333D01*
X95074188Y-59907815D01*
X95110498Y-60027513D01*
X95169463Y-60137827D01*
X95248815Y-60234518D01*
X95345506Y-60313870D01*
X95455820Y-60372835D01*
X95575518Y-60409145D01*
X95700000Y-60421405D01*
X97514250Y-60418333D01*
X97673000Y-60259583D01*
X97673000Y-59235333D01*
X95223750Y-59235333D01*
X95065000Y-59394083D01*
X95061928Y-59783333D01*
X4838072Y-59783333D01*
X4835000Y-59394083D01*
X4676250Y-59235333D01*
X2227000Y-59235333D01*
X1973000Y-59235333D01*
X1953000Y-59235333D01*
X1953000Y-58981333D01*
X1973000Y-58981333D01*
X1973000Y-57957083D01*
X2227000Y-57957083D01*
X2227000Y-58981333D01*
X4676250Y-58981333D01*
X4835000Y-58822583D01*
X4838072Y-58433333D01*
X95061928Y-58433333D01*
X95065000Y-58822583D01*
X95223750Y-58981333D01*
X97673000Y-58981333D01*
X97673000Y-57957083D01*
X97514250Y-57798333D01*
X95700000Y-57795261D01*
X95575518Y-57807521D01*
X95455820Y-57843831D01*
X95345506Y-57902796D01*
X95248815Y-57982148D01*
X95169463Y-58078839D01*
X95110498Y-58189153D01*
X95074188Y-58308851D01*
X95061928Y-58433333D01*
X4838072Y-58433333D01*
X4825812Y-58308851D01*
X4789502Y-58189153D01*
X4730537Y-58078839D01*
X4651185Y-57982148D01*
X4554494Y-57902796D01*
X4444180Y-57843831D01*
X4324482Y-57807521D01*
X4200000Y-57795261D01*
X2385750Y-57798333D01*
X2227000Y-57957083D01*
X1973000Y-57957083D01*
X1814250Y-57798333D01*
X660000Y-57796379D01*
X660000Y-54136954D01*
X1814250Y-54135000D01*
X1973000Y-53976250D01*
X1973000Y-52952000D01*
X2227000Y-52952000D01*
X2227000Y-53976250D01*
X2385750Y-54135000D01*
X4200000Y-54138072D01*
X4324482Y-54125812D01*
X4444180Y-54089502D01*
X4554494Y-54030537D01*
X4651185Y-53951185D01*
X4730537Y-53854494D01*
X4789502Y-53744180D01*
X4825812Y-53624482D01*
X4838072Y-53500000D01*
X95061928Y-53500000D01*
X95074188Y-53624482D01*
X95110498Y-53744180D01*
X95169463Y-53854494D01*
X95248815Y-53951185D01*
X95345506Y-54030537D01*
X95455820Y-54089502D01*
X95575518Y-54125812D01*
X95700000Y-54138072D01*
X97514250Y-54135000D01*
X97673000Y-53976250D01*
X97673000Y-52952000D01*
X95223750Y-52952000D01*
X95065000Y-53110750D01*
X95061928Y-53500000D01*
X4838072Y-53500000D01*
X4835000Y-53110750D01*
X4676250Y-52952000D01*
X2227000Y-52952000D01*
X1973000Y-52952000D01*
X1953000Y-52952000D01*
X1953000Y-52698000D01*
X1973000Y-52698000D01*
X1973000Y-51673750D01*
X2227000Y-51673750D01*
X2227000Y-52698000D01*
X4676250Y-52698000D01*
X4835000Y-52539250D01*
X4838072Y-52150000D01*
X95061928Y-52150000D01*
X95065000Y-52539250D01*
X95223750Y-52698000D01*
X97673000Y-52698000D01*
X97673000Y-51673750D01*
X97514250Y-51515000D01*
X95700000Y-51511928D01*
X95575518Y-51524188D01*
X95455820Y-51560498D01*
X95345506Y-51619463D01*
X95248815Y-51698815D01*
X95169463Y-51795506D01*
X95110498Y-51905820D01*
X95074188Y-52025518D01*
X95061928Y-52150000D01*
X4838072Y-52150000D01*
X4825812Y-52025518D01*
X4789502Y-51905820D01*
X4730537Y-51795506D01*
X4651185Y-51698815D01*
X4554494Y-51619463D01*
X4444180Y-51560498D01*
X4324482Y-51524188D01*
X4200000Y-51511928D01*
X2385750Y-51515000D01*
X2227000Y-51673750D01*
X1973000Y-51673750D01*
X1814250Y-51515000D01*
X660000Y-51513046D01*
X660000Y-48486954D01*
X1814250Y-48485000D01*
X1973000Y-48326250D01*
X1973000Y-47302000D01*
X2227000Y-47302000D01*
X2227000Y-48326250D01*
X2385750Y-48485000D01*
X4200000Y-48488072D01*
X4324482Y-48475812D01*
X4444180Y-48439502D01*
X4554494Y-48380537D01*
X4651185Y-48301185D01*
X4730537Y-48204494D01*
X4789502Y-48094180D01*
X4825812Y-47974482D01*
X4838072Y-47850000D01*
X95061928Y-47850000D01*
X95074188Y-47974482D01*
X95110498Y-48094180D01*
X95169463Y-48204494D01*
X95248815Y-48301185D01*
X95345506Y-48380537D01*
X95455820Y-48439502D01*
X95575518Y-48475812D01*
X95700000Y-48488072D01*
X97514250Y-48485000D01*
X97673000Y-48326250D01*
X97673000Y-47302000D01*
X95223750Y-47302000D01*
X95065000Y-47460750D01*
X95061928Y-47850000D01*
X4838072Y-47850000D01*
X4835000Y-47460750D01*
X4676250Y-47302000D01*
X2227000Y-47302000D01*
X1973000Y-47302000D01*
X1953000Y-47302000D01*
X1953000Y-47048000D01*
X1973000Y-47048000D01*
X1973000Y-46023750D01*
X2227000Y-46023750D01*
X2227000Y-47048000D01*
X4676250Y-47048000D01*
X4835000Y-46889250D01*
X4838072Y-46500000D01*
X95061928Y-46500000D01*
X95065000Y-46889250D01*
X95223750Y-47048000D01*
X97673000Y-47048000D01*
X97673000Y-46023750D01*
X97514250Y-45865000D01*
X95700000Y-45861928D01*
X95575518Y-45874188D01*
X95455820Y-45910498D01*
X95345506Y-45969463D01*
X95248815Y-46048815D01*
X95169463Y-46145506D01*
X95110498Y-46255820D01*
X95074188Y-46375518D01*
X95061928Y-46500000D01*
X4838072Y-46500000D01*
X4825812Y-46375518D01*
X4789502Y-46255820D01*
X4730537Y-46145506D01*
X4651185Y-46048815D01*
X4554494Y-45969463D01*
X4444180Y-45910498D01*
X4324482Y-45874188D01*
X4200000Y-45861928D01*
X2385750Y-45865000D01*
X2227000Y-46023750D01*
X1973000Y-46023750D01*
X1814250Y-45865000D01*
X660000Y-45863046D01*
X660000Y-44127000D01*
X99340000Y-44127000D01*
X99340000Y-45862876D01*
M02*
