M48
; DRILL file {KiCad 5.1.5+dfsg1-2build2} date Sun 28 Feb 2021 01:03:37 PM EST
; FORMAT={-:-/ absolute / metric / decimal}
; #@! TF.CreationDate,2021-02-28T13:03:37-05:00
; #@! TF.GenerationSoftware,Kicad,Pcbnew,5.1.5+dfsg1-2build2
FMAT,2
METRIC
T1C0.400
T2C0.600
T3C0.650
T4C0.800
T5C0.850
T6C1.000
T7C1.100
T8C3.200
%
G90
G05
T1
X5.4Y-48.6
X5.4Y-51.4
X5.4Y-60.6
X5.4Y-63.2
X5.4Y-72.4
X5.4Y-75.2
X5.4Y-84.0
X5.4Y-87.6
X10.333Y-48.6
X10.333Y-51.4
X10.333Y-60.6
X10.333Y-63.2
X10.333Y-72.4
X10.333Y-75.2
X10.333Y-84.0
X10.333Y-87.6
X15.267Y-48.6
X15.267Y-51.4
X15.267Y-60.6
X15.267Y-63.2
X15.267Y-72.4
X15.267Y-75.2
X15.267Y-84.0
X15.267Y-87.6
X16.47Y-2.77
X17.49Y-2.83
X18.65Y-8.13
X20.2Y-48.6
X20.2Y-51.4
X20.2Y-60.6
X20.2Y-63.2
X20.2Y-72.4
X20.2Y-75.2
X20.2Y-84.0
X20.2Y-87.6
X22.7Y-31.0
X23.694Y-30.89
X25.133Y-48.6
X25.133Y-51.4
X25.133Y-60.6
X25.133Y-63.2
X25.133Y-72.4
X25.133Y-75.2
X25.133Y-84.0
X25.133Y-87.6
X29.8Y-31.3
X30.067Y-48.6
X30.067Y-51.4
X30.067Y-60.6
X30.067Y-63.2
X30.067Y-72.4
X30.067Y-75.2
X30.067Y-84.0
X30.067Y-87.6
X30.1Y-32.9
X34.6Y-29.7
X35.0Y-48.6
X35.0Y-51.4
X35.0Y-60.6
X35.0Y-63.2
X35.0Y-72.4
X35.0Y-75.2
X35.0Y-84.0
X35.0Y-87.6
X36.2Y-24.3
X36.2Y-25.3
X36.3Y-23.2
X38.5Y-27.9
X39.1Y-32.8
X39.4Y-28.7
X39.4Y-29.7
X39.933Y-48.6
X39.933Y-51.4
X39.933Y-60.6
X39.933Y-63.2
X39.933Y-72.4
X39.933Y-75.2
X39.933Y-84.0
X39.933Y-87.6
X44.1Y-13.3
X44.867Y-48.6
X44.867Y-51.4
X44.867Y-60.6
X44.867Y-63.2
X44.867Y-72.4
X44.867Y-75.2
X44.867Y-84.0
X44.867Y-87.6
X44.9Y-34.5
X45.1Y-13.3
X45.31Y-4.78
X45.33Y-12.11
X45.9Y-26.3
X45.9Y-34.5
X46.1Y-29.8
X46.406Y-27.447
X47.4Y-34.6
X47.8Y-38.7
X47.9Y-18.1
X47.9Y-35.5
X48.4Y-34.4
X49.627Y-33.8
X49.8Y-48.6
X49.8Y-51.4
X49.8Y-60.6
X49.8Y-63.2
X49.8Y-72.4
X49.8Y-75.2
X49.8Y-84.0
X49.8Y-87.6
X51.7Y-38.8
X52.1Y-33.1
X52.2Y-12.37
X53.3Y-38.7
X53.7Y-34.5
X54.3Y-35.7
X54.7Y-34.5
X54.733Y-48.6
X54.733Y-51.4
X54.733Y-60.6
X54.733Y-63.2
X54.733Y-72.4
X54.733Y-75.2
X54.733Y-84.0
X54.733Y-87.6
X56.5Y-28.4
X56.7Y-25.9
X58.17Y-34.05
X58.983Y-34.632
X59.667Y-48.6
X59.667Y-51.4
X59.667Y-60.6
X59.667Y-63.2
X59.667Y-72.4
X59.667Y-75.2
X59.667Y-84.0
X59.667Y-87.6
X60.34Y-15.52
X60.42Y-16.56
X60.8Y-24.8
X61.0Y-25.8
X61.952Y-20.108
X62.0Y-38.2
X62.07Y-28.81
X62.136Y-29.808
X62.41Y-17.03
X62.691Y-19.361
X64.6Y-48.6
X64.6Y-51.4
X64.6Y-60.6
X64.6Y-63.2
X64.6Y-72.4
X64.6Y-75.2
X64.6Y-84.0
X64.6Y-87.6
X69.533Y-48.6
X69.533Y-51.4
X69.533Y-60.6
X69.533Y-63.2
X69.533Y-72.4
X69.533Y-75.2
X69.533Y-84.0
X69.533Y-87.6
X72.7Y-27.447
X74.1Y-26.7
X74.467Y-48.6
X74.467Y-51.4
X74.467Y-60.6
X74.467Y-63.2
X74.467Y-72.4
X74.467Y-75.2
X74.467Y-84.0
X74.467Y-87.6
X77.0Y-35.2
X78.75Y-22.39
X78.8Y-17.9
X79.4Y-48.6
X79.4Y-51.4
X79.4Y-60.6
X79.4Y-63.2
X79.4Y-72.4
X79.4Y-75.2
X79.4Y-84.0
X79.4Y-87.6
X79.6Y-23.8
X80.2Y-18.0
X81.84Y-38.06
X83.06Y-8.35
X83.2Y-25.647
X84.333Y-48.6
X84.333Y-51.4
X84.333Y-60.6
X84.333Y-63.2
X84.333Y-72.4
X84.333Y-75.2
X84.333Y-84.0
X84.333Y-87.6
X85.33Y-12.3
X85.49Y-23.77
X85.733Y-7.97
X86.38Y-29.66
X86.488Y-23.836
X88.1Y-24.9
X89.1Y-10.46
X89.267Y-48.6
X89.267Y-51.4
X89.267Y-60.6
X89.267Y-63.2
X89.267Y-72.4
X89.267Y-75.2
X89.267Y-84.0
X89.267Y-87.6
X94.2Y-48.6
X94.2Y-51.4
X94.2Y-60.6
X94.2Y-63.2
X94.2Y-72.4
X94.2Y-75.2
X94.2Y-84.0
X94.2Y-87.6
T3
X37.73Y-5.02
X37.73Y-6.29
X37.73Y-7.56
X37.73Y-8.83
X37.73Y-10.1
X39.0Y-5.02
X39.0Y-6.29
X39.0Y-7.56
X39.0Y-8.83
X39.0Y-10.1
T4
X22.58Y-9.76
X22.58Y-25.0
X30.2Y-9.76
X30.2Y-25.0
T5
X44.9Y-3.262
X49.9Y-3.262
T6
X24.91Y-3.46
X27.45Y-3.46
X68.06Y-30.0
X70.6Y-30.0
X73.14Y-30.0
T7
X34.6Y-35.4
X34.6Y-39.9
X41.1Y-35.4
X41.1Y-39.9
T8
X96.4Y-3.6
X96.6Y-96.5
X3.6Y-3.8
X3.4Y-96.1
T2
G00X43.9Y-0.912
M15
G01X43.9Y-0.212
M16
G05
G00X50.9Y-0.212
M15
G01X50.9Y-0.912
M16
G05
T6
G00X63.5Y-10.2
M15
G01X63.5Y-12.2
M16
G05
G00X69.2Y-8.2
M15
G01X67.2Y-8.2
M16
G05
G00X69.2Y-14.2
M15
G01X67.2Y-14.2
M16
G05
T0
M30
