G04 #@! TF.GenerationSoftware,KiCad,Pcbnew,5.1.5+dfsg1-2build2*
G04 #@! TF.CreationDate,2021-02-27T17:19:35-05:00*
G04 #@! TF.ProjectId,gpsdo,67707364-6f2e-46b6-9963-61645f706362,rev?*
G04 #@! TF.SameCoordinates,Original*
G04 #@! TF.FileFunction,Copper,L2,Inr*
G04 #@! TF.FilePolarity,Positive*
%FSLAX46Y46*%
G04 Gerber Fmt 4.6, Leading zero omitted, Abs format (unit mm)*
G04 Created by KiCad (PCBNEW 5.1.5+dfsg1-2build2) date 2021-02-27 17:19:35*
%MOMM*%
%LPD*%
G04 APERTURE LIST*
%ADD10C,6.400000*%
%ADD11R,1.000000X1.000000*%
%ADD12O,1.000000X1.000000*%
%ADD13R,3.500000X3.500000*%
%ADD14C,0.100000*%
%ADD15C,1.450000*%
%ADD16O,1.200000X1.900000*%
%ADD17R,1.700000X1.700000*%
%ADD18O,1.700000X1.700000*%
%ADD19C,2.000000*%
%ADD20R,2.000000X2.000000*%
%ADD21R,1.600000X1.600000*%
%ADD22C,1.600000*%
%ADD23C,0.800000*%
%ADD24C,0.254000*%
G04 APERTURE END LIST*
D10*
X96400000Y-3600000D03*
X3600000Y-3800000D03*
X3400000Y-96100000D03*
X96600000Y-96500000D03*
D11*
X39000000Y-10100000D03*
D12*
X37730000Y-10100000D03*
X39000000Y-8830000D03*
X37730000Y-8830000D03*
X39000000Y-7560000D03*
X37730000Y-7560000D03*
X39000000Y-6290000D03*
X37730000Y-6290000D03*
X39000000Y-5020000D03*
X37730000Y-5020000D03*
D13*
X68200000Y-14200000D03*
G04 #@! TA.AperFunction,ViaPad*
D14*
G36*
X69273513Y-6703611D02*
G01*
X69346318Y-6714411D01*
X69417714Y-6732295D01*
X69487013Y-6757090D01*
X69553548Y-6788559D01*
X69616678Y-6826398D01*
X69675795Y-6870242D01*
X69730330Y-6919670D01*
X69779758Y-6974205D01*
X69823602Y-7033322D01*
X69861441Y-7096452D01*
X69892910Y-7162987D01*
X69917705Y-7232286D01*
X69935589Y-7303682D01*
X69946389Y-7376487D01*
X69950000Y-7450000D01*
X69950000Y-8950000D01*
X69946389Y-9023513D01*
X69935589Y-9096318D01*
X69917705Y-9167714D01*
X69892910Y-9237013D01*
X69861441Y-9303548D01*
X69823602Y-9366678D01*
X69779758Y-9425795D01*
X69730330Y-9480330D01*
X69675795Y-9529758D01*
X69616678Y-9573602D01*
X69553548Y-9611441D01*
X69487013Y-9642910D01*
X69417714Y-9667705D01*
X69346318Y-9685589D01*
X69273513Y-9696389D01*
X69200000Y-9700000D01*
X67200000Y-9700000D01*
X67126487Y-9696389D01*
X67053682Y-9685589D01*
X66982286Y-9667705D01*
X66912987Y-9642910D01*
X66846452Y-9611441D01*
X66783322Y-9573602D01*
X66724205Y-9529758D01*
X66669670Y-9480330D01*
X66620242Y-9425795D01*
X66576398Y-9366678D01*
X66538559Y-9303548D01*
X66507090Y-9237013D01*
X66482295Y-9167714D01*
X66464411Y-9096318D01*
X66453611Y-9023513D01*
X66450000Y-8950000D01*
X66450000Y-7450000D01*
X66453611Y-7376487D01*
X66464411Y-7303682D01*
X66482295Y-7232286D01*
X66507090Y-7162987D01*
X66538559Y-7096452D01*
X66576398Y-7033322D01*
X66620242Y-6974205D01*
X66669670Y-6919670D01*
X66724205Y-6870242D01*
X66783322Y-6826398D01*
X66846452Y-6788559D01*
X66912987Y-6757090D01*
X66982286Y-6732295D01*
X67053682Y-6714411D01*
X67126487Y-6703611D01*
X67200000Y-6700000D01*
X69200000Y-6700000D01*
X69273513Y-6703611D01*
G37*
G04 #@! TD.AperFunction*
G04 #@! TA.AperFunction,ViaPad*
G36*
X64460765Y-9454213D02*
G01*
X64545704Y-9466813D01*
X64628999Y-9487677D01*
X64709848Y-9516605D01*
X64787472Y-9553319D01*
X64861124Y-9597464D01*
X64930094Y-9648616D01*
X64993718Y-9706282D01*
X65051384Y-9769906D01*
X65102536Y-9838876D01*
X65146681Y-9912528D01*
X65183395Y-9990152D01*
X65212323Y-10071001D01*
X65233187Y-10154296D01*
X65245787Y-10239235D01*
X65250000Y-10325000D01*
X65250000Y-12075000D01*
X65245787Y-12160765D01*
X65233187Y-12245704D01*
X65212323Y-12328999D01*
X65183395Y-12409848D01*
X65146681Y-12487472D01*
X65102536Y-12561124D01*
X65051384Y-12630094D01*
X64993718Y-12693718D01*
X64930094Y-12751384D01*
X64861124Y-12802536D01*
X64787472Y-12846681D01*
X64709848Y-12883395D01*
X64628999Y-12912323D01*
X64545704Y-12933187D01*
X64460765Y-12945787D01*
X64375000Y-12950000D01*
X62625000Y-12950000D01*
X62539235Y-12945787D01*
X62454296Y-12933187D01*
X62371001Y-12912323D01*
X62290152Y-12883395D01*
X62212528Y-12846681D01*
X62138876Y-12802536D01*
X62069906Y-12751384D01*
X62006282Y-12693718D01*
X61948616Y-12630094D01*
X61897464Y-12561124D01*
X61853319Y-12487472D01*
X61816605Y-12409848D01*
X61787677Y-12328999D01*
X61766813Y-12245704D01*
X61754213Y-12160765D01*
X61750000Y-12075000D01*
X61750000Y-10325000D01*
X61754213Y-10239235D01*
X61766813Y-10154296D01*
X61787677Y-10071001D01*
X61816605Y-9990152D01*
X61853319Y-9912528D01*
X61897464Y-9838876D01*
X61948616Y-9769906D01*
X62006282Y-9706282D01*
X62069906Y-9648616D01*
X62138876Y-9597464D01*
X62212528Y-9553319D01*
X62290152Y-9516605D01*
X62371001Y-9487677D01*
X62454296Y-9466813D01*
X62539235Y-9454213D01*
X62625000Y-9450000D01*
X64375000Y-9450000D01*
X64460765Y-9454213D01*
G37*
G04 #@! TD.AperFunction*
D15*
X49900000Y-3262500D03*
X44900000Y-3262500D03*
D16*
X50900000Y-562500D03*
X43900000Y-562500D03*
D17*
X25400000Y-3000000D03*
D18*
X27940000Y-3000000D03*
D19*
X41100000Y-35400000D03*
X41100000Y-39900000D03*
X34600000Y-35400000D03*
X34600000Y-39900000D03*
D20*
X68060000Y-30000000D03*
D19*
X70600000Y-30000000D03*
X73140000Y-30000000D03*
D21*
X30200000Y-25000000D03*
D22*
X22580000Y-25000000D03*
X22580000Y-9760000D03*
X30200000Y-9760000D03*
D23*
X44866664Y-51400000D03*
X10333333Y-51400000D03*
X84333328Y-51400000D03*
X25133332Y-51400000D03*
X39933331Y-51400000D03*
X49799997Y-51400000D03*
X30066665Y-51400000D03*
X34999998Y-51400000D03*
X5400000Y-51400000D03*
X79399995Y-51400000D03*
X69533329Y-51400000D03*
X15266666Y-51400000D03*
X64599996Y-51400000D03*
X20199999Y-51400000D03*
X54733330Y-51400000D03*
X59666663Y-51400000D03*
X89266661Y-51400000D03*
X94200000Y-51400000D03*
X74466662Y-51400000D03*
X44866664Y-60600000D03*
X10333333Y-60600000D03*
X84333328Y-60600000D03*
X25133332Y-60600000D03*
X39933331Y-60600000D03*
X49799997Y-60600000D03*
X30066665Y-60600000D03*
X34999998Y-60600000D03*
X5400000Y-60600000D03*
X79399995Y-60600000D03*
X69533329Y-60600000D03*
X15266666Y-60600000D03*
X64599996Y-60600000D03*
X20199999Y-60600000D03*
X54733330Y-60600000D03*
X59666663Y-60600000D03*
X89266661Y-60600000D03*
X94200000Y-60600000D03*
X74466662Y-60600000D03*
X44866664Y-63200000D03*
X10333333Y-63200000D03*
X84333328Y-63200000D03*
X25133332Y-63200000D03*
X39933331Y-63200000D03*
X49799997Y-63200000D03*
X30066665Y-63200000D03*
X34999998Y-63200000D03*
X5400000Y-63200000D03*
X79399995Y-63200000D03*
X69533329Y-63200000D03*
X15266666Y-63200000D03*
X64599996Y-63200000D03*
X20199999Y-63200000D03*
X54733330Y-63200000D03*
X59666663Y-63200000D03*
X89266661Y-63200000D03*
X94200000Y-63200000D03*
X74466662Y-63200000D03*
X44866664Y-72400000D03*
X10333333Y-72400000D03*
X84333328Y-72400000D03*
X25133332Y-72400000D03*
X39933331Y-72400000D03*
X49799997Y-72400000D03*
X30066665Y-72400000D03*
X34999998Y-72400000D03*
X5400000Y-72400000D03*
X79399995Y-72400000D03*
X69533329Y-72400000D03*
X15266666Y-72400000D03*
X64599996Y-72400000D03*
X20199999Y-72400000D03*
X54733330Y-72400000D03*
X59666663Y-72400000D03*
X89266661Y-72400000D03*
X94200000Y-72400000D03*
X74466662Y-72400000D03*
X44866664Y-75200000D03*
X10333333Y-75200000D03*
X84333328Y-75200000D03*
X25133332Y-75200000D03*
X39933331Y-75200000D03*
X49799997Y-75200000D03*
X30066665Y-75200000D03*
X34999998Y-75200000D03*
X5400000Y-75200000D03*
X79399995Y-75200000D03*
X69533329Y-75200000D03*
X15266666Y-75200000D03*
X64599996Y-75200000D03*
X20199999Y-75200000D03*
X54733330Y-75200000D03*
X59666663Y-75200000D03*
X89266661Y-75200000D03*
X94200000Y-75200000D03*
X74466662Y-75200000D03*
X44866664Y-84000000D03*
X10333333Y-84000000D03*
X84333328Y-84000000D03*
X25133332Y-84000000D03*
X39933331Y-84000000D03*
X49799997Y-84000000D03*
X30066665Y-84000000D03*
X34999998Y-84000000D03*
X5400000Y-84000000D03*
X79399995Y-84000000D03*
X69533329Y-84000000D03*
X15266666Y-84000000D03*
X64599996Y-84000000D03*
X20199999Y-84000000D03*
X54733330Y-84000000D03*
X59666663Y-84000000D03*
X89266661Y-84000000D03*
X94200000Y-84000000D03*
X74466662Y-84000000D03*
X44866664Y-87600000D03*
X10333333Y-87600000D03*
X84333328Y-87600000D03*
X25133332Y-87600000D03*
X39933331Y-87600000D03*
X49799997Y-87600000D03*
X30066665Y-87600000D03*
X34999998Y-87600000D03*
X5400000Y-87600000D03*
X79399995Y-87600000D03*
X69533329Y-87600000D03*
X15266666Y-87600000D03*
X64599996Y-87600000D03*
X20199999Y-87600000D03*
X54733330Y-87600000D03*
X59666663Y-87600000D03*
X89266661Y-87600000D03*
X94200000Y-87600000D03*
X74466662Y-87600000D03*
X89100000Y-10460000D03*
X85330000Y-12300000D03*
X85490000Y-23770000D03*
X78750000Y-22390000D03*
X86380000Y-29660000D03*
X77000000Y-35200000D03*
X52200000Y-12370000D03*
X45310000Y-4780000D03*
X45330000Y-12110000D03*
X60340000Y-15520000D03*
X62410000Y-17030000D03*
X62135791Y-29807836D03*
X58170000Y-34050000D03*
X47400000Y-34600000D03*
X44900000Y-34500000D03*
X54700003Y-34500000D03*
X53300000Y-38700000D03*
X51700000Y-38800000D03*
X47800000Y-38700000D03*
X54300000Y-35700000D03*
X52100000Y-33100000D03*
X47900000Y-35500000D03*
X49626620Y-33800000D03*
X39400000Y-28700000D03*
X23693886Y-30889569D03*
X62000000Y-38200000D03*
X45100000Y-13300000D03*
X34600000Y-29700000D03*
X29800000Y-31300000D03*
X39100000Y-32800000D03*
X36200000Y-24300000D03*
X5400000Y-48600000D03*
X15266666Y-48600000D03*
X25133332Y-48600000D03*
X34999998Y-48600000D03*
X44866664Y-48600000D03*
X54733330Y-48600000D03*
X64599996Y-48600000D03*
X74466662Y-48600000D03*
X84333328Y-48600000D03*
X94200000Y-48600000D03*
X10333333Y-48600000D03*
X20199999Y-48600000D03*
X30066665Y-48600000D03*
X39933331Y-48600000D03*
X49799997Y-48600000D03*
X59666663Y-48600000D03*
X69533329Y-48600000D03*
X79399995Y-48600000D03*
X89266661Y-48600000D03*
X46100000Y-29800000D03*
X86487836Y-23835791D03*
X81840000Y-38060000D03*
X60420000Y-16560000D03*
X62070000Y-28810000D03*
X58983057Y-34632189D03*
X48400000Y-34400000D03*
X45900000Y-34500000D03*
X53700000Y-34500000D03*
X39400000Y-29700000D03*
X22700000Y-31000000D03*
X44099997Y-13300000D03*
X30100000Y-32900000D03*
X36300000Y-23200000D03*
X36200000Y-25300000D03*
X72700000Y-27446695D03*
X46405598Y-27446695D03*
X45900000Y-26300000D03*
X74100000Y-26700002D03*
X83060000Y-8350000D03*
X85733315Y-7970000D03*
X56500000Y-28400000D03*
X38500000Y-27900000D03*
X79600000Y-23800000D03*
X56700000Y-25900000D03*
X47900000Y-18100000D03*
X83200000Y-25646685D03*
X61000000Y-25800000D03*
X88100000Y-24900000D03*
X60800000Y-24800000D03*
X61951746Y-20108012D03*
X80200000Y-18000000D03*
X62690573Y-19361327D03*
X78800000Y-17900000D03*
D24*
G36*
X1078724Y-1099119D02*
G01*
X3600000Y-3620395D01*
X6121276Y-1099119D01*
X5798270Y-660000D01*
X42665000Y-660000D01*
X42665000Y-973164D01*
X42682870Y-1154601D01*
X42753489Y-1387400D01*
X42868167Y-1601948D01*
X43022498Y-1790002D01*
X43210551Y-1944333D01*
X43425099Y-2059011D01*
X43657898Y-2129630D01*
X43900000Y-2153475D01*
X44142101Y-2129630D01*
X44152035Y-2126616D01*
X44033051Y-2206119D01*
X43843619Y-2395551D01*
X43694784Y-2618299D01*
X43592264Y-2865803D01*
X43540000Y-3128552D01*
X43540000Y-3396448D01*
X43592264Y-3659197D01*
X43694784Y-3906701D01*
X43843619Y-4129449D01*
X44033051Y-4318881D01*
X44255799Y-4467716D01*
X44503303Y-4570236D01*
X44766052Y-4622500D01*
X45033948Y-4622500D01*
X45296697Y-4570236D01*
X45544201Y-4467716D01*
X45766949Y-4318881D01*
X45956381Y-4129449D01*
X46105216Y-3906701D01*
X46207736Y-3659197D01*
X46260000Y-3396448D01*
X46260000Y-3128552D01*
X46207736Y-2865803D01*
X46105216Y-2618299D01*
X45956381Y-2395551D01*
X45766949Y-2206119D01*
X45544201Y-2057284D01*
X45296697Y-1954764D01*
X45033948Y-1902500D01*
X44766052Y-1902500D01*
X44600231Y-1935484D01*
X44777502Y-1790002D01*
X44931833Y-1601949D01*
X45046511Y-1387401D01*
X45117130Y-1154602D01*
X45135000Y-973165D01*
X45135000Y-660000D01*
X49665000Y-660000D01*
X49665000Y-973165D01*
X49682870Y-1154602D01*
X49753489Y-1387401D01*
X49868168Y-1601949D01*
X50022499Y-1790002D01*
X50199769Y-1935484D01*
X50033948Y-1902500D01*
X49766052Y-1902500D01*
X49503303Y-1954764D01*
X49255799Y-2057284D01*
X49033051Y-2206119D01*
X48843619Y-2395551D01*
X48694784Y-2618299D01*
X48592264Y-2865803D01*
X48540000Y-3128552D01*
X48540000Y-3396448D01*
X48592264Y-3659197D01*
X48694784Y-3906701D01*
X48843619Y-4129449D01*
X49033051Y-4318881D01*
X49255799Y-4467716D01*
X49503303Y-4570236D01*
X49766052Y-4622500D01*
X50033948Y-4622500D01*
X50296697Y-4570236D01*
X50544201Y-4467716D01*
X50766949Y-4318881D01*
X50956381Y-4129449D01*
X51105216Y-3906701D01*
X51207736Y-3659197D01*
X51224345Y-3575695D01*
X92546520Y-3575695D01*
X92615822Y-4327938D01*
X92830548Y-5052208D01*
X93182445Y-5720670D01*
X93209452Y-5761088D01*
X93699119Y-6121276D01*
X96220395Y-3600000D01*
X93699119Y-1078724D01*
X93209452Y-1438912D01*
X92849151Y-2102882D01*
X92625306Y-2824385D01*
X92546520Y-3575695D01*
X51224345Y-3575695D01*
X51260000Y-3396448D01*
X51260000Y-3128552D01*
X51207736Y-2865803D01*
X51105216Y-2618299D01*
X50956381Y-2395551D01*
X50766949Y-2206119D01*
X50647965Y-2126616D01*
X50657899Y-2129630D01*
X50900000Y-2153475D01*
X51142102Y-2129630D01*
X51374901Y-2059011D01*
X51589449Y-1944333D01*
X51777502Y-1790002D01*
X51931833Y-1601949D01*
X52046511Y-1387401D01*
X52117130Y-1154601D01*
X52135000Y-973164D01*
X52135000Y-660000D01*
X94054615Y-660000D01*
X93878724Y-899119D01*
X96400000Y-3420395D01*
X98921276Y-899119D01*
X98745385Y-660000D01*
X99340000Y-660000D01*
X99340000Y-1254615D01*
X99100881Y-1078724D01*
X96579605Y-3600000D01*
X99100881Y-6121276D01*
X99340000Y-5945385D01*
X99340001Y-94007500D01*
X99300881Y-93978724D01*
X96779605Y-96500000D01*
X99300881Y-99021276D01*
X99340001Y-98992500D01*
X99340001Y-99340000D01*
X99018943Y-99340000D01*
X99121276Y-99200881D01*
X96600000Y-96679605D01*
X94078724Y-99200881D01*
X94181057Y-99340000D01*
X5478034Y-99340000D01*
X5520670Y-99317555D01*
X5561088Y-99290548D01*
X5921276Y-98800881D01*
X3400000Y-96279605D01*
X878724Y-98800881D01*
X1238912Y-99290548D01*
X1330043Y-99340000D01*
X660000Y-99340000D01*
X660000Y-98592501D01*
X699119Y-98621276D01*
X3220395Y-96100000D01*
X3579605Y-96100000D01*
X6100881Y-98621276D01*
X6590548Y-98261088D01*
X6950849Y-97597118D01*
X7174694Y-96875615D01*
X7216631Y-96475695D01*
X92746520Y-96475695D01*
X92815822Y-97227938D01*
X93030548Y-97952208D01*
X93382445Y-98620670D01*
X93409452Y-98661088D01*
X93899119Y-99021276D01*
X96420395Y-96500000D01*
X93899119Y-93978724D01*
X93409452Y-94338912D01*
X93049151Y-95002882D01*
X92825306Y-95724385D01*
X92746520Y-96475695D01*
X7216631Y-96475695D01*
X7253480Y-96124305D01*
X7184178Y-95372062D01*
X6969452Y-94647792D01*
X6617555Y-93979330D01*
X6590548Y-93938912D01*
X6400503Y-93799119D01*
X94078724Y-93799119D01*
X96600000Y-96320395D01*
X99121276Y-93799119D01*
X98761088Y-93309452D01*
X98097118Y-92949151D01*
X97375615Y-92725306D01*
X96624305Y-92646520D01*
X95872062Y-92715822D01*
X95147792Y-92930548D01*
X94479330Y-93282445D01*
X94438912Y-93309452D01*
X94078724Y-93799119D01*
X6400503Y-93799119D01*
X6100881Y-93578724D01*
X3579605Y-96100000D01*
X3220395Y-96100000D01*
X699119Y-93578724D01*
X660000Y-93607499D01*
X660000Y-93399119D01*
X878724Y-93399119D01*
X3400000Y-95920395D01*
X5921276Y-93399119D01*
X5561088Y-92909452D01*
X4897118Y-92549151D01*
X4175615Y-92325306D01*
X3424305Y-92246520D01*
X2672062Y-92315822D01*
X1947792Y-92530548D01*
X1279330Y-92882445D01*
X1238912Y-92909452D01*
X878724Y-93399119D01*
X660000Y-93399119D01*
X660000Y-41035413D01*
X33644192Y-41035413D01*
X33739956Y-41299814D01*
X34029571Y-41440704D01*
X34341108Y-41522384D01*
X34662595Y-41541718D01*
X34981675Y-41497961D01*
X35286088Y-41392795D01*
X35460044Y-41299814D01*
X35555808Y-41035413D01*
X40144192Y-41035413D01*
X40239956Y-41299814D01*
X40529571Y-41440704D01*
X40841108Y-41522384D01*
X41162595Y-41541718D01*
X41481675Y-41497961D01*
X41786088Y-41392795D01*
X41960044Y-41299814D01*
X42055808Y-41035413D01*
X41100000Y-40079605D01*
X40144192Y-41035413D01*
X35555808Y-41035413D01*
X34600000Y-40079605D01*
X33644192Y-41035413D01*
X660000Y-41035413D01*
X660000Y-39962595D01*
X32958282Y-39962595D01*
X33002039Y-40281675D01*
X33107205Y-40586088D01*
X33200186Y-40760044D01*
X33464587Y-40855808D01*
X34420395Y-39900000D01*
X34779605Y-39900000D01*
X35735413Y-40855808D01*
X35999814Y-40760044D01*
X36140704Y-40470429D01*
X36222384Y-40158892D01*
X36234189Y-39962595D01*
X39458282Y-39962595D01*
X39502039Y-40281675D01*
X39607205Y-40586088D01*
X39700186Y-40760044D01*
X39964587Y-40855808D01*
X40920395Y-39900000D01*
X41279605Y-39900000D01*
X42235413Y-40855808D01*
X42499814Y-40760044D01*
X42640704Y-40470429D01*
X42722384Y-40158892D01*
X42741718Y-39837405D01*
X42697961Y-39518325D01*
X42592795Y-39213912D01*
X42499814Y-39039956D01*
X42235413Y-38944192D01*
X41279605Y-39900000D01*
X40920395Y-39900000D01*
X39964587Y-38944192D01*
X39700186Y-39039956D01*
X39559296Y-39329571D01*
X39477616Y-39641108D01*
X39458282Y-39962595D01*
X36234189Y-39962595D01*
X36241718Y-39837405D01*
X36197961Y-39518325D01*
X36092795Y-39213912D01*
X35999814Y-39039956D01*
X35735413Y-38944192D01*
X34779605Y-39900000D01*
X34420395Y-39900000D01*
X33464587Y-38944192D01*
X33200186Y-39039956D01*
X33059296Y-39329571D01*
X32977616Y-39641108D01*
X32958282Y-39962595D01*
X660000Y-39962595D01*
X660000Y-38764587D01*
X33644192Y-38764587D01*
X34600000Y-39720395D01*
X35555808Y-38764587D01*
X40144192Y-38764587D01*
X41100000Y-39720395D01*
X42055808Y-38764587D01*
X41960044Y-38500186D01*
X41670429Y-38359296D01*
X41358892Y-38277616D01*
X41037405Y-38258282D01*
X40718325Y-38302039D01*
X40413912Y-38407205D01*
X40239956Y-38500186D01*
X40144192Y-38764587D01*
X35555808Y-38764587D01*
X35460044Y-38500186D01*
X35170429Y-38359296D01*
X34858892Y-38277616D01*
X34537405Y-38258282D01*
X34218325Y-38302039D01*
X33913912Y-38407205D01*
X33739956Y-38500186D01*
X33644192Y-38764587D01*
X660000Y-38764587D01*
X660000Y-37958061D01*
X80805000Y-37958061D01*
X80805000Y-38161939D01*
X80844774Y-38361898D01*
X80922795Y-38550256D01*
X81036063Y-38719774D01*
X81180226Y-38863937D01*
X81349744Y-38977205D01*
X81538102Y-39055226D01*
X81738061Y-39095000D01*
X81941939Y-39095000D01*
X82141898Y-39055226D01*
X82330256Y-38977205D01*
X82499774Y-38863937D01*
X82643937Y-38719774D01*
X82757205Y-38550256D01*
X82835226Y-38361898D01*
X82875000Y-38161939D01*
X82875000Y-37958061D01*
X82835226Y-37758102D01*
X82757205Y-37569744D01*
X82643937Y-37400226D01*
X82499774Y-37256063D01*
X82330256Y-37142795D01*
X82141898Y-37064774D01*
X81941939Y-37025000D01*
X81738061Y-37025000D01*
X81538102Y-37064774D01*
X81349744Y-37142795D01*
X81180226Y-37256063D01*
X81036063Y-37400226D01*
X80922795Y-37569744D01*
X80844774Y-37758102D01*
X80805000Y-37958061D01*
X660000Y-37958061D01*
X660000Y-35238967D01*
X32965000Y-35238967D01*
X32965000Y-35561033D01*
X33027832Y-35876912D01*
X33151082Y-36174463D01*
X33330013Y-36442252D01*
X33557748Y-36669987D01*
X33825537Y-36848918D01*
X34123088Y-36972168D01*
X34438967Y-37035000D01*
X34761033Y-37035000D01*
X35076912Y-36972168D01*
X35374463Y-36848918D01*
X35642252Y-36669987D01*
X35869987Y-36442252D01*
X36048918Y-36174463D01*
X36172168Y-35876912D01*
X36235000Y-35561033D01*
X36235000Y-35238967D01*
X39465000Y-35238967D01*
X39465000Y-35561033D01*
X39527832Y-35876912D01*
X39651082Y-36174463D01*
X39830013Y-36442252D01*
X40057748Y-36669987D01*
X40325537Y-36848918D01*
X40623088Y-36972168D01*
X40938967Y-37035000D01*
X41261033Y-37035000D01*
X41576912Y-36972168D01*
X41874463Y-36848918D01*
X42142252Y-36669987D01*
X42369987Y-36442252D01*
X42548918Y-36174463D01*
X42672168Y-35876912D01*
X42735000Y-35561033D01*
X42735000Y-35238967D01*
X42672168Y-34923088D01*
X42548918Y-34625537D01*
X42396924Y-34398061D01*
X44865000Y-34398061D01*
X44865000Y-34601939D01*
X44904774Y-34801898D01*
X44982795Y-34990256D01*
X45096063Y-35159774D01*
X45240226Y-35303937D01*
X45409744Y-35417205D01*
X45598102Y-35495226D01*
X45798061Y-35535000D01*
X46001939Y-35535000D01*
X46201898Y-35495226D01*
X46390256Y-35417205D01*
X46559774Y-35303937D01*
X46703937Y-35159774D01*
X46817205Y-34990256D01*
X46895226Y-34801898D01*
X46935000Y-34601939D01*
X46935000Y-34398061D01*
X46915109Y-34298061D01*
X47365000Y-34298061D01*
X47365000Y-34501939D01*
X47404774Y-34701898D01*
X47482795Y-34890256D01*
X47596063Y-35059774D01*
X47740226Y-35203937D01*
X47909744Y-35317205D01*
X48098102Y-35395226D01*
X48298061Y-35435000D01*
X48501939Y-35435000D01*
X48701898Y-35395226D01*
X48890256Y-35317205D01*
X49059774Y-35203937D01*
X49203937Y-35059774D01*
X49317205Y-34890256D01*
X49395226Y-34701898D01*
X49435000Y-34501939D01*
X49435000Y-34398061D01*
X52665000Y-34398061D01*
X52665000Y-34601939D01*
X52704774Y-34801898D01*
X52782795Y-34990256D01*
X52896063Y-35159774D01*
X53040226Y-35303937D01*
X53209744Y-35417205D01*
X53398102Y-35495226D01*
X53598061Y-35535000D01*
X53801939Y-35535000D01*
X54001898Y-35495226D01*
X54190256Y-35417205D01*
X54359774Y-35303937D01*
X54503937Y-35159774D01*
X54617205Y-34990256D01*
X54695226Y-34801898D01*
X54735000Y-34601939D01*
X54735000Y-34530250D01*
X57948057Y-34530250D01*
X57948057Y-34734128D01*
X57987831Y-34934087D01*
X58065852Y-35122445D01*
X58179120Y-35291963D01*
X58323283Y-35436126D01*
X58492801Y-35549394D01*
X58681159Y-35627415D01*
X58881118Y-35667189D01*
X59084996Y-35667189D01*
X59284955Y-35627415D01*
X59473313Y-35549394D01*
X59642831Y-35436126D01*
X59786994Y-35291963D01*
X59900262Y-35122445D01*
X59978283Y-34934087D01*
X60018057Y-34734128D01*
X60018057Y-34530250D01*
X59978283Y-34330291D01*
X59900262Y-34141933D01*
X59786994Y-33972415D01*
X59642831Y-33828252D01*
X59473313Y-33714984D01*
X59284955Y-33636963D01*
X59084996Y-33597189D01*
X58881118Y-33597189D01*
X58681159Y-33636963D01*
X58492801Y-33714984D01*
X58323283Y-33828252D01*
X58179120Y-33972415D01*
X58065852Y-34141933D01*
X57987831Y-34330291D01*
X57948057Y-34530250D01*
X54735000Y-34530250D01*
X54735000Y-34398061D01*
X54695226Y-34198102D01*
X54617205Y-34009744D01*
X54503937Y-33840226D01*
X54359774Y-33696063D01*
X54190256Y-33582795D01*
X54001898Y-33504774D01*
X53801939Y-33465000D01*
X53598061Y-33465000D01*
X53398102Y-33504774D01*
X53209744Y-33582795D01*
X53040226Y-33696063D01*
X52896063Y-33840226D01*
X52782795Y-34009744D01*
X52704774Y-34198102D01*
X52665000Y-34398061D01*
X49435000Y-34398061D01*
X49435000Y-34298061D01*
X49395226Y-34098102D01*
X49317205Y-33909744D01*
X49203937Y-33740226D01*
X49059774Y-33596063D01*
X48890256Y-33482795D01*
X48701898Y-33404774D01*
X48501939Y-33365000D01*
X48298061Y-33365000D01*
X48098102Y-33404774D01*
X47909744Y-33482795D01*
X47740226Y-33596063D01*
X47596063Y-33740226D01*
X47482795Y-33909744D01*
X47404774Y-34098102D01*
X47365000Y-34298061D01*
X46915109Y-34298061D01*
X46895226Y-34198102D01*
X46817205Y-34009744D01*
X46703937Y-33840226D01*
X46559774Y-33696063D01*
X46390256Y-33582795D01*
X46201898Y-33504774D01*
X46001939Y-33465000D01*
X45798061Y-33465000D01*
X45598102Y-33504774D01*
X45409744Y-33582795D01*
X45240226Y-33696063D01*
X45096063Y-33840226D01*
X44982795Y-34009744D01*
X44904774Y-34198102D01*
X44865000Y-34398061D01*
X42396924Y-34398061D01*
X42369987Y-34357748D01*
X42142252Y-34130013D01*
X41874463Y-33951082D01*
X41576912Y-33827832D01*
X41261033Y-33765000D01*
X40938967Y-33765000D01*
X40623088Y-33827832D01*
X40325537Y-33951082D01*
X40057748Y-34130013D01*
X39830013Y-34357748D01*
X39651082Y-34625537D01*
X39527832Y-34923088D01*
X39465000Y-35238967D01*
X36235000Y-35238967D01*
X36172168Y-34923088D01*
X36048918Y-34625537D01*
X35869987Y-34357748D01*
X35642252Y-34130013D01*
X35374463Y-33951082D01*
X35076912Y-33827832D01*
X34761033Y-33765000D01*
X34438967Y-33765000D01*
X34123088Y-33827832D01*
X33825537Y-33951082D01*
X33557748Y-34130013D01*
X33330013Y-34357748D01*
X33151082Y-34625537D01*
X33027832Y-34923088D01*
X32965000Y-35238967D01*
X660000Y-35238967D01*
X660000Y-32798061D01*
X29065000Y-32798061D01*
X29065000Y-33001939D01*
X29104774Y-33201898D01*
X29182795Y-33390256D01*
X29296063Y-33559774D01*
X29440226Y-33703937D01*
X29609744Y-33817205D01*
X29798102Y-33895226D01*
X29998061Y-33935000D01*
X30201939Y-33935000D01*
X30401898Y-33895226D01*
X30590256Y-33817205D01*
X30759774Y-33703937D01*
X30903937Y-33559774D01*
X31017205Y-33390256D01*
X31095226Y-33201898D01*
X31135000Y-33001939D01*
X31135000Y-32798061D01*
X31095226Y-32598102D01*
X31017205Y-32409744D01*
X30903937Y-32240226D01*
X30759774Y-32096063D01*
X30590256Y-31982795D01*
X30401898Y-31904774D01*
X30201939Y-31865000D01*
X29998061Y-31865000D01*
X29798102Y-31904774D01*
X29609744Y-31982795D01*
X29440226Y-32096063D01*
X29296063Y-32240226D01*
X29182795Y-32409744D01*
X29104774Y-32598102D01*
X29065000Y-32798061D01*
X660000Y-32798061D01*
X660000Y-30898061D01*
X21665000Y-30898061D01*
X21665000Y-31101939D01*
X21704774Y-31301898D01*
X21782795Y-31490256D01*
X21896063Y-31659774D01*
X22040226Y-31803937D01*
X22209744Y-31917205D01*
X22398102Y-31995226D01*
X22598061Y-32035000D01*
X22801939Y-32035000D01*
X23001898Y-31995226D01*
X23190256Y-31917205D01*
X23359774Y-31803937D01*
X23503937Y-31659774D01*
X23617205Y-31490256D01*
X23695226Y-31301898D01*
X23735000Y-31101939D01*
X23735000Y-30898061D01*
X23695226Y-30698102D01*
X23617205Y-30509744D01*
X23503937Y-30340226D01*
X23359774Y-30196063D01*
X23190256Y-30082795D01*
X23001898Y-30004774D01*
X22801939Y-29965000D01*
X22598061Y-29965000D01*
X22398102Y-30004774D01*
X22209744Y-30082795D01*
X22040226Y-30196063D01*
X21896063Y-30340226D01*
X21782795Y-30509744D01*
X21704774Y-30698102D01*
X21665000Y-30898061D01*
X660000Y-30898061D01*
X660000Y-27798061D01*
X37465000Y-27798061D01*
X37465000Y-28001939D01*
X37504774Y-28201898D01*
X37582795Y-28390256D01*
X37696063Y-28559774D01*
X37840226Y-28703937D01*
X38009744Y-28817205D01*
X38198102Y-28895226D01*
X38398061Y-28935000D01*
X38601939Y-28935000D01*
X38725958Y-28910331D01*
X38596063Y-29040226D01*
X38482795Y-29209744D01*
X38404774Y-29398102D01*
X38365000Y-29598061D01*
X38365000Y-29801939D01*
X38404774Y-30001898D01*
X38482795Y-30190256D01*
X38596063Y-30359774D01*
X38740226Y-30503937D01*
X38909744Y-30617205D01*
X39098102Y-30695226D01*
X39298061Y-30735000D01*
X39501939Y-30735000D01*
X39701898Y-30695226D01*
X39890256Y-30617205D01*
X40059774Y-30503937D01*
X40203937Y-30359774D01*
X40317205Y-30190256D01*
X40395226Y-30001898D01*
X40435000Y-29801939D01*
X40435000Y-29698061D01*
X45065000Y-29698061D01*
X45065000Y-29901939D01*
X45104774Y-30101898D01*
X45182795Y-30290256D01*
X45296063Y-30459774D01*
X45440226Y-30603937D01*
X45609744Y-30717205D01*
X45798102Y-30795226D01*
X45998061Y-30835000D01*
X46201939Y-30835000D01*
X46401898Y-30795226D01*
X46590256Y-30717205D01*
X46759774Y-30603937D01*
X46903937Y-30459774D01*
X47017205Y-30290256D01*
X47095226Y-30101898D01*
X47135000Y-29901939D01*
X47135000Y-29698061D01*
X47095226Y-29498102D01*
X47017205Y-29309744D01*
X46903937Y-29140226D01*
X46759774Y-28996063D01*
X46590256Y-28882795D01*
X46401898Y-28804774D01*
X46201939Y-28765000D01*
X45998061Y-28765000D01*
X45798102Y-28804774D01*
X45609744Y-28882795D01*
X45440226Y-28996063D01*
X45296063Y-29140226D01*
X45182795Y-29309744D01*
X45104774Y-29498102D01*
X45065000Y-29698061D01*
X40435000Y-29698061D01*
X40435000Y-29598061D01*
X40395226Y-29398102D01*
X40317205Y-29209744D01*
X40203937Y-29040226D01*
X40059774Y-28896063D01*
X39890256Y-28782795D01*
X39701898Y-28704774D01*
X39501939Y-28665000D01*
X39298061Y-28665000D01*
X39174042Y-28689669D01*
X39303937Y-28559774D01*
X39417205Y-28390256D01*
X39495226Y-28201898D01*
X39535000Y-28001939D01*
X39535000Y-27798061D01*
X39495226Y-27598102D01*
X39417205Y-27409744D01*
X39303937Y-27240226D01*
X39159774Y-27096063D01*
X38990256Y-26982795D01*
X38801898Y-26904774D01*
X38601939Y-26865000D01*
X38398061Y-26865000D01*
X38198102Y-26904774D01*
X38009744Y-26982795D01*
X37840226Y-27096063D01*
X37696063Y-27240226D01*
X37582795Y-27409744D01*
X37504774Y-27598102D01*
X37465000Y-27798061D01*
X660000Y-27798061D01*
X660000Y-24858665D01*
X21145000Y-24858665D01*
X21145000Y-25141335D01*
X21200147Y-25418574D01*
X21308320Y-25679727D01*
X21465363Y-25914759D01*
X21665241Y-26114637D01*
X21900273Y-26271680D01*
X22161426Y-26379853D01*
X22438665Y-26435000D01*
X22721335Y-26435000D01*
X22998574Y-26379853D01*
X23259727Y-26271680D01*
X23494759Y-26114637D01*
X23694637Y-25914759D01*
X23851680Y-25679727D01*
X23959853Y-25418574D01*
X24015000Y-25141335D01*
X24015000Y-24858665D01*
X23959853Y-24581426D01*
X23851680Y-24320273D01*
X23771317Y-24200000D01*
X28761928Y-24200000D01*
X28761928Y-25800000D01*
X28774188Y-25924482D01*
X28810498Y-26044180D01*
X28869463Y-26154494D01*
X28948815Y-26251185D01*
X29045506Y-26330537D01*
X29155820Y-26389502D01*
X29275518Y-26425812D01*
X29400000Y-26438072D01*
X31000000Y-26438072D01*
X31124482Y-26425812D01*
X31244180Y-26389502D01*
X31354494Y-26330537D01*
X31451185Y-26251185D01*
X31530537Y-26154494D01*
X31589502Y-26044180D01*
X31625812Y-25924482D01*
X31638072Y-25800000D01*
X31638072Y-25198061D01*
X35165000Y-25198061D01*
X35165000Y-25401939D01*
X35204774Y-25601898D01*
X35282795Y-25790256D01*
X35396063Y-25959774D01*
X35540226Y-26103937D01*
X35709744Y-26217205D01*
X35898102Y-26295226D01*
X36098061Y-26335000D01*
X36301939Y-26335000D01*
X36501898Y-26295226D01*
X36690256Y-26217205D01*
X36718907Y-26198061D01*
X44865000Y-26198061D01*
X44865000Y-26401939D01*
X44904774Y-26601898D01*
X44982795Y-26790256D01*
X45096063Y-26959774D01*
X45240226Y-27103937D01*
X45397585Y-27209081D01*
X45370598Y-27344756D01*
X45370598Y-27548634D01*
X45410372Y-27748593D01*
X45488393Y-27936951D01*
X45601661Y-28106469D01*
X45745824Y-28250632D01*
X45915342Y-28363900D01*
X46103700Y-28441921D01*
X46303659Y-28481695D01*
X46507537Y-28481695D01*
X46707496Y-28441921D01*
X46895854Y-28363900D01*
X46994389Y-28298061D01*
X55465000Y-28298061D01*
X55465000Y-28501939D01*
X55504774Y-28701898D01*
X55582795Y-28890256D01*
X55696063Y-29059774D01*
X55840226Y-29203937D01*
X56009744Y-29317205D01*
X56198102Y-29395226D01*
X56398061Y-29435000D01*
X56601939Y-29435000D01*
X56801898Y-29395226D01*
X56990256Y-29317205D01*
X57159774Y-29203937D01*
X57303937Y-29059774D01*
X57417205Y-28890256D01*
X57492673Y-28708061D01*
X61035000Y-28708061D01*
X61035000Y-28911939D01*
X61074774Y-29111898D01*
X61152795Y-29300256D01*
X61266063Y-29469774D01*
X61410226Y-29613937D01*
X61579744Y-29727205D01*
X61768102Y-29805226D01*
X61968061Y-29845000D01*
X62171939Y-29845000D01*
X62371898Y-29805226D01*
X62560256Y-29727205D01*
X62729774Y-29613937D01*
X62873937Y-29469774D01*
X62987205Y-29300256D01*
X63065226Y-29111898D01*
X63087483Y-29000000D01*
X66421928Y-29000000D01*
X66421928Y-31000000D01*
X66434188Y-31124482D01*
X66470498Y-31244180D01*
X66529463Y-31354494D01*
X66608815Y-31451185D01*
X66705506Y-31530537D01*
X66815820Y-31589502D01*
X66935518Y-31625812D01*
X67060000Y-31638072D01*
X69060000Y-31638072D01*
X69184482Y-31625812D01*
X69304180Y-31589502D01*
X69414494Y-31530537D01*
X69511185Y-31451185D01*
X69590537Y-31354494D01*
X69615191Y-31308370D01*
X69825537Y-31448918D01*
X70123088Y-31572168D01*
X70438967Y-31635000D01*
X70761033Y-31635000D01*
X71076912Y-31572168D01*
X71374463Y-31448918D01*
X71642252Y-31269987D01*
X71869987Y-31042252D01*
X71870000Y-31042233D01*
X71870013Y-31042252D01*
X72097748Y-31269987D01*
X72365537Y-31448918D01*
X72663088Y-31572168D01*
X72978967Y-31635000D01*
X73301033Y-31635000D01*
X73616912Y-31572168D01*
X73914463Y-31448918D01*
X74182252Y-31269987D01*
X74409987Y-31042252D01*
X74588918Y-30774463D01*
X74712168Y-30476912D01*
X74775000Y-30161033D01*
X74775000Y-29838967D01*
X74712168Y-29523088D01*
X74588918Y-29225537D01*
X74409987Y-28957748D01*
X74182252Y-28730013D01*
X73914463Y-28551082D01*
X73616912Y-28427832D01*
X73301033Y-28365000D01*
X73187600Y-28365000D01*
X73190256Y-28363900D01*
X73359774Y-28250632D01*
X73503937Y-28106469D01*
X73617205Y-27936951D01*
X73695226Y-27748593D01*
X73712864Y-27659921D01*
X73798102Y-27695228D01*
X73998061Y-27735002D01*
X74201939Y-27735002D01*
X74401898Y-27695228D01*
X74590256Y-27617207D01*
X74759774Y-27503939D01*
X74903937Y-27359776D01*
X75017205Y-27190258D01*
X75095226Y-27001900D01*
X75135000Y-26801941D01*
X75135000Y-26598063D01*
X75095226Y-26398104D01*
X75017205Y-26209746D01*
X74903937Y-26040228D01*
X74759774Y-25896065D01*
X74590256Y-25782797D01*
X74401898Y-25704776D01*
X74201939Y-25665002D01*
X73998061Y-25665002D01*
X73798102Y-25704776D01*
X73609744Y-25782797D01*
X73440226Y-25896065D01*
X73296063Y-26040228D01*
X73182795Y-26209746D01*
X73104774Y-26398104D01*
X73087136Y-26486776D01*
X73001898Y-26451469D01*
X72801939Y-26411695D01*
X72598061Y-26411695D01*
X72398102Y-26451469D01*
X72209744Y-26529490D01*
X72040226Y-26642758D01*
X71896063Y-26786921D01*
X71782795Y-26956439D01*
X71704774Y-27144797D01*
X71665000Y-27344756D01*
X71665000Y-27548634D01*
X71704774Y-27748593D01*
X71782795Y-27936951D01*
X71896063Y-28106469D01*
X72040226Y-28250632D01*
X72209744Y-28363900D01*
X72398102Y-28441921D01*
X72554142Y-28472959D01*
X72365537Y-28551082D01*
X72097748Y-28730013D01*
X71870013Y-28957748D01*
X71870000Y-28957767D01*
X71869987Y-28957748D01*
X71642252Y-28730013D01*
X71374463Y-28551082D01*
X71076912Y-28427832D01*
X70761033Y-28365000D01*
X70438967Y-28365000D01*
X70123088Y-28427832D01*
X69825537Y-28551082D01*
X69615191Y-28691630D01*
X69590537Y-28645506D01*
X69511185Y-28548815D01*
X69414494Y-28469463D01*
X69304180Y-28410498D01*
X69184482Y-28374188D01*
X69060000Y-28361928D01*
X67060000Y-28361928D01*
X66935518Y-28374188D01*
X66815820Y-28410498D01*
X66705506Y-28469463D01*
X66608815Y-28548815D01*
X66529463Y-28645506D01*
X66470498Y-28755820D01*
X66434188Y-28875518D01*
X66421928Y-29000000D01*
X63087483Y-29000000D01*
X63105000Y-28911939D01*
X63105000Y-28708061D01*
X63065226Y-28508102D01*
X62987205Y-28319744D01*
X62873937Y-28150226D01*
X62729774Y-28006063D01*
X62560256Y-27892795D01*
X62371898Y-27814774D01*
X62171939Y-27775000D01*
X61968061Y-27775000D01*
X61768102Y-27814774D01*
X61579744Y-27892795D01*
X61410226Y-28006063D01*
X61266063Y-28150226D01*
X61152795Y-28319744D01*
X61074774Y-28508102D01*
X61035000Y-28708061D01*
X57492673Y-28708061D01*
X57495226Y-28701898D01*
X57535000Y-28501939D01*
X57535000Y-28298061D01*
X57495226Y-28098102D01*
X57417205Y-27909744D01*
X57303937Y-27740226D01*
X57159774Y-27596063D01*
X56990256Y-27482795D01*
X56801898Y-27404774D01*
X56601939Y-27365000D01*
X56398061Y-27365000D01*
X56198102Y-27404774D01*
X56009744Y-27482795D01*
X55840226Y-27596063D01*
X55696063Y-27740226D01*
X55582795Y-27909744D01*
X55504774Y-28098102D01*
X55465000Y-28298061D01*
X46994389Y-28298061D01*
X47065372Y-28250632D01*
X47209535Y-28106469D01*
X47322803Y-27936951D01*
X47400824Y-27748593D01*
X47440598Y-27548634D01*
X47440598Y-27344756D01*
X47400824Y-27144797D01*
X47322803Y-26956439D01*
X47209535Y-26786921D01*
X47065372Y-26642758D01*
X46908013Y-26537614D01*
X46935000Y-26401939D01*
X46935000Y-26198061D01*
X46895226Y-25998102D01*
X46817205Y-25809744D01*
X46809399Y-25798061D01*
X55665000Y-25798061D01*
X55665000Y-26001939D01*
X55704774Y-26201898D01*
X55782795Y-26390256D01*
X55896063Y-26559774D01*
X56040226Y-26703937D01*
X56209744Y-26817205D01*
X56398102Y-26895226D01*
X56598061Y-26935000D01*
X56801939Y-26935000D01*
X57001898Y-26895226D01*
X57190256Y-26817205D01*
X57359774Y-26703937D01*
X57503937Y-26559774D01*
X57617205Y-26390256D01*
X57695226Y-26201898D01*
X57735000Y-26001939D01*
X57735000Y-25798061D01*
X57695226Y-25598102D01*
X57617205Y-25409744D01*
X57503937Y-25240226D01*
X57359774Y-25096063D01*
X57190256Y-24982795D01*
X57001898Y-24904774D01*
X56801939Y-24865000D01*
X56598061Y-24865000D01*
X56398102Y-24904774D01*
X56209744Y-24982795D01*
X56040226Y-25096063D01*
X55896063Y-25240226D01*
X55782795Y-25409744D01*
X55704774Y-25598102D01*
X55665000Y-25798061D01*
X46809399Y-25798061D01*
X46703937Y-25640226D01*
X46559774Y-25496063D01*
X46390256Y-25382795D01*
X46201898Y-25304774D01*
X46001939Y-25265000D01*
X45798061Y-25265000D01*
X45598102Y-25304774D01*
X45409744Y-25382795D01*
X45240226Y-25496063D01*
X45096063Y-25640226D01*
X44982795Y-25809744D01*
X44904774Y-25998102D01*
X44865000Y-26198061D01*
X36718907Y-26198061D01*
X36859774Y-26103937D01*
X37003937Y-25959774D01*
X37117205Y-25790256D01*
X37195226Y-25601898D01*
X37235000Y-25401939D01*
X37235000Y-25198061D01*
X37195226Y-24998102D01*
X37117205Y-24809744D01*
X37042582Y-24698061D01*
X59765000Y-24698061D01*
X59765000Y-24901939D01*
X59804774Y-25101898D01*
X59882795Y-25290256D01*
X59996063Y-25459774D01*
X60013449Y-25477160D01*
X60004774Y-25498102D01*
X59965000Y-25698061D01*
X59965000Y-25901939D01*
X60004774Y-26101898D01*
X60082795Y-26290256D01*
X60196063Y-26459774D01*
X60340226Y-26603937D01*
X60509744Y-26717205D01*
X60698102Y-26795226D01*
X60898061Y-26835000D01*
X61101939Y-26835000D01*
X61301898Y-26795226D01*
X61490256Y-26717205D01*
X61659774Y-26603937D01*
X61803937Y-26459774D01*
X61917205Y-26290256D01*
X61995226Y-26101898D01*
X62035000Y-25901939D01*
X62035000Y-25698061D01*
X62004504Y-25544746D01*
X82165000Y-25544746D01*
X82165000Y-25748624D01*
X82204774Y-25948583D01*
X82282795Y-26136941D01*
X82396063Y-26306459D01*
X82540226Y-26450622D01*
X82709744Y-26563890D01*
X82898102Y-26641911D01*
X83098061Y-26681685D01*
X83301939Y-26681685D01*
X83501898Y-26641911D01*
X83690256Y-26563890D01*
X83859774Y-26450622D01*
X84003937Y-26306459D01*
X84117205Y-26136941D01*
X84195226Y-25948583D01*
X84235000Y-25748624D01*
X84235000Y-25544746D01*
X84195226Y-25344787D01*
X84117205Y-25156429D01*
X84003937Y-24986911D01*
X83859774Y-24842748D01*
X83690256Y-24729480D01*
X83501898Y-24651459D01*
X83301939Y-24611685D01*
X83098061Y-24611685D01*
X82898102Y-24651459D01*
X82709744Y-24729480D01*
X82540226Y-24842748D01*
X82396063Y-24986911D01*
X82282795Y-25156429D01*
X82204774Y-25344787D01*
X82165000Y-25544746D01*
X62004504Y-25544746D01*
X61995226Y-25498102D01*
X61917205Y-25309744D01*
X61803937Y-25140226D01*
X61786551Y-25122840D01*
X61795226Y-25101898D01*
X61835000Y-24901939D01*
X61835000Y-24698061D01*
X61795226Y-24498102D01*
X61717205Y-24309744D01*
X61603937Y-24140226D01*
X61459774Y-23996063D01*
X61290256Y-23882795D01*
X61101898Y-23804774D01*
X60901939Y-23765000D01*
X60698061Y-23765000D01*
X60498102Y-23804774D01*
X60309744Y-23882795D01*
X60140226Y-23996063D01*
X59996063Y-24140226D01*
X59882795Y-24309744D01*
X59804774Y-24498102D01*
X59765000Y-24698061D01*
X37042582Y-24698061D01*
X37003937Y-24640226D01*
X36859774Y-24496063D01*
X36690256Y-24382795D01*
X36501898Y-24304774D01*
X36301939Y-24265000D01*
X36098061Y-24265000D01*
X35898102Y-24304774D01*
X35709744Y-24382795D01*
X35540226Y-24496063D01*
X35396063Y-24640226D01*
X35282795Y-24809744D01*
X35204774Y-24998102D01*
X35165000Y-25198061D01*
X31638072Y-25198061D01*
X31638072Y-24200000D01*
X31625812Y-24075518D01*
X31589502Y-23955820D01*
X31530537Y-23845506D01*
X31451185Y-23748815D01*
X31354494Y-23669463D01*
X31244180Y-23610498D01*
X31124482Y-23574188D01*
X31000000Y-23561928D01*
X29400000Y-23561928D01*
X29275518Y-23574188D01*
X29155820Y-23610498D01*
X29045506Y-23669463D01*
X28948815Y-23748815D01*
X28869463Y-23845506D01*
X28810498Y-23955820D01*
X28774188Y-24075518D01*
X28761928Y-24200000D01*
X23771317Y-24200000D01*
X23694637Y-24085241D01*
X23494759Y-23885363D01*
X23259727Y-23728320D01*
X22998574Y-23620147D01*
X22721335Y-23565000D01*
X22438665Y-23565000D01*
X22161426Y-23620147D01*
X21900273Y-23728320D01*
X21665241Y-23885363D01*
X21465363Y-24085241D01*
X21308320Y-24320273D01*
X21200147Y-24581426D01*
X21145000Y-24858665D01*
X660000Y-24858665D01*
X660000Y-23098061D01*
X35265000Y-23098061D01*
X35265000Y-23301939D01*
X35304774Y-23501898D01*
X35382795Y-23690256D01*
X35496063Y-23859774D01*
X35640226Y-24003937D01*
X35809744Y-24117205D01*
X35998102Y-24195226D01*
X36198061Y-24235000D01*
X36401939Y-24235000D01*
X36601898Y-24195226D01*
X36790256Y-24117205D01*
X36959774Y-24003937D01*
X37103937Y-23859774D01*
X37211989Y-23698061D01*
X78565000Y-23698061D01*
X78565000Y-23901939D01*
X78604774Y-24101898D01*
X78682795Y-24290256D01*
X78796063Y-24459774D01*
X78940226Y-24603937D01*
X79109744Y-24717205D01*
X79298102Y-24795226D01*
X79498061Y-24835000D01*
X79701939Y-24835000D01*
X79901898Y-24795226D01*
X80090256Y-24717205D01*
X80259774Y-24603937D01*
X80403937Y-24459774D01*
X80517205Y-24290256D01*
X80595226Y-24101898D01*
X80635000Y-23901939D01*
X80635000Y-23733852D01*
X85452836Y-23733852D01*
X85452836Y-23937730D01*
X85492610Y-24137689D01*
X85570631Y-24326047D01*
X85683899Y-24495565D01*
X85828062Y-24639728D01*
X85997580Y-24752996D01*
X86185938Y-24831017D01*
X86385897Y-24870791D01*
X86589775Y-24870791D01*
X86789734Y-24831017D01*
X86978092Y-24752996D01*
X87088659Y-24679118D01*
X87065000Y-24798061D01*
X87065000Y-25001939D01*
X87104774Y-25201898D01*
X87182795Y-25390256D01*
X87296063Y-25559774D01*
X87440226Y-25703937D01*
X87609744Y-25817205D01*
X87798102Y-25895226D01*
X87998061Y-25935000D01*
X88201939Y-25935000D01*
X88401898Y-25895226D01*
X88590256Y-25817205D01*
X88759774Y-25703937D01*
X88903937Y-25559774D01*
X89017205Y-25390256D01*
X89095226Y-25201898D01*
X89135000Y-25001939D01*
X89135000Y-24798061D01*
X89095226Y-24598102D01*
X89017205Y-24409744D01*
X88903937Y-24240226D01*
X88759774Y-24096063D01*
X88590256Y-23982795D01*
X88401898Y-23904774D01*
X88201939Y-23865000D01*
X87998061Y-23865000D01*
X87798102Y-23904774D01*
X87609744Y-23982795D01*
X87499177Y-24056673D01*
X87522836Y-23937730D01*
X87522836Y-23733852D01*
X87483062Y-23533893D01*
X87405041Y-23345535D01*
X87291773Y-23176017D01*
X87147610Y-23031854D01*
X86978092Y-22918586D01*
X86789734Y-22840565D01*
X86589775Y-22800791D01*
X86385897Y-22800791D01*
X86185938Y-22840565D01*
X85997580Y-22918586D01*
X85828062Y-23031854D01*
X85683899Y-23176017D01*
X85570631Y-23345535D01*
X85492610Y-23533893D01*
X85452836Y-23733852D01*
X80635000Y-23733852D01*
X80635000Y-23698061D01*
X80595226Y-23498102D01*
X80517205Y-23309744D01*
X80403937Y-23140226D01*
X80259774Y-22996063D01*
X80090256Y-22882795D01*
X79901898Y-22804774D01*
X79701939Y-22765000D01*
X79498061Y-22765000D01*
X79298102Y-22804774D01*
X79109744Y-22882795D01*
X78940226Y-22996063D01*
X78796063Y-23140226D01*
X78682795Y-23309744D01*
X78604774Y-23498102D01*
X78565000Y-23698061D01*
X37211989Y-23698061D01*
X37217205Y-23690256D01*
X37295226Y-23501898D01*
X37335000Y-23301939D01*
X37335000Y-23098061D01*
X37295226Y-22898102D01*
X37217205Y-22709744D01*
X37103937Y-22540226D01*
X36959774Y-22396063D01*
X36790256Y-22282795D01*
X36601898Y-22204774D01*
X36401939Y-22165000D01*
X36198061Y-22165000D01*
X35998102Y-22204774D01*
X35809744Y-22282795D01*
X35640226Y-22396063D01*
X35496063Y-22540226D01*
X35382795Y-22709744D01*
X35304774Y-22898102D01*
X35265000Y-23098061D01*
X660000Y-23098061D01*
X660000Y-20006073D01*
X60916746Y-20006073D01*
X60916746Y-20209951D01*
X60956520Y-20409910D01*
X61034541Y-20598268D01*
X61147809Y-20767786D01*
X61291972Y-20911949D01*
X61461490Y-21025217D01*
X61649848Y-21103238D01*
X61849807Y-21143012D01*
X62053685Y-21143012D01*
X62253644Y-21103238D01*
X62442002Y-21025217D01*
X62611520Y-20911949D01*
X62755683Y-20767786D01*
X62868951Y-20598268D01*
X62946972Y-20409910D01*
X62956148Y-20363778D01*
X62992471Y-20356553D01*
X63180829Y-20278532D01*
X63350347Y-20165264D01*
X63494510Y-20021101D01*
X63607778Y-19851583D01*
X63685799Y-19663225D01*
X63725573Y-19463266D01*
X63725573Y-19259388D01*
X63685799Y-19059429D01*
X63607778Y-18871071D01*
X63494510Y-18701553D01*
X63350347Y-18557390D01*
X63180829Y-18444122D01*
X62992471Y-18366101D01*
X62792512Y-18326327D01*
X62588634Y-18326327D01*
X62388675Y-18366101D01*
X62200317Y-18444122D01*
X62030799Y-18557390D01*
X61886636Y-18701553D01*
X61773368Y-18871071D01*
X61695347Y-19059429D01*
X61686171Y-19105561D01*
X61649848Y-19112786D01*
X61461490Y-19190807D01*
X61291972Y-19304075D01*
X61147809Y-19448238D01*
X61034541Y-19617756D01*
X60956520Y-19806114D01*
X60916746Y-20006073D01*
X660000Y-20006073D01*
X660000Y-17998061D01*
X46865000Y-17998061D01*
X46865000Y-18201939D01*
X46904774Y-18401898D01*
X46982795Y-18590256D01*
X47096063Y-18759774D01*
X47240226Y-18903937D01*
X47409744Y-19017205D01*
X47598102Y-19095226D01*
X47798061Y-19135000D01*
X48001939Y-19135000D01*
X48201898Y-19095226D01*
X48390256Y-19017205D01*
X48559774Y-18903937D01*
X48703937Y-18759774D01*
X48817205Y-18590256D01*
X48895226Y-18401898D01*
X48935000Y-18201939D01*
X48935000Y-17998061D01*
X48895226Y-17798102D01*
X48895210Y-17798061D01*
X77765000Y-17798061D01*
X77765000Y-18001939D01*
X77804774Y-18201898D01*
X77882795Y-18390256D01*
X77996063Y-18559774D01*
X78140226Y-18703937D01*
X78309744Y-18817205D01*
X78498102Y-18895226D01*
X78698061Y-18935000D01*
X78901939Y-18935000D01*
X79101898Y-18895226D01*
X79290256Y-18817205D01*
X79448056Y-18711767D01*
X79540226Y-18803937D01*
X79709744Y-18917205D01*
X79898102Y-18995226D01*
X80098061Y-19035000D01*
X80301939Y-19035000D01*
X80501898Y-18995226D01*
X80690256Y-18917205D01*
X80859774Y-18803937D01*
X81003937Y-18659774D01*
X81117205Y-18490256D01*
X81195226Y-18301898D01*
X81235000Y-18101939D01*
X81235000Y-17898061D01*
X81195226Y-17698102D01*
X81117205Y-17509744D01*
X81003937Y-17340226D01*
X80859774Y-17196063D01*
X80690256Y-17082795D01*
X80501898Y-17004774D01*
X80301939Y-16965000D01*
X80098061Y-16965000D01*
X79898102Y-17004774D01*
X79709744Y-17082795D01*
X79551944Y-17188233D01*
X79459774Y-17096063D01*
X79290256Y-16982795D01*
X79101898Y-16904774D01*
X78901939Y-16865000D01*
X78698061Y-16865000D01*
X78498102Y-16904774D01*
X78309744Y-16982795D01*
X78140226Y-17096063D01*
X77996063Y-17240226D01*
X77882795Y-17409744D01*
X77804774Y-17598102D01*
X77765000Y-17798061D01*
X48895210Y-17798061D01*
X48817205Y-17609744D01*
X48703937Y-17440226D01*
X48559774Y-17296063D01*
X48390256Y-17182795D01*
X48201898Y-17104774D01*
X48001939Y-17065000D01*
X47798061Y-17065000D01*
X47598102Y-17104774D01*
X47409744Y-17182795D01*
X47240226Y-17296063D01*
X47096063Y-17440226D01*
X46982795Y-17609744D01*
X46904774Y-17798102D01*
X46865000Y-17998061D01*
X660000Y-17998061D01*
X660000Y-16458061D01*
X59385000Y-16458061D01*
X59385000Y-16661939D01*
X59424774Y-16861898D01*
X59502795Y-17050256D01*
X59616063Y-17219774D01*
X59760226Y-17363937D01*
X59929744Y-17477205D01*
X60118102Y-17555226D01*
X60318061Y-17595000D01*
X60521939Y-17595000D01*
X60721898Y-17555226D01*
X60910256Y-17477205D01*
X61079774Y-17363937D01*
X61223937Y-17219774D01*
X61337205Y-17050256D01*
X61415226Y-16861898D01*
X61455000Y-16661939D01*
X61455000Y-16458061D01*
X61415226Y-16258102D01*
X61337205Y-16069744D01*
X61223937Y-15900226D01*
X61079774Y-15756063D01*
X60910256Y-15642795D01*
X60721898Y-15564774D01*
X60521939Y-15525000D01*
X60318061Y-15525000D01*
X60118102Y-15564774D01*
X59929744Y-15642795D01*
X59760226Y-15756063D01*
X59616063Y-15900226D01*
X59502795Y-16069744D01*
X59424774Y-16258102D01*
X59385000Y-16458061D01*
X660000Y-16458061D01*
X660000Y-13198061D01*
X43064997Y-13198061D01*
X43064997Y-13401939D01*
X43104771Y-13601898D01*
X43182792Y-13790256D01*
X43296060Y-13959774D01*
X43440223Y-14103937D01*
X43609741Y-14217205D01*
X43798099Y-14295226D01*
X43998058Y-14335000D01*
X44201936Y-14335000D01*
X44401895Y-14295226D01*
X44590253Y-14217205D01*
X44759771Y-14103937D01*
X44903934Y-13959774D01*
X45017202Y-13790256D01*
X45095223Y-13601898D01*
X45134997Y-13401939D01*
X45134997Y-13198061D01*
X45095223Y-12998102D01*
X45075299Y-12950000D01*
X61111928Y-12950000D01*
X61124188Y-13074482D01*
X61160498Y-13194180D01*
X61219463Y-13304494D01*
X61298815Y-13401185D01*
X61395506Y-13480537D01*
X61505820Y-13539502D01*
X61625518Y-13575812D01*
X61750000Y-13588072D01*
X63214250Y-13585000D01*
X63373000Y-13426250D01*
X63373000Y-11327000D01*
X63627000Y-11327000D01*
X63627000Y-13426250D01*
X63785750Y-13585000D01*
X65250000Y-13588072D01*
X65374482Y-13575812D01*
X65494180Y-13539502D01*
X65604494Y-13480537D01*
X65701185Y-13401185D01*
X65780537Y-13304494D01*
X65811928Y-13245767D01*
X65811928Y-15950000D01*
X65824188Y-16074482D01*
X65860498Y-16194180D01*
X65919463Y-16304494D01*
X65998815Y-16401185D01*
X66095506Y-16480537D01*
X66205820Y-16539502D01*
X66325518Y-16575812D01*
X66450000Y-16588072D01*
X69950000Y-16588072D01*
X70074482Y-16575812D01*
X70194180Y-16539502D01*
X70304494Y-16480537D01*
X70401185Y-16401185D01*
X70480537Y-16304494D01*
X70539502Y-16194180D01*
X70575812Y-16074482D01*
X70588072Y-15950000D01*
X70588072Y-12450000D01*
X70575812Y-12325518D01*
X70539502Y-12205820D01*
X70480537Y-12095506D01*
X70401185Y-11998815D01*
X70304494Y-11919463D01*
X70194180Y-11860498D01*
X70074482Y-11824188D01*
X69950000Y-11811928D01*
X66450000Y-11811928D01*
X66325518Y-11824188D01*
X66205820Y-11860498D01*
X66095506Y-11919463D01*
X65998815Y-11998815D01*
X65919463Y-12095506D01*
X65886409Y-12157345D01*
X65885000Y-11485750D01*
X65726250Y-11327000D01*
X63627000Y-11327000D01*
X63373000Y-11327000D01*
X61273750Y-11327000D01*
X61115000Y-11485750D01*
X61111928Y-12950000D01*
X45075299Y-12950000D01*
X45017202Y-12809744D01*
X44903934Y-12640226D01*
X44759771Y-12496063D01*
X44590253Y-12382795D01*
X44401895Y-12304774D01*
X44201936Y-12265000D01*
X43998058Y-12265000D01*
X43798099Y-12304774D01*
X43609741Y-12382795D01*
X43440223Y-12496063D01*
X43296060Y-12640226D01*
X43182792Y-12809744D01*
X43104771Y-12998102D01*
X43064997Y-13198061D01*
X660000Y-13198061D01*
X660000Y-9618665D01*
X21145000Y-9618665D01*
X21145000Y-9901335D01*
X21200147Y-10178574D01*
X21308320Y-10439727D01*
X21465363Y-10674759D01*
X21665241Y-10874637D01*
X21900273Y-11031680D01*
X22161426Y-11139853D01*
X22438665Y-11195000D01*
X22721335Y-11195000D01*
X22998574Y-11139853D01*
X23259727Y-11031680D01*
X23494759Y-10874637D01*
X23616694Y-10752702D01*
X29386903Y-10752702D01*
X29458486Y-10996671D01*
X29713996Y-11117571D01*
X29988184Y-11186300D01*
X30270512Y-11200217D01*
X30550130Y-11158787D01*
X30816292Y-11063603D01*
X30941514Y-10996671D01*
X31013097Y-10752702D01*
X30200000Y-9939605D01*
X29386903Y-10752702D01*
X23616694Y-10752702D01*
X23694637Y-10674759D01*
X23851680Y-10439727D01*
X23959853Y-10178574D01*
X24015000Y-9901335D01*
X24015000Y-9830512D01*
X28759783Y-9830512D01*
X28801213Y-10110130D01*
X28896397Y-10376292D01*
X28963329Y-10501514D01*
X29207298Y-10573097D01*
X30020395Y-9760000D01*
X30379605Y-9760000D01*
X31192702Y-10573097D01*
X31436671Y-10501514D01*
X31557571Y-10246004D01*
X31626300Y-9971816D01*
X31640217Y-9689488D01*
X31598787Y-9409870D01*
X31503603Y-9143708D01*
X31436671Y-9018486D01*
X31192702Y-8946903D01*
X30379605Y-9760000D01*
X30020395Y-9760000D01*
X29207298Y-8946903D01*
X28963329Y-9018486D01*
X28842429Y-9273996D01*
X28773700Y-9548184D01*
X28759783Y-9830512D01*
X24015000Y-9830512D01*
X24015000Y-9618665D01*
X23959853Y-9341426D01*
X23851680Y-9080273D01*
X23694637Y-8845241D01*
X23616694Y-8767298D01*
X29386903Y-8767298D01*
X30200000Y-9580395D01*
X31013097Y-8767298D01*
X30941514Y-8523329D01*
X30686004Y-8402429D01*
X30411816Y-8333700D01*
X30129488Y-8319783D01*
X29849870Y-8361213D01*
X29583708Y-8456397D01*
X29458486Y-8523329D01*
X29386903Y-8767298D01*
X23616694Y-8767298D01*
X23494759Y-8645363D01*
X23259727Y-8488320D01*
X22998574Y-8380147D01*
X22721335Y-8325000D01*
X22438665Y-8325000D01*
X22161426Y-8380147D01*
X21900273Y-8488320D01*
X21665241Y-8645363D01*
X21465363Y-8845241D01*
X21308320Y-9080273D01*
X21200147Y-9341426D01*
X21145000Y-9618665D01*
X660000Y-9618665D01*
X660000Y-6500881D01*
X1078724Y-6500881D01*
X1438912Y-6990548D01*
X2102882Y-7350849D01*
X2824385Y-7574694D01*
X3575695Y-7653480D01*
X4327938Y-7584178D01*
X5052208Y-7369452D01*
X5720670Y-7017555D01*
X5761088Y-6990548D01*
X6121276Y-6500881D01*
X3600000Y-3979605D01*
X1078724Y-6500881D01*
X660000Y-6500881D01*
X660000Y-6145385D01*
X899119Y-6321276D01*
X3420395Y-3800000D01*
X3779605Y-3800000D01*
X6300881Y-6321276D01*
X6790548Y-5961088D01*
X7150849Y-5297118D01*
X7271506Y-4908212D01*
X36595000Y-4908212D01*
X36595000Y-5131788D01*
X36638617Y-5351067D01*
X36724176Y-5557624D01*
X36789241Y-5655000D01*
X36724176Y-5752376D01*
X36638617Y-5958933D01*
X36595000Y-6178212D01*
X36595000Y-6401788D01*
X36638617Y-6621067D01*
X36724176Y-6827624D01*
X36789241Y-6925000D01*
X36724176Y-7022376D01*
X36638617Y-7228933D01*
X36595000Y-7448212D01*
X36595000Y-7671788D01*
X36638617Y-7891067D01*
X36724176Y-8097624D01*
X36789241Y-8195000D01*
X36724176Y-8292376D01*
X36638617Y-8498933D01*
X36595000Y-8718212D01*
X36595000Y-8941788D01*
X36638617Y-9161067D01*
X36724176Y-9367624D01*
X36789241Y-9465000D01*
X36724176Y-9562376D01*
X36638617Y-9768933D01*
X36595000Y-9988212D01*
X36595000Y-10211788D01*
X36638617Y-10431067D01*
X36724176Y-10637624D01*
X36848388Y-10823520D01*
X37006480Y-10981612D01*
X37192376Y-11105824D01*
X37398933Y-11191383D01*
X37618212Y-11235000D01*
X37841788Y-11235000D01*
X38061067Y-11191383D01*
X38172774Y-11145112D01*
X38255820Y-11189502D01*
X38375518Y-11225812D01*
X38500000Y-11238072D01*
X39500000Y-11238072D01*
X39624482Y-11225812D01*
X39744180Y-11189502D01*
X39854494Y-11130537D01*
X39951185Y-11051185D01*
X40030537Y-10954494D01*
X40089502Y-10844180D01*
X40125812Y-10724482D01*
X40138072Y-10600000D01*
X40138072Y-9600000D01*
X40125812Y-9475518D01*
X40118072Y-9450000D01*
X61111928Y-9450000D01*
X61115000Y-10914250D01*
X61273750Y-11073000D01*
X63373000Y-11073000D01*
X63373000Y-8973750D01*
X63627000Y-8973750D01*
X63627000Y-11073000D01*
X65726250Y-11073000D01*
X65885000Y-10914250D01*
X65886931Y-9993633D01*
X65919463Y-10054494D01*
X65998815Y-10151185D01*
X66095506Y-10230537D01*
X66205820Y-10289502D01*
X66325518Y-10325812D01*
X66450000Y-10338072D01*
X67914250Y-10335000D01*
X68073000Y-10176250D01*
X68073000Y-8327000D01*
X68327000Y-8327000D01*
X68327000Y-10176250D01*
X68485750Y-10335000D01*
X69950000Y-10338072D01*
X70074482Y-10325812D01*
X70194180Y-10289502D01*
X70304494Y-10230537D01*
X70401185Y-10151185D01*
X70480537Y-10054494D01*
X70539502Y-9944180D01*
X70575812Y-9824482D01*
X70588072Y-9700000D01*
X70585000Y-8485750D01*
X70426250Y-8327000D01*
X68327000Y-8327000D01*
X68073000Y-8327000D01*
X65973750Y-8327000D01*
X65815000Y-8485750D01*
X65813302Y-9156805D01*
X65780537Y-9095506D01*
X65701185Y-8998815D01*
X65604494Y-8919463D01*
X65494180Y-8860498D01*
X65374482Y-8824188D01*
X65250000Y-8811928D01*
X63785750Y-8815000D01*
X63627000Y-8973750D01*
X63373000Y-8973750D01*
X63214250Y-8815000D01*
X61750000Y-8811928D01*
X61625518Y-8824188D01*
X61505820Y-8860498D01*
X61395506Y-8919463D01*
X61298815Y-8998815D01*
X61219463Y-9095506D01*
X61160498Y-9205820D01*
X61124188Y-9325518D01*
X61111928Y-9450000D01*
X40118072Y-9450000D01*
X40089502Y-9355820D01*
X40041930Y-9266820D01*
X40077446Y-9186864D01*
X40094119Y-9131874D01*
X39967954Y-8957000D01*
X39127000Y-8957000D01*
X39127000Y-8961928D01*
X38873000Y-8961928D01*
X38873000Y-8957000D01*
X38861974Y-8957000D01*
X38865000Y-8941788D01*
X38865000Y-8718212D01*
X38861974Y-8703000D01*
X38873000Y-8703000D01*
X38873000Y-7687000D01*
X39127000Y-7687000D01*
X39127000Y-8703000D01*
X39967954Y-8703000D01*
X40094119Y-8528126D01*
X40077446Y-8473136D01*
X39987123Y-8269794D01*
X39971792Y-8248061D01*
X82025000Y-8248061D01*
X82025000Y-8451939D01*
X82064774Y-8651898D01*
X82142795Y-8840256D01*
X82256063Y-9009774D01*
X82400226Y-9153937D01*
X82569744Y-9267205D01*
X82758102Y-9345226D01*
X82958061Y-9385000D01*
X83161939Y-9385000D01*
X83361898Y-9345226D01*
X83550256Y-9267205D01*
X83719774Y-9153937D01*
X83863937Y-9009774D01*
X83977205Y-8840256D01*
X84055226Y-8651898D01*
X84095000Y-8451939D01*
X84095000Y-8248061D01*
X84055226Y-8048102D01*
X83980651Y-7868061D01*
X84698315Y-7868061D01*
X84698315Y-8071939D01*
X84738089Y-8271898D01*
X84816110Y-8460256D01*
X84929378Y-8629774D01*
X85073541Y-8773937D01*
X85243059Y-8887205D01*
X85431417Y-8965226D01*
X85631376Y-9005000D01*
X85835254Y-9005000D01*
X86035213Y-8965226D01*
X86223571Y-8887205D01*
X86393089Y-8773937D01*
X86537252Y-8629774D01*
X86650520Y-8460256D01*
X86728541Y-8271898D01*
X86768315Y-8071939D01*
X86768315Y-7868061D01*
X86728541Y-7668102D01*
X86650520Y-7479744D01*
X86537252Y-7310226D01*
X86393089Y-7166063D01*
X86223571Y-7052795D01*
X86035213Y-6974774D01*
X85835254Y-6935000D01*
X85631376Y-6935000D01*
X85431417Y-6974774D01*
X85243059Y-7052795D01*
X85073541Y-7166063D01*
X84929378Y-7310226D01*
X84816110Y-7479744D01*
X84738089Y-7668102D01*
X84698315Y-7868061D01*
X83980651Y-7868061D01*
X83977205Y-7859744D01*
X83863937Y-7690226D01*
X83719774Y-7546063D01*
X83550256Y-7432795D01*
X83361898Y-7354774D01*
X83161939Y-7315000D01*
X82958061Y-7315000D01*
X82758102Y-7354774D01*
X82569744Y-7432795D01*
X82400226Y-7546063D01*
X82256063Y-7690226D01*
X82142795Y-7859744D01*
X82064774Y-8048102D01*
X82025000Y-8248061D01*
X39971792Y-8248061D01*
X39934361Y-8195000D01*
X39987123Y-8120206D01*
X40077446Y-7916864D01*
X40094119Y-7861874D01*
X39967954Y-7687000D01*
X39127000Y-7687000D01*
X38873000Y-7687000D01*
X38861974Y-7687000D01*
X38865000Y-7671788D01*
X38865000Y-7448212D01*
X38861974Y-7433000D01*
X38873000Y-7433000D01*
X38873000Y-7421974D01*
X38888212Y-7425000D01*
X39111788Y-7425000D01*
X39127000Y-7421974D01*
X39127000Y-7433000D01*
X39967954Y-7433000D01*
X40094119Y-7258126D01*
X40077446Y-7203136D01*
X39987123Y-6999794D01*
X39937647Y-6929658D01*
X40005824Y-6827624D01*
X40058687Y-6700000D01*
X65811928Y-6700000D01*
X65815000Y-7914250D01*
X65973750Y-8073000D01*
X68073000Y-8073000D01*
X68073000Y-6223750D01*
X68327000Y-6223750D01*
X68327000Y-8073000D01*
X70426250Y-8073000D01*
X70585000Y-7914250D01*
X70588072Y-6700000D01*
X70575812Y-6575518D01*
X70539502Y-6455820D01*
X70480537Y-6345506D01*
X70443915Y-6300881D01*
X93878724Y-6300881D01*
X94238912Y-6790548D01*
X94902882Y-7150849D01*
X95624385Y-7374694D01*
X96375695Y-7453480D01*
X97127938Y-7384178D01*
X97852208Y-7169452D01*
X98520670Y-6817555D01*
X98561088Y-6790548D01*
X98921276Y-6300881D01*
X96400000Y-3779605D01*
X93878724Y-6300881D01*
X70443915Y-6300881D01*
X70401185Y-6248815D01*
X70304494Y-6169463D01*
X70194180Y-6110498D01*
X70074482Y-6074188D01*
X69950000Y-6061928D01*
X68485750Y-6065000D01*
X68327000Y-6223750D01*
X68073000Y-6223750D01*
X67914250Y-6065000D01*
X66450000Y-6061928D01*
X66325518Y-6074188D01*
X66205820Y-6110498D01*
X66095506Y-6169463D01*
X65998815Y-6248815D01*
X65919463Y-6345506D01*
X65860498Y-6455820D01*
X65824188Y-6575518D01*
X65811928Y-6700000D01*
X40058687Y-6700000D01*
X40091383Y-6621067D01*
X40135000Y-6401788D01*
X40135000Y-6178212D01*
X40091383Y-5958933D01*
X40005824Y-5752376D01*
X39937647Y-5650342D01*
X39987123Y-5580206D01*
X40077446Y-5376864D01*
X40094119Y-5321874D01*
X39967954Y-5147000D01*
X39127000Y-5147000D01*
X39127000Y-5158026D01*
X39111788Y-5155000D01*
X38888212Y-5155000D01*
X38873000Y-5158026D01*
X38873000Y-5147000D01*
X38861974Y-5147000D01*
X38865000Y-5131788D01*
X38865000Y-4908212D01*
X38861974Y-4893000D01*
X38873000Y-4893000D01*
X38873000Y-4050871D01*
X39127000Y-4050871D01*
X39127000Y-4893000D01*
X39967954Y-4893000D01*
X40094119Y-4718126D01*
X40077446Y-4663136D01*
X39987123Y-4459794D01*
X39858865Y-4277980D01*
X39697601Y-4124682D01*
X39509529Y-4005790D01*
X39301876Y-3925874D01*
X39127000Y-4050871D01*
X38873000Y-4050871D01*
X38698124Y-3925874D01*
X38490471Y-4005790D01*
X38369512Y-4082256D01*
X38267624Y-4014176D01*
X38061067Y-3928617D01*
X37841788Y-3885000D01*
X37618212Y-3885000D01*
X37398933Y-3928617D01*
X37192376Y-4014176D01*
X37006480Y-4138388D01*
X36848388Y-4296480D01*
X36724176Y-4482376D01*
X36638617Y-4688933D01*
X36595000Y-4908212D01*
X7271506Y-4908212D01*
X7374694Y-4575615D01*
X7450785Y-3850000D01*
X23911928Y-3850000D01*
X23924188Y-3974482D01*
X23960498Y-4094180D01*
X24019463Y-4204494D01*
X24098815Y-4301185D01*
X24195506Y-4380537D01*
X24305820Y-4439502D01*
X24425518Y-4475812D01*
X24550000Y-4488072D01*
X25114250Y-4485000D01*
X25273000Y-4326250D01*
X25273000Y-3127000D01*
X24073750Y-3127000D01*
X23915000Y-3285750D01*
X23911928Y-3850000D01*
X7450785Y-3850000D01*
X7453480Y-3824305D01*
X7384178Y-3072062D01*
X7169452Y-2347792D01*
X7065329Y-2150000D01*
X23911928Y-2150000D01*
X23915000Y-2714250D01*
X24073750Y-2873000D01*
X25273000Y-2873000D01*
X25273000Y-1673750D01*
X25527000Y-1673750D01*
X25527000Y-2873000D01*
X25547000Y-2873000D01*
X25547000Y-3127000D01*
X25527000Y-3127000D01*
X25527000Y-4326250D01*
X25685750Y-4485000D01*
X26250000Y-4488072D01*
X26374482Y-4475812D01*
X26494180Y-4439502D01*
X26604494Y-4380537D01*
X26701185Y-4301185D01*
X26780537Y-4204494D01*
X26839502Y-4094180D01*
X26861513Y-4021620D01*
X26993368Y-4153475D01*
X27236589Y-4315990D01*
X27506842Y-4427932D01*
X27793740Y-4485000D01*
X28086260Y-4485000D01*
X28373158Y-4427932D01*
X28643411Y-4315990D01*
X28886632Y-4153475D01*
X29093475Y-3946632D01*
X29255990Y-3703411D01*
X29367932Y-3433158D01*
X29425000Y-3146260D01*
X29425000Y-2853740D01*
X29367932Y-2566842D01*
X29255990Y-2296589D01*
X29093475Y-2053368D01*
X28886632Y-1846525D01*
X28643411Y-1684010D01*
X28373158Y-1572068D01*
X28086260Y-1515000D01*
X27793740Y-1515000D01*
X27506842Y-1572068D01*
X27236589Y-1684010D01*
X26993368Y-1846525D01*
X26861513Y-1978380D01*
X26839502Y-1905820D01*
X26780537Y-1795506D01*
X26701185Y-1698815D01*
X26604494Y-1619463D01*
X26494180Y-1560498D01*
X26374482Y-1524188D01*
X26250000Y-1511928D01*
X25685750Y-1515000D01*
X25527000Y-1673750D01*
X25273000Y-1673750D01*
X25114250Y-1515000D01*
X24550000Y-1511928D01*
X24425518Y-1524188D01*
X24305820Y-1560498D01*
X24195506Y-1619463D01*
X24098815Y-1698815D01*
X24019463Y-1795506D01*
X23960498Y-1905820D01*
X23924188Y-2025518D01*
X23911928Y-2150000D01*
X7065329Y-2150000D01*
X6817555Y-1679330D01*
X6790548Y-1638912D01*
X6300881Y-1278724D01*
X3779605Y-3800000D01*
X3420395Y-3800000D01*
X899119Y-1278724D01*
X660000Y-1454615D01*
X660000Y-660000D01*
X1401730Y-660000D01*
X1078724Y-1099119D01*
G37*
X1078724Y-1099119D02*
X3600000Y-3620395D01*
X6121276Y-1099119D01*
X5798270Y-660000D01*
X42665000Y-660000D01*
X42665000Y-973164D01*
X42682870Y-1154601D01*
X42753489Y-1387400D01*
X42868167Y-1601948D01*
X43022498Y-1790002D01*
X43210551Y-1944333D01*
X43425099Y-2059011D01*
X43657898Y-2129630D01*
X43900000Y-2153475D01*
X44142101Y-2129630D01*
X44152035Y-2126616D01*
X44033051Y-2206119D01*
X43843619Y-2395551D01*
X43694784Y-2618299D01*
X43592264Y-2865803D01*
X43540000Y-3128552D01*
X43540000Y-3396448D01*
X43592264Y-3659197D01*
X43694784Y-3906701D01*
X43843619Y-4129449D01*
X44033051Y-4318881D01*
X44255799Y-4467716D01*
X44503303Y-4570236D01*
X44766052Y-4622500D01*
X45033948Y-4622500D01*
X45296697Y-4570236D01*
X45544201Y-4467716D01*
X45766949Y-4318881D01*
X45956381Y-4129449D01*
X46105216Y-3906701D01*
X46207736Y-3659197D01*
X46260000Y-3396448D01*
X46260000Y-3128552D01*
X46207736Y-2865803D01*
X46105216Y-2618299D01*
X45956381Y-2395551D01*
X45766949Y-2206119D01*
X45544201Y-2057284D01*
X45296697Y-1954764D01*
X45033948Y-1902500D01*
X44766052Y-1902500D01*
X44600231Y-1935484D01*
X44777502Y-1790002D01*
X44931833Y-1601949D01*
X45046511Y-1387401D01*
X45117130Y-1154602D01*
X45135000Y-973165D01*
X45135000Y-660000D01*
X49665000Y-660000D01*
X49665000Y-973165D01*
X49682870Y-1154602D01*
X49753489Y-1387401D01*
X49868168Y-1601949D01*
X50022499Y-1790002D01*
X50199769Y-1935484D01*
X50033948Y-1902500D01*
X49766052Y-1902500D01*
X49503303Y-1954764D01*
X49255799Y-2057284D01*
X49033051Y-2206119D01*
X48843619Y-2395551D01*
X48694784Y-2618299D01*
X48592264Y-2865803D01*
X48540000Y-3128552D01*
X48540000Y-3396448D01*
X48592264Y-3659197D01*
X48694784Y-3906701D01*
X48843619Y-4129449D01*
X49033051Y-4318881D01*
X49255799Y-4467716D01*
X49503303Y-4570236D01*
X49766052Y-4622500D01*
X50033948Y-4622500D01*
X50296697Y-4570236D01*
X50544201Y-4467716D01*
X50766949Y-4318881D01*
X50956381Y-4129449D01*
X51105216Y-3906701D01*
X51207736Y-3659197D01*
X51224345Y-3575695D01*
X92546520Y-3575695D01*
X92615822Y-4327938D01*
X92830548Y-5052208D01*
X93182445Y-5720670D01*
X93209452Y-5761088D01*
X93699119Y-6121276D01*
X96220395Y-3600000D01*
X93699119Y-1078724D01*
X93209452Y-1438912D01*
X92849151Y-2102882D01*
X92625306Y-2824385D01*
X92546520Y-3575695D01*
X51224345Y-3575695D01*
X51260000Y-3396448D01*
X51260000Y-3128552D01*
X51207736Y-2865803D01*
X51105216Y-2618299D01*
X50956381Y-2395551D01*
X50766949Y-2206119D01*
X50647965Y-2126616D01*
X50657899Y-2129630D01*
X50900000Y-2153475D01*
X51142102Y-2129630D01*
X51374901Y-2059011D01*
X51589449Y-1944333D01*
X51777502Y-1790002D01*
X51931833Y-1601949D01*
X52046511Y-1387401D01*
X52117130Y-1154601D01*
X52135000Y-973164D01*
X52135000Y-660000D01*
X94054615Y-660000D01*
X93878724Y-899119D01*
X96400000Y-3420395D01*
X98921276Y-899119D01*
X98745385Y-660000D01*
X99340000Y-660000D01*
X99340000Y-1254615D01*
X99100881Y-1078724D01*
X96579605Y-3600000D01*
X99100881Y-6121276D01*
X99340000Y-5945385D01*
X99340001Y-94007500D01*
X99300881Y-93978724D01*
X96779605Y-96500000D01*
X99300881Y-99021276D01*
X99340001Y-98992500D01*
X99340001Y-99340000D01*
X99018943Y-99340000D01*
X99121276Y-99200881D01*
X96600000Y-96679605D01*
X94078724Y-99200881D01*
X94181057Y-99340000D01*
X5478034Y-99340000D01*
X5520670Y-99317555D01*
X5561088Y-99290548D01*
X5921276Y-98800881D01*
X3400000Y-96279605D01*
X878724Y-98800881D01*
X1238912Y-99290548D01*
X1330043Y-99340000D01*
X660000Y-99340000D01*
X660000Y-98592501D01*
X699119Y-98621276D01*
X3220395Y-96100000D01*
X3579605Y-96100000D01*
X6100881Y-98621276D01*
X6590548Y-98261088D01*
X6950849Y-97597118D01*
X7174694Y-96875615D01*
X7216631Y-96475695D01*
X92746520Y-96475695D01*
X92815822Y-97227938D01*
X93030548Y-97952208D01*
X93382445Y-98620670D01*
X93409452Y-98661088D01*
X93899119Y-99021276D01*
X96420395Y-96500000D01*
X93899119Y-93978724D01*
X93409452Y-94338912D01*
X93049151Y-95002882D01*
X92825306Y-95724385D01*
X92746520Y-96475695D01*
X7216631Y-96475695D01*
X7253480Y-96124305D01*
X7184178Y-95372062D01*
X6969452Y-94647792D01*
X6617555Y-93979330D01*
X6590548Y-93938912D01*
X6400503Y-93799119D01*
X94078724Y-93799119D01*
X96600000Y-96320395D01*
X99121276Y-93799119D01*
X98761088Y-93309452D01*
X98097118Y-92949151D01*
X97375615Y-92725306D01*
X96624305Y-92646520D01*
X95872062Y-92715822D01*
X95147792Y-92930548D01*
X94479330Y-93282445D01*
X94438912Y-93309452D01*
X94078724Y-93799119D01*
X6400503Y-93799119D01*
X6100881Y-93578724D01*
X3579605Y-96100000D01*
X3220395Y-96100000D01*
X699119Y-93578724D01*
X660000Y-93607499D01*
X660000Y-93399119D01*
X878724Y-93399119D01*
X3400000Y-95920395D01*
X5921276Y-93399119D01*
X5561088Y-92909452D01*
X4897118Y-92549151D01*
X4175615Y-92325306D01*
X3424305Y-92246520D01*
X2672062Y-92315822D01*
X1947792Y-92530548D01*
X1279330Y-92882445D01*
X1238912Y-92909452D01*
X878724Y-93399119D01*
X660000Y-93399119D01*
X660000Y-41035413D01*
X33644192Y-41035413D01*
X33739956Y-41299814D01*
X34029571Y-41440704D01*
X34341108Y-41522384D01*
X34662595Y-41541718D01*
X34981675Y-41497961D01*
X35286088Y-41392795D01*
X35460044Y-41299814D01*
X35555808Y-41035413D01*
X40144192Y-41035413D01*
X40239956Y-41299814D01*
X40529571Y-41440704D01*
X40841108Y-41522384D01*
X41162595Y-41541718D01*
X41481675Y-41497961D01*
X41786088Y-41392795D01*
X41960044Y-41299814D01*
X42055808Y-41035413D01*
X41100000Y-40079605D01*
X40144192Y-41035413D01*
X35555808Y-41035413D01*
X34600000Y-40079605D01*
X33644192Y-41035413D01*
X660000Y-41035413D01*
X660000Y-39962595D01*
X32958282Y-39962595D01*
X33002039Y-40281675D01*
X33107205Y-40586088D01*
X33200186Y-40760044D01*
X33464587Y-40855808D01*
X34420395Y-39900000D01*
X34779605Y-39900000D01*
X35735413Y-40855808D01*
X35999814Y-40760044D01*
X36140704Y-40470429D01*
X36222384Y-40158892D01*
X36234189Y-39962595D01*
X39458282Y-39962595D01*
X39502039Y-40281675D01*
X39607205Y-40586088D01*
X39700186Y-40760044D01*
X39964587Y-40855808D01*
X40920395Y-39900000D01*
X41279605Y-39900000D01*
X42235413Y-40855808D01*
X42499814Y-40760044D01*
X42640704Y-40470429D01*
X42722384Y-40158892D01*
X42741718Y-39837405D01*
X42697961Y-39518325D01*
X42592795Y-39213912D01*
X42499814Y-39039956D01*
X42235413Y-38944192D01*
X41279605Y-39900000D01*
X40920395Y-39900000D01*
X39964587Y-38944192D01*
X39700186Y-39039956D01*
X39559296Y-39329571D01*
X39477616Y-39641108D01*
X39458282Y-39962595D01*
X36234189Y-39962595D01*
X36241718Y-39837405D01*
X36197961Y-39518325D01*
X36092795Y-39213912D01*
X35999814Y-39039956D01*
X35735413Y-38944192D01*
X34779605Y-39900000D01*
X34420395Y-39900000D01*
X33464587Y-38944192D01*
X33200186Y-39039956D01*
X33059296Y-39329571D01*
X32977616Y-39641108D01*
X32958282Y-39962595D01*
X660000Y-39962595D01*
X660000Y-38764587D01*
X33644192Y-38764587D01*
X34600000Y-39720395D01*
X35555808Y-38764587D01*
X40144192Y-38764587D01*
X41100000Y-39720395D01*
X42055808Y-38764587D01*
X41960044Y-38500186D01*
X41670429Y-38359296D01*
X41358892Y-38277616D01*
X41037405Y-38258282D01*
X40718325Y-38302039D01*
X40413912Y-38407205D01*
X40239956Y-38500186D01*
X40144192Y-38764587D01*
X35555808Y-38764587D01*
X35460044Y-38500186D01*
X35170429Y-38359296D01*
X34858892Y-38277616D01*
X34537405Y-38258282D01*
X34218325Y-38302039D01*
X33913912Y-38407205D01*
X33739956Y-38500186D01*
X33644192Y-38764587D01*
X660000Y-38764587D01*
X660000Y-37958061D01*
X80805000Y-37958061D01*
X80805000Y-38161939D01*
X80844774Y-38361898D01*
X80922795Y-38550256D01*
X81036063Y-38719774D01*
X81180226Y-38863937D01*
X81349744Y-38977205D01*
X81538102Y-39055226D01*
X81738061Y-39095000D01*
X81941939Y-39095000D01*
X82141898Y-39055226D01*
X82330256Y-38977205D01*
X82499774Y-38863937D01*
X82643937Y-38719774D01*
X82757205Y-38550256D01*
X82835226Y-38361898D01*
X82875000Y-38161939D01*
X82875000Y-37958061D01*
X82835226Y-37758102D01*
X82757205Y-37569744D01*
X82643937Y-37400226D01*
X82499774Y-37256063D01*
X82330256Y-37142795D01*
X82141898Y-37064774D01*
X81941939Y-37025000D01*
X81738061Y-37025000D01*
X81538102Y-37064774D01*
X81349744Y-37142795D01*
X81180226Y-37256063D01*
X81036063Y-37400226D01*
X80922795Y-37569744D01*
X80844774Y-37758102D01*
X80805000Y-37958061D01*
X660000Y-37958061D01*
X660000Y-35238967D01*
X32965000Y-35238967D01*
X32965000Y-35561033D01*
X33027832Y-35876912D01*
X33151082Y-36174463D01*
X33330013Y-36442252D01*
X33557748Y-36669987D01*
X33825537Y-36848918D01*
X34123088Y-36972168D01*
X34438967Y-37035000D01*
X34761033Y-37035000D01*
X35076912Y-36972168D01*
X35374463Y-36848918D01*
X35642252Y-36669987D01*
X35869987Y-36442252D01*
X36048918Y-36174463D01*
X36172168Y-35876912D01*
X36235000Y-35561033D01*
X36235000Y-35238967D01*
X39465000Y-35238967D01*
X39465000Y-35561033D01*
X39527832Y-35876912D01*
X39651082Y-36174463D01*
X39830013Y-36442252D01*
X40057748Y-36669987D01*
X40325537Y-36848918D01*
X40623088Y-36972168D01*
X40938967Y-37035000D01*
X41261033Y-37035000D01*
X41576912Y-36972168D01*
X41874463Y-36848918D01*
X42142252Y-36669987D01*
X42369987Y-36442252D01*
X42548918Y-36174463D01*
X42672168Y-35876912D01*
X42735000Y-35561033D01*
X42735000Y-35238967D01*
X42672168Y-34923088D01*
X42548918Y-34625537D01*
X42396924Y-34398061D01*
X44865000Y-34398061D01*
X44865000Y-34601939D01*
X44904774Y-34801898D01*
X44982795Y-34990256D01*
X45096063Y-35159774D01*
X45240226Y-35303937D01*
X45409744Y-35417205D01*
X45598102Y-35495226D01*
X45798061Y-35535000D01*
X46001939Y-35535000D01*
X46201898Y-35495226D01*
X46390256Y-35417205D01*
X46559774Y-35303937D01*
X46703937Y-35159774D01*
X46817205Y-34990256D01*
X46895226Y-34801898D01*
X46935000Y-34601939D01*
X46935000Y-34398061D01*
X46915109Y-34298061D01*
X47365000Y-34298061D01*
X47365000Y-34501939D01*
X47404774Y-34701898D01*
X47482795Y-34890256D01*
X47596063Y-35059774D01*
X47740226Y-35203937D01*
X47909744Y-35317205D01*
X48098102Y-35395226D01*
X48298061Y-35435000D01*
X48501939Y-35435000D01*
X48701898Y-35395226D01*
X48890256Y-35317205D01*
X49059774Y-35203937D01*
X49203937Y-35059774D01*
X49317205Y-34890256D01*
X49395226Y-34701898D01*
X49435000Y-34501939D01*
X49435000Y-34398061D01*
X52665000Y-34398061D01*
X52665000Y-34601939D01*
X52704774Y-34801898D01*
X52782795Y-34990256D01*
X52896063Y-35159774D01*
X53040226Y-35303937D01*
X53209744Y-35417205D01*
X53398102Y-35495226D01*
X53598061Y-35535000D01*
X53801939Y-35535000D01*
X54001898Y-35495226D01*
X54190256Y-35417205D01*
X54359774Y-35303937D01*
X54503937Y-35159774D01*
X54617205Y-34990256D01*
X54695226Y-34801898D01*
X54735000Y-34601939D01*
X54735000Y-34530250D01*
X57948057Y-34530250D01*
X57948057Y-34734128D01*
X57987831Y-34934087D01*
X58065852Y-35122445D01*
X58179120Y-35291963D01*
X58323283Y-35436126D01*
X58492801Y-35549394D01*
X58681159Y-35627415D01*
X58881118Y-35667189D01*
X59084996Y-35667189D01*
X59284955Y-35627415D01*
X59473313Y-35549394D01*
X59642831Y-35436126D01*
X59786994Y-35291963D01*
X59900262Y-35122445D01*
X59978283Y-34934087D01*
X60018057Y-34734128D01*
X60018057Y-34530250D01*
X59978283Y-34330291D01*
X59900262Y-34141933D01*
X59786994Y-33972415D01*
X59642831Y-33828252D01*
X59473313Y-33714984D01*
X59284955Y-33636963D01*
X59084996Y-33597189D01*
X58881118Y-33597189D01*
X58681159Y-33636963D01*
X58492801Y-33714984D01*
X58323283Y-33828252D01*
X58179120Y-33972415D01*
X58065852Y-34141933D01*
X57987831Y-34330291D01*
X57948057Y-34530250D01*
X54735000Y-34530250D01*
X54735000Y-34398061D01*
X54695226Y-34198102D01*
X54617205Y-34009744D01*
X54503937Y-33840226D01*
X54359774Y-33696063D01*
X54190256Y-33582795D01*
X54001898Y-33504774D01*
X53801939Y-33465000D01*
X53598061Y-33465000D01*
X53398102Y-33504774D01*
X53209744Y-33582795D01*
X53040226Y-33696063D01*
X52896063Y-33840226D01*
X52782795Y-34009744D01*
X52704774Y-34198102D01*
X52665000Y-34398061D01*
X49435000Y-34398061D01*
X49435000Y-34298061D01*
X49395226Y-34098102D01*
X49317205Y-33909744D01*
X49203937Y-33740226D01*
X49059774Y-33596063D01*
X48890256Y-33482795D01*
X48701898Y-33404774D01*
X48501939Y-33365000D01*
X48298061Y-33365000D01*
X48098102Y-33404774D01*
X47909744Y-33482795D01*
X47740226Y-33596063D01*
X47596063Y-33740226D01*
X47482795Y-33909744D01*
X47404774Y-34098102D01*
X47365000Y-34298061D01*
X46915109Y-34298061D01*
X46895226Y-34198102D01*
X46817205Y-34009744D01*
X46703937Y-33840226D01*
X46559774Y-33696063D01*
X46390256Y-33582795D01*
X46201898Y-33504774D01*
X46001939Y-33465000D01*
X45798061Y-33465000D01*
X45598102Y-33504774D01*
X45409744Y-33582795D01*
X45240226Y-33696063D01*
X45096063Y-33840226D01*
X44982795Y-34009744D01*
X44904774Y-34198102D01*
X44865000Y-34398061D01*
X42396924Y-34398061D01*
X42369987Y-34357748D01*
X42142252Y-34130013D01*
X41874463Y-33951082D01*
X41576912Y-33827832D01*
X41261033Y-33765000D01*
X40938967Y-33765000D01*
X40623088Y-33827832D01*
X40325537Y-33951082D01*
X40057748Y-34130013D01*
X39830013Y-34357748D01*
X39651082Y-34625537D01*
X39527832Y-34923088D01*
X39465000Y-35238967D01*
X36235000Y-35238967D01*
X36172168Y-34923088D01*
X36048918Y-34625537D01*
X35869987Y-34357748D01*
X35642252Y-34130013D01*
X35374463Y-33951082D01*
X35076912Y-33827832D01*
X34761033Y-33765000D01*
X34438967Y-33765000D01*
X34123088Y-33827832D01*
X33825537Y-33951082D01*
X33557748Y-34130013D01*
X33330013Y-34357748D01*
X33151082Y-34625537D01*
X33027832Y-34923088D01*
X32965000Y-35238967D01*
X660000Y-35238967D01*
X660000Y-32798061D01*
X29065000Y-32798061D01*
X29065000Y-33001939D01*
X29104774Y-33201898D01*
X29182795Y-33390256D01*
X29296063Y-33559774D01*
X29440226Y-33703937D01*
X29609744Y-33817205D01*
X29798102Y-33895226D01*
X29998061Y-33935000D01*
X30201939Y-33935000D01*
X30401898Y-33895226D01*
X30590256Y-33817205D01*
X30759774Y-33703937D01*
X30903937Y-33559774D01*
X31017205Y-33390256D01*
X31095226Y-33201898D01*
X31135000Y-33001939D01*
X31135000Y-32798061D01*
X31095226Y-32598102D01*
X31017205Y-32409744D01*
X30903937Y-32240226D01*
X30759774Y-32096063D01*
X30590256Y-31982795D01*
X30401898Y-31904774D01*
X30201939Y-31865000D01*
X29998061Y-31865000D01*
X29798102Y-31904774D01*
X29609744Y-31982795D01*
X29440226Y-32096063D01*
X29296063Y-32240226D01*
X29182795Y-32409744D01*
X29104774Y-32598102D01*
X29065000Y-32798061D01*
X660000Y-32798061D01*
X660000Y-30898061D01*
X21665000Y-30898061D01*
X21665000Y-31101939D01*
X21704774Y-31301898D01*
X21782795Y-31490256D01*
X21896063Y-31659774D01*
X22040226Y-31803937D01*
X22209744Y-31917205D01*
X22398102Y-31995226D01*
X22598061Y-32035000D01*
X22801939Y-32035000D01*
X23001898Y-31995226D01*
X23190256Y-31917205D01*
X23359774Y-31803937D01*
X23503937Y-31659774D01*
X23617205Y-31490256D01*
X23695226Y-31301898D01*
X23735000Y-31101939D01*
X23735000Y-30898061D01*
X23695226Y-30698102D01*
X23617205Y-30509744D01*
X23503937Y-30340226D01*
X23359774Y-30196063D01*
X23190256Y-30082795D01*
X23001898Y-30004774D01*
X22801939Y-29965000D01*
X22598061Y-29965000D01*
X22398102Y-30004774D01*
X22209744Y-30082795D01*
X22040226Y-30196063D01*
X21896063Y-30340226D01*
X21782795Y-30509744D01*
X21704774Y-30698102D01*
X21665000Y-30898061D01*
X660000Y-30898061D01*
X660000Y-27798061D01*
X37465000Y-27798061D01*
X37465000Y-28001939D01*
X37504774Y-28201898D01*
X37582795Y-28390256D01*
X37696063Y-28559774D01*
X37840226Y-28703937D01*
X38009744Y-28817205D01*
X38198102Y-28895226D01*
X38398061Y-28935000D01*
X38601939Y-28935000D01*
X38725958Y-28910331D01*
X38596063Y-29040226D01*
X38482795Y-29209744D01*
X38404774Y-29398102D01*
X38365000Y-29598061D01*
X38365000Y-29801939D01*
X38404774Y-30001898D01*
X38482795Y-30190256D01*
X38596063Y-30359774D01*
X38740226Y-30503937D01*
X38909744Y-30617205D01*
X39098102Y-30695226D01*
X39298061Y-30735000D01*
X39501939Y-30735000D01*
X39701898Y-30695226D01*
X39890256Y-30617205D01*
X40059774Y-30503937D01*
X40203937Y-30359774D01*
X40317205Y-30190256D01*
X40395226Y-30001898D01*
X40435000Y-29801939D01*
X40435000Y-29698061D01*
X45065000Y-29698061D01*
X45065000Y-29901939D01*
X45104774Y-30101898D01*
X45182795Y-30290256D01*
X45296063Y-30459774D01*
X45440226Y-30603937D01*
X45609744Y-30717205D01*
X45798102Y-30795226D01*
X45998061Y-30835000D01*
X46201939Y-30835000D01*
X46401898Y-30795226D01*
X46590256Y-30717205D01*
X46759774Y-30603937D01*
X46903937Y-30459774D01*
X47017205Y-30290256D01*
X47095226Y-30101898D01*
X47135000Y-29901939D01*
X47135000Y-29698061D01*
X47095226Y-29498102D01*
X47017205Y-29309744D01*
X46903937Y-29140226D01*
X46759774Y-28996063D01*
X46590256Y-28882795D01*
X46401898Y-28804774D01*
X46201939Y-28765000D01*
X45998061Y-28765000D01*
X45798102Y-28804774D01*
X45609744Y-28882795D01*
X45440226Y-28996063D01*
X45296063Y-29140226D01*
X45182795Y-29309744D01*
X45104774Y-29498102D01*
X45065000Y-29698061D01*
X40435000Y-29698061D01*
X40435000Y-29598061D01*
X40395226Y-29398102D01*
X40317205Y-29209744D01*
X40203937Y-29040226D01*
X40059774Y-28896063D01*
X39890256Y-28782795D01*
X39701898Y-28704774D01*
X39501939Y-28665000D01*
X39298061Y-28665000D01*
X39174042Y-28689669D01*
X39303937Y-28559774D01*
X39417205Y-28390256D01*
X39495226Y-28201898D01*
X39535000Y-28001939D01*
X39535000Y-27798061D01*
X39495226Y-27598102D01*
X39417205Y-27409744D01*
X39303937Y-27240226D01*
X39159774Y-27096063D01*
X38990256Y-26982795D01*
X38801898Y-26904774D01*
X38601939Y-26865000D01*
X38398061Y-26865000D01*
X38198102Y-26904774D01*
X38009744Y-26982795D01*
X37840226Y-27096063D01*
X37696063Y-27240226D01*
X37582795Y-27409744D01*
X37504774Y-27598102D01*
X37465000Y-27798061D01*
X660000Y-27798061D01*
X660000Y-24858665D01*
X21145000Y-24858665D01*
X21145000Y-25141335D01*
X21200147Y-25418574D01*
X21308320Y-25679727D01*
X21465363Y-25914759D01*
X21665241Y-26114637D01*
X21900273Y-26271680D01*
X22161426Y-26379853D01*
X22438665Y-26435000D01*
X22721335Y-26435000D01*
X22998574Y-26379853D01*
X23259727Y-26271680D01*
X23494759Y-26114637D01*
X23694637Y-25914759D01*
X23851680Y-25679727D01*
X23959853Y-25418574D01*
X24015000Y-25141335D01*
X24015000Y-24858665D01*
X23959853Y-24581426D01*
X23851680Y-24320273D01*
X23771317Y-24200000D01*
X28761928Y-24200000D01*
X28761928Y-25800000D01*
X28774188Y-25924482D01*
X28810498Y-26044180D01*
X28869463Y-26154494D01*
X28948815Y-26251185D01*
X29045506Y-26330537D01*
X29155820Y-26389502D01*
X29275518Y-26425812D01*
X29400000Y-26438072D01*
X31000000Y-26438072D01*
X31124482Y-26425812D01*
X31244180Y-26389502D01*
X31354494Y-26330537D01*
X31451185Y-26251185D01*
X31530537Y-26154494D01*
X31589502Y-26044180D01*
X31625812Y-25924482D01*
X31638072Y-25800000D01*
X31638072Y-25198061D01*
X35165000Y-25198061D01*
X35165000Y-25401939D01*
X35204774Y-25601898D01*
X35282795Y-25790256D01*
X35396063Y-25959774D01*
X35540226Y-26103937D01*
X35709744Y-26217205D01*
X35898102Y-26295226D01*
X36098061Y-26335000D01*
X36301939Y-26335000D01*
X36501898Y-26295226D01*
X36690256Y-26217205D01*
X36718907Y-26198061D01*
X44865000Y-26198061D01*
X44865000Y-26401939D01*
X44904774Y-26601898D01*
X44982795Y-26790256D01*
X45096063Y-26959774D01*
X45240226Y-27103937D01*
X45397585Y-27209081D01*
X45370598Y-27344756D01*
X45370598Y-27548634D01*
X45410372Y-27748593D01*
X45488393Y-27936951D01*
X45601661Y-28106469D01*
X45745824Y-28250632D01*
X45915342Y-28363900D01*
X46103700Y-28441921D01*
X46303659Y-28481695D01*
X46507537Y-28481695D01*
X46707496Y-28441921D01*
X46895854Y-28363900D01*
X46994389Y-28298061D01*
X55465000Y-28298061D01*
X55465000Y-28501939D01*
X55504774Y-28701898D01*
X55582795Y-28890256D01*
X55696063Y-29059774D01*
X55840226Y-29203937D01*
X56009744Y-29317205D01*
X56198102Y-29395226D01*
X56398061Y-29435000D01*
X56601939Y-29435000D01*
X56801898Y-29395226D01*
X56990256Y-29317205D01*
X57159774Y-29203937D01*
X57303937Y-29059774D01*
X57417205Y-28890256D01*
X57492673Y-28708061D01*
X61035000Y-28708061D01*
X61035000Y-28911939D01*
X61074774Y-29111898D01*
X61152795Y-29300256D01*
X61266063Y-29469774D01*
X61410226Y-29613937D01*
X61579744Y-29727205D01*
X61768102Y-29805226D01*
X61968061Y-29845000D01*
X62171939Y-29845000D01*
X62371898Y-29805226D01*
X62560256Y-29727205D01*
X62729774Y-29613937D01*
X62873937Y-29469774D01*
X62987205Y-29300256D01*
X63065226Y-29111898D01*
X63087483Y-29000000D01*
X66421928Y-29000000D01*
X66421928Y-31000000D01*
X66434188Y-31124482D01*
X66470498Y-31244180D01*
X66529463Y-31354494D01*
X66608815Y-31451185D01*
X66705506Y-31530537D01*
X66815820Y-31589502D01*
X66935518Y-31625812D01*
X67060000Y-31638072D01*
X69060000Y-31638072D01*
X69184482Y-31625812D01*
X69304180Y-31589502D01*
X69414494Y-31530537D01*
X69511185Y-31451185D01*
X69590537Y-31354494D01*
X69615191Y-31308370D01*
X69825537Y-31448918D01*
X70123088Y-31572168D01*
X70438967Y-31635000D01*
X70761033Y-31635000D01*
X71076912Y-31572168D01*
X71374463Y-31448918D01*
X71642252Y-31269987D01*
X71869987Y-31042252D01*
X71870000Y-31042233D01*
X71870013Y-31042252D01*
X72097748Y-31269987D01*
X72365537Y-31448918D01*
X72663088Y-31572168D01*
X72978967Y-31635000D01*
X73301033Y-31635000D01*
X73616912Y-31572168D01*
X73914463Y-31448918D01*
X74182252Y-31269987D01*
X74409987Y-31042252D01*
X74588918Y-30774463D01*
X74712168Y-30476912D01*
X74775000Y-30161033D01*
X74775000Y-29838967D01*
X74712168Y-29523088D01*
X74588918Y-29225537D01*
X74409987Y-28957748D01*
X74182252Y-28730013D01*
X73914463Y-28551082D01*
X73616912Y-28427832D01*
X73301033Y-28365000D01*
X73187600Y-28365000D01*
X73190256Y-28363900D01*
X73359774Y-28250632D01*
X73503937Y-28106469D01*
X73617205Y-27936951D01*
X73695226Y-27748593D01*
X73712864Y-27659921D01*
X73798102Y-27695228D01*
X73998061Y-27735002D01*
X74201939Y-27735002D01*
X74401898Y-27695228D01*
X74590256Y-27617207D01*
X74759774Y-27503939D01*
X74903937Y-27359776D01*
X75017205Y-27190258D01*
X75095226Y-27001900D01*
X75135000Y-26801941D01*
X75135000Y-26598063D01*
X75095226Y-26398104D01*
X75017205Y-26209746D01*
X74903937Y-26040228D01*
X74759774Y-25896065D01*
X74590256Y-25782797D01*
X74401898Y-25704776D01*
X74201939Y-25665002D01*
X73998061Y-25665002D01*
X73798102Y-25704776D01*
X73609744Y-25782797D01*
X73440226Y-25896065D01*
X73296063Y-26040228D01*
X73182795Y-26209746D01*
X73104774Y-26398104D01*
X73087136Y-26486776D01*
X73001898Y-26451469D01*
X72801939Y-26411695D01*
X72598061Y-26411695D01*
X72398102Y-26451469D01*
X72209744Y-26529490D01*
X72040226Y-26642758D01*
X71896063Y-26786921D01*
X71782795Y-26956439D01*
X71704774Y-27144797D01*
X71665000Y-27344756D01*
X71665000Y-27548634D01*
X71704774Y-27748593D01*
X71782795Y-27936951D01*
X71896063Y-28106469D01*
X72040226Y-28250632D01*
X72209744Y-28363900D01*
X72398102Y-28441921D01*
X72554142Y-28472959D01*
X72365537Y-28551082D01*
X72097748Y-28730013D01*
X71870013Y-28957748D01*
X71870000Y-28957767D01*
X71869987Y-28957748D01*
X71642252Y-28730013D01*
X71374463Y-28551082D01*
X71076912Y-28427832D01*
X70761033Y-28365000D01*
X70438967Y-28365000D01*
X70123088Y-28427832D01*
X69825537Y-28551082D01*
X69615191Y-28691630D01*
X69590537Y-28645506D01*
X69511185Y-28548815D01*
X69414494Y-28469463D01*
X69304180Y-28410498D01*
X69184482Y-28374188D01*
X69060000Y-28361928D01*
X67060000Y-28361928D01*
X66935518Y-28374188D01*
X66815820Y-28410498D01*
X66705506Y-28469463D01*
X66608815Y-28548815D01*
X66529463Y-28645506D01*
X66470498Y-28755820D01*
X66434188Y-28875518D01*
X66421928Y-29000000D01*
X63087483Y-29000000D01*
X63105000Y-28911939D01*
X63105000Y-28708061D01*
X63065226Y-28508102D01*
X62987205Y-28319744D01*
X62873937Y-28150226D01*
X62729774Y-28006063D01*
X62560256Y-27892795D01*
X62371898Y-27814774D01*
X62171939Y-27775000D01*
X61968061Y-27775000D01*
X61768102Y-27814774D01*
X61579744Y-27892795D01*
X61410226Y-28006063D01*
X61266063Y-28150226D01*
X61152795Y-28319744D01*
X61074774Y-28508102D01*
X61035000Y-28708061D01*
X57492673Y-28708061D01*
X57495226Y-28701898D01*
X57535000Y-28501939D01*
X57535000Y-28298061D01*
X57495226Y-28098102D01*
X57417205Y-27909744D01*
X57303937Y-27740226D01*
X57159774Y-27596063D01*
X56990256Y-27482795D01*
X56801898Y-27404774D01*
X56601939Y-27365000D01*
X56398061Y-27365000D01*
X56198102Y-27404774D01*
X56009744Y-27482795D01*
X55840226Y-27596063D01*
X55696063Y-27740226D01*
X55582795Y-27909744D01*
X55504774Y-28098102D01*
X55465000Y-28298061D01*
X46994389Y-28298061D01*
X47065372Y-28250632D01*
X47209535Y-28106469D01*
X47322803Y-27936951D01*
X47400824Y-27748593D01*
X47440598Y-27548634D01*
X47440598Y-27344756D01*
X47400824Y-27144797D01*
X47322803Y-26956439D01*
X47209535Y-26786921D01*
X47065372Y-26642758D01*
X46908013Y-26537614D01*
X46935000Y-26401939D01*
X46935000Y-26198061D01*
X46895226Y-25998102D01*
X46817205Y-25809744D01*
X46809399Y-25798061D01*
X55665000Y-25798061D01*
X55665000Y-26001939D01*
X55704774Y-26201898D01*
X55782795Y-26390256D01*
X55896063Y-26559774D01*
X56040226Y-26703937D01*
X56209744Y-26817205D01*
X56398102Y-26895226D01*
X56598061Y-26935000D01*
X56801939Y-26935000D01*
X57001898Y-26895226D01*
X57190256Y-26817205D01*
X57359774Y-26703937D01*
X57503937Y-26559774D01*
X57617205Y-26390256D01*
X57695226Y-26201898D01*
X57735000Y-26001939D01*
X57735000Y-25798061D01*
X57695226Y-25598102D01*
X57617205Y-25409744D01*
X57503937Y-25240226D01*
X57359774Y-25096063D01*
X57190256Y-24982795D01*
X57001898Y-24904774D01*
X56801939Y-24865000D01*
X56598061Y-24865000D01*
X56398102Y-24904774D01*
X56209744Y-24982795D01*
X56040226Y-25096063D01*
X55896063Y-25240226D01*
X55782795Y-25409744D01*
X55704774Y-25598102D01*
X55665000Y-25798061D01*
X46809399Y-25798061D01*
X46703937Y-25640226D01*
X46559774Y-25496063D01*
X46390256Y-25382795D01*
X46201898Y-25304774D01*
X46001939Y-25265000D01*
X45798061Y-25265000D01*
X45598102Y-25304774D01*
X45409744Y-25382795D01*
X45240226Y-25496063D01*
X45096063Y-25640226D01*
X44982795Y-25809744D01*
X44904774Y-25998102D01*
X44865000Y-26198061D01*
X36718907Y-26198061D01*
X36859774Y-26103937D01*
X37003937Y-25959774D01*
X37117205Y-25790256D01*
X37195226Y-25601898D01*
X37235000Y-25401939D01*
X37235000Y-25198061D01*
X37195226Y-24998102D01*
X37117205Y-24809744D01*
X37042582Y-24698061D01*
X59765000Y-24698061D01*
X59765000Y-24901939D01*
X59804774Y-25101898D01*
X59882795Y-25290256D01*
X59996063Y-25459774D01*
X60013449Y-25477160D01*
X60004774Y-25498102D01*
X59965000Y-25698061D01*
X59965000Y-25901939D01*
X60004774Y-26101898D01*
X60082795Y-26290256D01*
X60196063Y-26459774D01*
X60340226Y-26603937D01*
X60509744Y-26717205D01*
X60698102Y-26795226D01*
X60898061Y-26835000D01*
X61101939Y-26835000D01*
X61301898Y-26795226D01*
X61490256Y-26717205D01*
X61659774Y-26603937D01*
X61803937Y-26459774D01*
X61917205Y-26290256D01*
X61995226Y-26101898D01*
X62035000Y-25901939D01*
X62035000Y-25698061D01*
X62004504Y-25544746D01*
X82165000Y-25544746D01*
X82165000Y-25748624D01*
X82204774Y-25948583D01*
X82282795Y-26136941D01*
X82396063Y-26306459D01*
X82540226Y-26450622D01*
X82709744Y-26563890D01*
X82898102Y-26641911D01*
X83098061Y-26681685D01*
X83301939Y-26681685D01*
X83501898Y-26641911D01*
X83690256Y-26563890D01*
X83859774Y-26450622D01*
X84003937Y-26306459D01*
X84117205Y-26136941D01*
X84195226Y-25948583D01*
X84235000Y-25748624D01*
X84235000Y-25544746D01*
X84195226Y-25344787D01*
X84117205Y-25156429D01*
X84003937Y-24986911D01*
X83859774Y-24842748D01*
X83690256Y-24729480D01*
X83501898Y-24651459D01*
X83301939Y-24611685D01*
X83098061Y-24611685D01*
X82898102Y-24651459D01*
X82709744Y-24729480D01*
X82540226Y-24842748D01*
X82396063Y-24986911D01*
X82282795Y-25156429D01*
X82204774Y-25344787D01*
X82165000Y-25544746D01*
X62004504Y-25544746D01*
X61995226Y-25498102D01*
X61917205Y-25309744D01*
X61803937Y-25140226D01*
X61786551Y-25122840D01*
X61795226Y-25101898D01*
X61835000Y-24901939D01*
X61835000Y-24698061D01*
X61795226Y-24498102D01*
X61717205Y-24309744D01*
X61603937Y-24140226D01*
X61459774Y-23996063D01*
X61290256Y-23882795D01*
X61101898Y-23804774D01*
X60901939Y-23765000D01*
X60698061Y-23765000D01*
X60498102Y-23804774D01*
X60309744Y-23882795D01*
X60140226Y-23996063D01*
X59996063Y-24140226D01*
X59882795Y-24309744D01*
X59804774Y-24498102D01*
X59765000Y-24698061D01*
X37042582Y-24698061D01*
X37003937Y-24640226D01*
X36859774Y-24496063D01*
X36690256Y-24382795D01*
X36501898Y-24304774D01*
X36301939Y-24265000D01*
X36098061Y-24265000D01*
X35898102Y-24304774D01*
X35709744Y-24382795D01*
X35540226Y-24496063D01*
X35396063Y-24640226D01*
X35282795Y-24809744D01*
X35204774Y-24998102D01*
X35165000Y-25198061D01*
X31638072Y-25198061D01*
X31638072Y-24200000D01*
X31625812Y-24075518D01*
X31589502Y-23955820D01*
X31530537Y-23845506D01*
X31451185Y-23748815D01*
X31354494Y-23669463D01*
X31244180Y-23610498D01*
X31124482Y-23574188D01*
X31000000Y-23561928D01*
X29400000Y-23561928D01*
X29275518Y-23574188D01*
X29155820Y-23610498D01*
X29045506Y-23669463D01*
X28948815Y-23748815D01*
X28869463Y-23845506D01*
X28810498Y-23955820D01*
X28774188Y-24075518D01*
X28761928Y-24200000D01*
X23771317Y-24200000D01*
X23694637Y-24085241D01*
X23494759Y-23885363D01*
X23259727Y-23728320D01*
X22998574Y-23620147D01*
X22721335Y-23565000D01*
X22438665Y-23565000D01*
X22161426Y-23620147D01*
X21900273Y-23728320D01*
X21665241Y-23885363D01*
X21465363Y-24085241D01*
X21308320Y-24320273D01*
X21200147Y-24581426D01*
X21145000Y-24858665D01*
X660000Y-24858665D01*
X660000Y-23098061D01*
X35265000Y-23098061D01*
X35265000Y-23301939D01*
X35304774Y-23501898D01*
X35382795Y-23690256D01*
X35496063Y-23859774D01*
X35640226Y-24003937D01*
X35809744Y-24117205D01*
X35998102Y-24195226D01*
X36198061Y-24235000D01*
X36401939Y-24235000D01*
X36601898Y-24195226D01*
X36790256Y-24117205D01*
X36959774Y-24003937D01*
X37103937Y-23859774D01*
X37211989Y-23698061D01*
X78565000Y-23698061D01*
X78565000Y-23901939D01*
X78604774Y-24101898D01*
X78682795Y-24290256D01*
X78796063Y-24459774D01*
X78940226Y-24603937D01*
X79109744Y-24717205D01*
X79298102Y-24795226D01*
X79498061Y-24835000D01*
X79701939Y-24835000D01*
X79901898Y-24795226D01*
X80090256Y-24717205D01*
X80259774Y-24603937D01*
X80403937Y-24459774D01*
X80517205Y-24290256D01*
X80595226Y-24101898D01*
X80635000Y-23901939D01*
X80635000Y-23733852D01*
X85452836Y-23733852D01*
X85452836Y-23937730D01*
X85492610Y-24137689D01*
X85570631Y-24326047D01*
X85683899Y-24495565D01*
X85828062Y-24639728D01*
X85997580Y-24752996D01*
X86185938Y-24831017D01*
X86385897Y-24870791D01*
X86589775Y-24870791D01*
X86789734Y-24831017D01*
X86978092Y-24752996D01*
X87088659Y-24679118D01*
X87065000Y-24798061D01*
X87065000Y-25001939D01*
X87104774Y-25201898D01*
X87182795Y-25390256D01*
X87296063Y-25559774D01*
X87440226Y-25703937D01*
X87609744Y-25817205D01*
X87798102Y-25895226D01*
X87998061Y-25935000D01*
X88201939Y-25935000D01*
X88401898Y-25895226D01*
X88590256Y-25817205D01*
X88759774Y-25703937D01*
X88903937Y-25559774D01*
X89017205Y-25390256D01*
X89095226Y-25201898D01*
X89135000Y-25001939D01*
X89135000Y-24798061D01*
X89095226Y-24598102D01*
X89017205Y-24409744D01*
X88903937Y-24240226D01*
X88759774Y-24096063D01*
X88590256Y-23982795D01*
X88401898Y-23904774D01*
X88201939Y-23865000D01*
X87998061Y-23865000D01*
X87798102Y-23904774D01*
X87609744Y-23982795D01*
X87499177Y-24056673D01*
X87522836Y-23937730D01*
X87522836Y-23733852D01*
X87483062Y-23533893D01*
X87405041Y-23345535D01*
X87291773Y-23176017D01*
X87147610Y-23031854D01*
X86978092Y-22918586D01*
X86789734Y-22840565D01*
X86589775Y-22800791D01*
X86385897Y-22800791D01*
X86185938Y-22840565D01*
X85997580Y-22918586D01*
X85828062Y-23031854D01*
X85683899Y-23176017D01*
X85570631Y-23345535D01*
X85492610Y-23533893D01*
X85452836Y-23733852D01*
X80635000Y-23733852D01*
X80635000Y-23698061D01*
X80595226Y-23498102D01*
X80517205Y-23309744D01*
X80403937Y-23140226D01*
X80259774Y-22996063D01*
X80090256Y-22882795D01*
X79901898Y-22804774D01*
X79701939Y-22765000D01*
X79498061Y-22765000D01*
X79298102Y-22804774D01*
X79109744Y-22882795D01*
X78940226Y-22996063D01*
X78796063Y-23140226D01*
X78682795Y-23309744D01*
X78604774Y-23498102D01*
X78565000Y-23698061D01*
X37211989Y-23698061D01*
X37217205Y-23690256D01*
X37295226Y-23501898D01*
X37335000Y-23301939D01*
X37335000Y-23098061D01*
X37295226Y-22898102D01*
X37217205Y-22709744D01*
X37103937Y-22540226D01*
X36959774Y-22396063D01*
X36790256Y-22282795D01*
X36601898Y-22204774D01*
X36401939Y-22165000D01*
X36198061Y-22165000D01*
X35998102Y-22204774D01*
X35809744Y-22282795D01*
X35640226Y-22396063D01*
X35496063Y-22540226D01*
X35382795Y-22709744D01*
X35304774Y-22898102D01*
X35265000Y-23098061D01*
X660000Y-23098061D01*
X660000Y-20006073D01*
X60916746Y-20006073D01*
X60916746Y-20209951D01*
X60956520Y-20409910D01*
X61034541Y-20598268D01*
X61147809Y-20767786D01*
X61291972Y-20911949D01*
X61461490Y-21025217D01*
X61649848Y-21103238D01*
X61849807Y-21143012D01*
X62053685Y-21143012D01*
X62253644Y-21103238D01*
X62442002Y-21025217D01*
X62611520Y-20911949D01*
X62755683Y-20767786D01*
X62868951Y-20598268D01*
X62946972Y-20409910D01*
X62956148Y-20363778D01*
X62992471Y-20356553D01*
X63180829Y-20278532D01*
X63350347Y-20165264D01*
X63494510Y-20021101D01*
X63607778Y-19851583D01*
X63685799Y-19663225D01*
X63725573Y-19463266D01*
X63725573Y-19259388D01*
X63685799Y-19059429D01*
X63607778Y-18871071D01*
X63494510Y-18701553D01*
X63350347Y-18557390D01*
X63180829Y-18444122D01*
X62992471Y-18366101D01*
X62792512Y-18326327D01*
X62588634Y-18326327D01*
X62388675Y-18366101D01*
X62200317Y-18444122D01*
X62030799Y-18557390D01*
X61886636Y-18701553D01*
X61773368Y-18871071D01*
X61695347Y-19059429D01*
X61686171Y-19105561D01*
X61649848Y-19112786D01*
X61461490Y-19190807D01*
X61291972Y-19304075D01*
X61147809Y-19448238D01*
X61034541Y-19617756D01*
X60956520Y-19806114D01*
X60916746Y-20006073D01*
X660000Y-20006073D01*
X660000Y-17998061D01*
X46865000Y-17998061D01*
X46865000Y-18201939D01*
X46904774Y-18401898D01*
X46982795Y-18590256D01*
X47096063Y-18759774D01*
X47240226Y-18903937D01*
X47409744Y-19017205D01*
X47598102Y-19095226D01*
X47798061Y-19135000D01*
X48001939Y-19135000D01*
X48201898Y-19095226D01*
X48390256Y-19017205D01*
X48559774Y-18903937D01*
X48703937Y-18759774D01*
X48817205Y-18590256D01*
X48895226Y-18401898D01*
X48935000Y-18201939D01*
X48935000Y-17998061D01*
X48895226Y-17798102D01*
X48895210Y-17798061D01*
X77765000Y-17798061D01*
X77765000Y-18001939D01*
X77804774Y-18201898D01*
X77882795Y-18390256D01*
X77996063Y-18559774D01*
X78140226Y-18703937D01*
X78309744Y-18817205D01*
X78498102Y-18895226D01*
X78698061Y-18935000D01*
X78901939Y-18935000D01*
X79101898Y-18895226D01*
X79290256Y-18817205D01*
X79448056Y-18711767D01*
X79540226Y-18803937D01*
X79709744Y-18917205D01*
X79898102Y-18995226D01*
X80098061Y-19035000D01*
X80301939Y-19035000D01*
X80501898Y-18995226D01*
X80690256Y-18917205D01*
X80859774Y-18803937D01*
X81003937Y-18659774D01*
X81117205Y-18490256D01*
X81195226Y-18301898D01*
X81235000Y-18101939D01*
X81235000Y-17898061D01*
X81195226Y-17698102D01*
X81117205Y-17509744D01*
X81003937Y-17340226D01*
X80859774Y-17196063D01*
X80690256Y-17082795D01*
X80501898Y-17004774D01*
X80301939Y-16965000D01*
X80098061Y-16965000D01*
X79898102Y-17004774D01*
X79709744Y-17082795D01*
X79551944Y-17188233D01*
X79459774Y-17096063D01*
X79290256Y-16982795D01*
X79101898Y-16904774D01*
X78901939Y-16865000D01*
X78698061Y-16865000D01*
X78498102Y-16904774D01*
X78309744Y-16982795D01*
X78140226Y-17096063D01*
X77996063Y-17240226D01*
X77882795Y-17409744D01*
X77804774Y-17598102D01*
X77765000Y-17798061D01*
X48895210Y-17798061D01*
X48817205Y-17609744D01*
X48703937Y-17440226D01*
X48559774Y-17296063D01*
X48390256Y-17182795D01*
X48201898Y-17104774D01*
X48001939Y-17065000D01*
X47798061Y-17065000D01*
X47598102Y-17104774D01*
X47409744Y-17182795D01*
X47240226Y-17296063D01*
X47096063Y-17440226D01*
X46982795Y-17609744D01*
X46904774Y-17798102D01*
X46865000Y-17998061D01*
X660000Y-17998061D01*
X660000Y-16458061D01*
X59385000Y-16458061D01*
X59385000Y-16661939D01*
X59424774Y-16861898D01*
X59502795Y-17050256D01*
X59616063Y-17219774D01*
X59760226Y-17363937D01*
X59929744Y-17477205D01*
X60118102Y-17555226D01*
X60318061Y-17595000D01*
X60521939Y-17595000D01*
X60721898Y-17555226D01*
X60910256Y-17477205D01*
X61079774Y-17363937D01*
X61223937Y-17219774D01*
X61337205Y-17050256D01*
X61415226Y-16861898D01*
X61455000Y-16661939D01*
X61455000Y-16458061D01*
X61415226Y-16258102D01*
X61337205Y-16069744D01*
X61223937Y-15900226D01*
X61079774Y-15756063D01*
X60910256Y-15642795D01*
X60721898Y-15564774D01*
X60521939Y-15525000D01*
X60318061Y-15525000D01*
X60118102Y-15564774D01*
X59929744Y-15642795D01*
X59760226Y-15756063D01*
X59616063Y-15900226D01*
X59502795Y-16069744D01*
X59424774Y-16258102D01*
X59385000Y-16458061D01*
X660000Y-16458061D01*
X660000Y-13198061D01*
X43064997Y-13198061D01*
X43064997Y-13401939D01*
X43104771Y-13601898D01*
X43182792Y-13790256D01*
X43296060Y-13959774D01*
X43440223Y-14103937D01*
X43609741Y-14217205D01*
X43798099Y-14295226D01*
X43998058Y-14335000D01*
X44201936Y-14335000D01*
X44401895Y-14295226D01*
X44590253Y-14217205D01*
X44759771Y-14103937D01*
X44903934Y-13959774D01*
X45017202Y-13790256D01*
X45095223Y-13601898D01*
X45134997Y-13401939D01*
X45134997Y-13198061D01*
X45095223Y-12998102D01*
X45075299Y-12950000D01*
X61111928Y-12950000D01*
X61124188Y-13074482D01*
X61160498Y-13194180D01*
X61219463Y-13304494D01*
X61298815Y-13401185D01*
X61395506Y-13480537D01*
X61505820Y-13539502D01*
X61625518Y-13575812D01*
X61750000Y-13588072D01*
X63214250Y-13585000D01*
X63373000Y-13426250D01*
X63373000Y-11327000D01*
X63627000Y-11327000D01*
X63627000Y-13426250D01*
X63785750Y-13585000D01*
X65250000Y-13588072D01*
X65374482Y-13575812D01*
X65494180Y-13539502D01*
X65604494Y-13480537D01*
X65701185Y-13401185D01*
X65780537Y-13304494D01*
X65811928Y-13245767D01*
X65811928Y-15950000D01*
X65824188Y-16074482D01*
X65860498Y-16194180D01*
X65919463Y-16304494D01*
X65998815Y-16401185D01*
X66095506Y-16480537D01*
X66205820Y-16539502D01*
X66325518Y-16575812D01*
X66450000Y-16588072D01*
X69950000Y-16588072D01*
X70074482Y-16575812D01*
X70194180Y-16539502D01*
X70304494Y-16480537D01*
X70401185Y-16401185D01*
X70480537Y-16304494D01*
X70539502Y-16194180D01*
X70575812Y-16074482D01*
X70588072Y-15950000D01*
X70588072Y-12450000D01*
X70575812Y-12325518D01*
X70539502Y-12205820D01*
X70480537Y-12095506D01*
X70401185Y-11998815D01*
X70304494Y-11919463D01*
X70194180Y-11860498D01*
X70074482Y-11824188D01*
X69950000Y-11811928D01*
X66450000Y-11811928D01*
X66325518Y-11824188D01*
X66205820Y-11860498D01*
X66095506Y-11919463D01*
X65998815Y-11998815D01*
X65919463Y-12095506D01*
X65886409Y-12157345D01*
X65885000Y-11485750D01*
X65726250Y-11327000D01*
X63627000Y-11327000D01*
X63373000Y-11327000D01*
X61273750Y-11327000D01*
X61115000Y-11485750D01*
X61111928Y-12950000D01*
X45075299Y-12950000D01*
X45017202Y-12809744D01*
X44903934Y-12640226D01*
X44759771Y-12496063D01*
X44590253Y-12382795D01*
X44401895Y-12304774D01*
X44201936Y-12265000D01*
X43998058Y-12265000D01*
X43798099Y-12304774D01*
X43609741Y-12382795D01*
X43440223Y-12496063D01*
X43296060Y-12640226D01*
X43182792Y-12809744D01*
X43104771Y-12998102D01*
X43064997Y-13198061D01*
X660000Y-13198061D01*
X660000Y-9618665D01*
X21145000Y-9618665D01*
X21145000Y-9901335D01*
X21200147Y-10178574D01*
X21308320Y-10439727D01*
X21465363Y-10674759D01*
X21665241Y-10874637D01*
X21900273Y-11031680D01*
X22161426Y-11139853D01*
X22438665Y-11195000D01*
X22721335Y-11195000D01*
X22998574Y-11139853D01*
X23259727Y-11031680D01*
X23494759Y-10874637D01*
X23616694Y-10752702D01*
X29386903Y-10752702D01*
X29458486Y-10996671D01*
X29713996Y-11117571D01*
X29988184Y-11186300D01*
X30270512Y-11200217D01*
X30550130Y-11158787D01*
X30816292Y-11063603D01*
X30941514Y-10996671D01*
X31013097Y-10752702D01*
X30200000Y-9939605D01*
X29386903Y-10752702D01*
X23616694Y-10752702D01*
X23694637Y-10674759D01*
X23851680Y-10439727D01*
X23959853Y-10178574D01*
X24015000Y-9901335D01*
X24015000Y-9830512D01*
X28759783Y-9830512D01*
X28801213Y-10110130D01*
X28896397Y-10376292D01*
X28963329Y-10501514D01*
X29207298Y-10573097D01*
X30020395Y-9760000D01*
X30379605Y-9760000D01*
X31192702Y-10573097D01*
X31436671Y-10501514D01*
X31557571Y-10246004D01*
X31626300Y-9971816D01*
X31640217Y-9689488D01*
X31598787Y-9409870D01*
X31503603Y-9143708D01*
X31436671Y-9018486D01*
X31192702Y-8946903D01*
X30379605Y-9760000D01*
X30020395Y-9760000D01*
X29207298Y-8946903D01*
X28963329Y-9018486D01*
X28842429Y-9273996D01*
X28773700Y-9548184D01*
X28759783Y-9830512D01*
X24015000Y-9830512D01*
X24015000Y-9618665D01*
X23959853Y-9341426D01*
X23851680Y-9080273D01*
X23694637Y-8845241D01*
X23616694Y-8767298D01*
X29386903Y-8767298D01*
X30200000Y-9580395D01*
X31013097Y-8767298D01*
X30941514Y-8523329D01*
X30686004Y-8402429D01*
X30411816Y-8333700D01*
X30129488Y-8319783D01*
X29849870Y-8361213D01*
X29583708Y-8456397D01*
X29458486Y-8523329D01*
X29386903Y-8767298D01*
X23616694Y-8767298D01*
X23494759Y-8645363D01*
X23259727Y-8488320D01*
X22998574Y-8380147D01*
X22721335Y-8325000D01*
X22438665Y-8325000D01*
X22161426Y-8380147D01*
X21900273Y-8488320D01*
X21665241Y-8645363D01*
X21465363Y-8845241D01*
X21308320Y-9080273D01*
X21200147Y-9341426D01*
X21145000Y-9618665D01*
X660000Y-9618665D01*
X660000Y-6500881D01*
X1078724Y-6500881D01*
X1438912Y-6990548D01*
X2102882Y-7350849D01*
X2824385Y-7574694D01*
X3575695Y-7653480D01*
X4327938Y-7584178D01*
X5052208Y-7369452D01*
X5720670Y-7017555D01*
X5761088Y-6990548D01*
X6121276Y-6500881D01*
X3600000Y-3979605D01*
X1078724Y-6500881D01*
X660000Y-6500881D01*
X660000Y-6145385D01*
X899119Y-6321276D01*
X3420395Y-3800000D01*
X3779605Y-3800000D01*
X6300881Y-6321276D01*
X6790548Y-5961088D01*
X7150849Y-5297118D01*
X7271506Y-4908212D01*
X36595000Y-4908212D01*
X36595000Y-5131788D01*
X36638617Y-5351067D01*
X36724176Y-5557624D01*
X36789241Y-5655000D01*
X36724176Y-5752376D01*
X36638617Y-5958933D01*
X36595000Y-6178212D01*
X36595000Y-6401788D01*
X36638617Y-6621067D01*
X36724176Y-6827624D01*
X36789241Y-6925000D01*
X36724176Y-7022376D01*
X36638617Y-7228933D01*
X36595000Y-7448212D01*
X36595000Y-7671788D01*
X36638617Y-7891067D01*
X36724176Y-8097624D01*
X36789241Y-8195000D01*
X36724176Y-8292376D01*
X36638617Y-8498933D01*
X36595000Y-8718212D01*
X36595000Y-8941788D01*
X36638617Y-9161067D01*
X36724176Y-9367624D01*
X36789241Y-9465000D01*
X36724176Y-9562376D01*
X36638617Y-9768933D01*
X36595000Y-9988212D01*
X36595000Y-10211788D01*
X36638617Y-10431067D01*
X36724176Y-10637624D01*
X36848388Y-10823520D01*
X37006480Y-10981612D01*
X37192376Y-11105824D01*
X37398933Y-11191383D01*
X37618212Y-11235000D01*
X37841788Y-11235000D01*
X38061067Y-11191383D01*
X38172774Y-11145112D01*
X38255820Y-11189502D01*
X38375518Y-11225812D01*
X38500000Y-11238072D01*
X39500000Y-11238072D01*
X39624482Y-11225812D01*
X39744180Y-11189502D01*
X39854494Y-11130537D01*
X39951185Y-11051185D01*
X40030537Y-10954494D01*
X40089502Y-10844180D01*
X40125812Y-10724482D01*
X40138072Y-10600000D01*
X40138072Y-9600000D01*
X40125812Y-9475518D01*
X40118072Y-9450000D01*
X61111928Y-9450000D01*
X61115000Y-10914250D01*
X61273750Y-11073000D01*
X63373000Y-11073000D01*
X63373000Y-8973750D01*
X63627000Y-8973750D01*
X63627000Y-11073000D01*
X65726250Y-11073000D01*
X65885000Y-10914250D01*
X65886931Y-9993633D01*
X65919463Y-10054494D01*
X65998815Y-10151185D01*
X66095506Y-10230537D01*
X66205820Y-10289502D01*
X66325518Y-10325812D01*
X66450000Y-10338072D01*
X67914250Y-10335000D01*
X68073000Y-10176250D01*
X68073000Y-8327000D01*
X68327000Y-8327000D01*
X68327000Y-10176250D01*
X68485750Y-10335000D01*
X69950000Y-10338072D01*
X70074482Y-10325812D01*
X70194180Y-10289502D01*
X70304494Y-10230537D01*
X70401185Y-10151185D01*
X70480537Y-10054494D01*
X70539502Y-9944180D01*
X70575812Y-9824482D01*
X70588072Y-9700000D01*
X70585000Y-8485750D01*
X70426250Y-8327000D01*
X68327000Y-8327000D01*
X68073000Y-8327000D01*
X65973750Y-8327000D01*
X65815000Y-8485750D01*
X65813302Y-9156805D01*
X65780537Y-9095506D01*
X65701185Y-8998815D01*
X65604494Y-8919463D01*
X65494180Y-8860498D01*
X65374482Y-8824188D01*
X65250000Y-8811928D01*
X63785750Y-8815000D01*
X63627000Y-8973750D01*
X63373000Y-8973750D01*
X63214250Y-8815000D01*
X61750000Y-8811928D01*
X61625518Y-8824188D01*
X61505820Y-8860498D01*
X61395506Y-8919463D01*
X61298815Y-8998815D01*
X61219463Y-9095506D01*
X61160498Y-9205820D01*
X61124188Y-9325518D01*
X61111928Y-9450000D01*
X40118072Y-9450000D01*
X40089502Y-9355820D01*
X40041930Y-9266820D01*
X40077446Y-9186864D01*
X40094119Y-9131874D01*
X39967954Y-8957000D01*
X39127000Y-8957000D01*
X39127000Y-8961928D01*
X38873000Y-8961928D01*
X38873000Y-8957000D01*
X38861974Y-8957000D01*
X38865000Y-8941788D01*
X38865000Y-8718212D01*
X38861974Y-8703000D01*
X38873000Y-8703000D01*
X38873000Y-7687000D01*
X39127000Y-7687000D01*
X39127000Y-8703000D01*
X39967954Y-8703000D01*
X40094119Y-8528126D01*
X40077446Y-8473136D01*
X39987123Y-8269794D01*
X39971792Y-8248061D01*
X82025000Y-8248061D01*
X82025000Y-8451939D01*
X82064774Y-8651898D01*
X82142795Y-8840256D01*
X82256063Y-9009774D01*
X82400226Y-9153937D01*
X82569744Y-9267205D01*
X82758102Y-9345226D01*
X82958061Y-9385000D01*
X83161939Y-9385000D01*
X83361898Y-9345226D01*
X83550256Y-9267205D01*
X83719774Y-9153937D01*
X83863937Y-9009774D01*
X83977205Y-8840256D01*
X84055226Y-8651898D01*
X84095000Y-8451939D01*
X84095000Y-8248061D01*
X84055226Y-8048102D01*
X83980651Y-7868061D01*
X84698315Y-7868061D01*
X84698315Y-8071939D01*
X84738089Y-8271898D01*
X84816110Y-8460256D01*
X84929378Y-8629774D01*
X85073541Y-8773937D01*
X85243059Y-8887205D01*
X85431417Y-8965226D01*
X85631376Y-9005000D01*
X85835254Y-9005000D01*
X86035213Y-8965226D01*
X86223571Y-8887205D01*
X86393089Y-8773937D01*
X86537252Y-8629774D01*
X86650520Y-8460256D01*
X86728541Y-8271898D01*
X86768315Y-8071939D01*
X86768315Y-7868061D01*
X86728541Y-7668102D01*
X86650520Y-7479744D01*
X86537252Y-7310226D01*
X86393089Y-7166063D01*
X86223571Y-7052795D01*
X86035213Y-6974774D01*
X85835254Y-6935000D01*
X85631376Y-6935000D01*
X85431417Y-6974774D01*
X85243059Y-7052795D01*
X85073541Y-7166063D01*
X84929378Y-7310226D01*
X84816110Y-7479744D01*
X84738089Y-7668102D01*
X84698315Y-7868061D01*
X83980651Y-7868061D01*
X83977205Y-7859744D01*
X83863937Y-7690226D01*
X83719774Y-7546063D01*
X83550256Y-7432795D01*
X83361898Y-7354774D01*
X83161939Y-7315000D01*
X82958061Y-7315000D01*
X82758102Y-7354774D01*
X82569744Y-7432795D01*
X82400226Y-7546063D01*
X82256063Y-7690226D01*
X82142795Y-7859744D01*
X82064774Y-8048102D01*
X82025000Y-8248061D01*
X39971792Y-8248061D01*
X39934361Y-8195000D01*
X39987123Y-8120206D01*
X40077446Y-7916864D01*
X40094119Y-7861874D01*
X39967954Y-7687000D01*
X39127000Y-7687000D01*
X38873000Y-7687000D01*
X38861974Y-7687000D01*
X38865000Y-7671788D01*
X38865000Y-7448212D01*
X38861974Y-7433000D01*
X38873000Y-7433000D01*
X38873000Y-7421974D01*
X38888212Y-7425000D01*
X39111788Y-7425000D01*
X39127000Y-7421974D01*
X39127000Y-7433000D01*
X39967954Y-7433000D01*
X40094119Y-7258126D01*
X40077446Y-7203136D01*
X39987123Y-6999794D01*
X39937647Y-6929658D01*
X40005824Y-6827624D01*
X40058687Y-6700000D01*
X65811928Y-6700000D01*
X65815000Y-7914250D01*
X65973750Y-8073000D01*
X68073000Y-8073000D01*
X68073000Y-6223750D01*
X68327000Y-6223750D01*
X68327000Y-8073000D01*
X70426250Y-8073000D01*
X70585000Y-7914250D01*
X70588072Y-6700000D01*
X70575812Y-6575518D01*
X70539502Y-6455820D01*
X70480537Y-6345506D01*
X70443915Y-6300881D01*
X93878724Y-6300881D01*
X94238912Y-6790548D01*
X94902882Y-7150849D01*
X95624385Y-7374694D01*
X96375695Y-7453480D01*
X97127938Y-7384178D01*
X97852208Y-7169452D01*
X98520670Y-6817555D01*
X98561088Y-6790548D01*
X98921276Y-6300881D01*
X96400000Y-3779605D01*
X93878724Y-6300881D01*
X70443915Y-6300881D01*
X70401185Y-6248815D01*
X70304494Y-6169463D01*
X70194180Y-6110498D01*
X70074482Y-6074188D01*
X69950000Y-6061928D01*
X68485750Y-6065000D01*
X68327000Y-6223750D01*
X68073000Y-6223750D01*
X67914250Y-6065000D01*
X66450000Y-6061928D01*
X66325518Y-6074188D01*
X66205820Y-6110498D01*
X66095506Y-6169463D01*
X65998815Y-6248815D01*
X65919463Y-6345506D01*
X65860498Y-6455820D01*
X65824188Y-6575518D01*
X65811928Y-6700000D01*
X40058687Y-6700000D01*
X40091383Y-6621067D01*
X40135000Y-6401788D01*
X40135000Y-6178212D01*
X40091383Y-5958933D01*
X40005824Y-5752376D01*
X39937647Y-5650342D01*
X39987123Y-5580206D01*
X40077446Y-5376864D01*
X40094119Y-5321874D01*
X39967954Y-5147000D01*
X39127000Y-5147000D01*
X39127000Y-5158026D01*
X39111788Y-5155000D01*
X38888212Y-5155000D01*
X38873000Y-5158026D01*
X38873000Y-5147000D01*
X38861974Y-5147000D01*
X38865000Y-5131788D01*
X38865000Y-4908212D01*
X38861974Y-4893000D01*
X38873000Y-4893000D01*
X38873000Y-4050871D01*
X39127000Y-4050871D01*
X39127000Y-4893000D01*
X39967954Y-4893000D01*
X40094119Y-4718126D01*
X40077446Y-4663136D01*
X39987123Y-4459794D01*
X39858865Y-4277980D01*
X39697601Y-4124682D01*
X39509529Y-4005790D01*
X39301876Y-3925874D01*
X39127000Y-4050871D01*
X38873000Y-4050871D01*
X38698124Y-3925874D01*
X38490471Y-4005790D01*
X38369512Y-4082256D01*
X38267624Y-4014176D01*
X38061067Y-3928617D01*
X37841788Y-3885000D01*
X37618212Y-3885000D01*
X37398933Y-3928617D01*
X37192376Y-4014176D01*
X37006480Y-4138388D01*
X36848388Y-4296480D01*
X36724176Y-4482376D01*
X36638617Y-4688933D01*
X36595000Y-4908212D01*
X7271506Y-4908212D01*
X7374694Y-4575615D01*
X7450785Y-3850000D01*
X23911928Y-3850000D01*
X23924188Y-3974482D01*
X23960498Y-4094180D01*
X24019463Y-4204494D01*
X24098815Y-4301185D01*
X24195506Y-4380537D01*
X24305820Y-4439502D01*
X24425518Y-4475812D01*
X24550000Y-4488072D01*
X25114250Y-4485000D01*
X25273000Y-4326250D01*
X25273000Y-3127000D01*
X24073750Y-3127000D01*
X23915000Y-3285750D01*
X23911928Y-3850000D01*
X7450785Y-3850000D01*
X7453480Y-3824305D01*
X7384178Y-3072062D01*
X7169452Y-2347792D01*
X7065329Y-2150000D01*
X23911928Y-2150000D01*
X23915000Y-2714250D01*
X24073750Y-2873000D01*
X25273000Y-2873000D01*
X25273000Y-1673750D01*
X25527000Y-1673750D01*
X25527000Y-2873000D01*
X25547000Y-2873000D01*
X25547000Y-3127000D01*
X25527000Y-3127000D01*
X25527000Y-4326250D01*
X25685750Y-4485000D01*
X26250000Y-4488072D01*
X26374482Y-4475812D01*
X26494180Y-4439502D01*
X26604494Y-4380537D01*
X26701185Y-4301185D01*
X26780537Y-4204494D01*
X26839502Y-4094180D01*
X26861513Y-4021620D01*
X26993368Y-4153475D01*
X27236589Y-4315990D01*
X27506842Y-4427932D01*
X27793740Y-4485000D01*
X28086260Y-4485000D01*
X28373158Y-4427932D01*
X28643411Y-4315990D01*
X28886632Y-4153475D01*
X29093475Y-3946632D01*
X29255990Y-3703411D01*
X29367932Y-3433158D01*
X29425000Y-3146260D01*
X29425000Y-2853740D01*
X29367932Y-2566842D01*
X29255990Y-2296589D01*
X29093475Y-2053368D01*
X28886632Y-1846525D01*
X28643411Y-1684010D01*
X28373158Y-1572068D01*
X28086260Y-1515000D01*
X27793740Y-1515000D01*
X27506842Y-1572068D01*
X27236589Y-1684010D01*
X26993368Y-1846525D01*
X26861513Y-1978380D01*
X26839502Y-1905820D01*
X26780537Y-1795506D01*
X26701185Y-1698815D01*
X26604494Y-1619463D01*
X26494180Y-1560498D01*
X26374482Y-1524188D01*
X26250000Y-1511928D01*
X25685750Y-1515000D01*
X25527000Y-1673750D01*
X25273000Y-1673750D01*
X25114250Y-1515000D01*
X24550000Y-1511928D01*
X24425518Y-1524188D01*
X24305820Y-1560498D01*
X24195506Y-1619463D01*
X24098815Y-1698815D01*
X24019463Y-1795506D01*
X23960498Y-1905820D01*
X23924188Y-2025518D01*
X23911928Y-2150000D01*
X7065329Y-2150000D01*
X6817555Y-1679330D01*
X6790548Y-1638912D01*
X6300881Y-1278724D01*
X3779605Y-3800000D01*
X3420395Y-3800000D01*
X899119Y-1278724D01*
X660000Y-1454615D01*
X660000Y-660000D01*
X1401730Y-660000D01*
X1078724Y-1099119D01*
M02*
